<svg version="1.1" xmlns="http://www.w3.org/2000/svg" xmlns:xlink="http://www.w3.org/1999/xlink" x="0" y="0" width="242.643" height="288.175" viewBox="0, 0, 242.643, 288.175">
  <g id="Layer_1">
    <path d="M168.475,249.621 C167.438,249.612 168.091,266.115 168.275,273.715 C168.366,277.346 196.585,275.053 196.087,268.144 C195.592,261.234 187.207,262.446 180.039,258.516 C172.87,254.586 170.246,249.633 168.475,249.621" fill="#BC7F71"/>
    <path d="M128.669,162.274 L139.772,172.67 L151.953,161.498 L128.669,162.274" fill="#BC7F71"/>
    <path d="M191.699,188.222 L184.175,164.253 L180.695,159.959 L174.232,158.369 L166.829,166.331 L156.598,173.984 L151.246,177.312 L148.772,171.555 L144.573,168.268 L140.323,172.965 L136.817,168.786 L132.571,170.615 L129.396,177.312 L121.989,171.985 L112.571,165.231 L105.988,158.581 L100.863,159.931 L97.565,164.307 L90.475,188.222 L87.548,187.698 L84.816,197.978 L107.291,203.331 L109.977,193.069 L107.475,192.293 L112.226,178.522 L112.226,230.03 L168.662,230.03 L168.919,179.695 L173.934,192.333 L171.421,192.911 L173.964,203.395 L196.706,197.978 L194.412,187.698 L191.699,188.222" fill="#E4986E"/>
    <path d="M126.914,230.145 L122.816,230.113 L122.816,242.152 L126.914,242.152 L126.914,230.145" fill="#DDB3A0"/>
    <path d="M168.33,230.47 L164.231,230.438 L164.231,242.152 L168.33,242.152 L168.33,230.47" fill="#DDB3A0"/>
    <path d="M137.268,230.227 L133.17,230.195 L133.17,242.152 L137.268,242.152 L137.268,230.227" fill="#DDB3A0"/>
    <path d="M157.974,230.389 L153.879,230.357 L153.879,242.152 L157.974,242.152 L157.974,230.389" fill="#DDB3A0"/>
    <path d="M147.621,230.308 L143.525,230.275 L143.525,242.152 L147.621,242.152 L147.621,230.308" fill="#DDB3A0"/>
    <path d="M184.942,166.692 L184.942,200.78 L189.038,199.805 L189.038,179.74 L184.942,166.692" fill="#DDB3A0"/>
    <path d="M174.586,158.456 L174.586,203.247 L178.685,202.27 L178.685,159.465 L174.586,158.456" fill="#DDB3A0"/>
    <path d="M116.56,230.065 L112.461,230.031 L112.461,242.152 L116.56,242.152 L116.56,230.065" fill="#DDB3A0"/>
    <path d="M112.571,165.231 L112.461,165.121 L112.461,230.03 L116.56,230.03 L116.56,168.092 L112.571,165.231" fill="#DDB3A0"/>
    <path d="M195.295,198.314 L196.707,197.978 L195.295,191.651 L195.295,198.314" fill="#DDB3A0"/>
    <path d="M102.107,159.603 L102.107,202.097 L106.205,203.072 L106.205,158.801 L105.988,158.581 L102.107,159.603" fill="#DDB3A0"/>
    <path d="M91.755,183.904 L91.755,199.63 L95.851,200.607 L95.851,170.088 L91.755,183.904" fill="#DDB3A0"/>
    <path d="M122.816,172.581 L122.816,230.03 L126.914,230.03 L126.914,175.527 L122.816,172.581" fill="#DDB3A0"/>
    <path d="M144.573,168.268 L143.525,169.426 L143.525,230.03 L147.621,230.03 L147.621,170.656 L144.573,168.268" fill="#DDB3A0"/>
    <path d="M153.879,175.674 L153.879,230.03 L157.974,230.03 L157.974,172.953 L156.598,173.984 L153.879,175.674" fill="#DDB3A0"/>
    <path d="M164.231,168.273 L164.231,230.03 L168.33,230.03 L168.33,164.716 L166.829,166.331 L164.231,168.273" fill="#DDB3A0"/>
    <path d="M136.817,168.786 L133.17,170.358 L133.17,230.03 L137.268,230.03 L137.268,169.322 L136.817,168.786" fill="#DDB3A0"/>
    <path d="M149.827,174.01 L148.772,171.555 L146.537,169.805 L143.18,169.805 L140.323,172.965 L137.672,169.805 L134.451,169.805 L132.571,170.615 L130.962,174.01 L149.827,174.01" fill="#D98469"/>
    <path d="M112.226,183.558 L168.901,183.558 L168.919,179.695 L170.45,183.558 L190.234,183.558 L188.915,179.355 L112.226,179.355 L112.226,183.558" fill="#D98469"/>
    <path d="M168.801,202.656 L168.825,198.451 L112.226,198.451 L112.226,202.656 L168.801,202.656" fill="#D98469"/>
    <path d="M173.934,192.333 L171.421,192.911 L171.469,193.106 L195.62,193.106 L194.682,188.903 L172.573,188.903 L173.934,192.333" fill="#D98469"/>
    <path d="M168.91,231.301 L168.91,230.475 L112.226,230.03 L112.2,231.301 L168.91,231.301" fill="#D98469"/>
    <path d="M168.677,227.098 L112.226,227.098 L112.226,230.03 L168.662,230.03 L168.677,227.098" fill="#D98469"/>
    <path d="M111.81,164.461 L107.646,160.258 L100.617,160.258 L97.565,164.307 L97.521,164.461 L111.81,164.461" fill="#D98469"/>
    <path d="M173.781,202.656 L177.069,202.656 L194.719,198.451 L172.763,198.451 L173.781,202.656" fill="#D98469"/>
    <path d="M112.226,188.903 L112.226,193.106 L168.851,193.106 L168.872,188.903 L112.226,188.903" fill="#D98469"/>
    <path d="M168.752,212.203 L168.774,208 L112.226,208 L112.226,212.203 L168.752,212.203" fill="#D98469"/>
    <path d="M156.598,173.984 L156.554,174.01 L187.237,174.01 L185.918,169.805 L162.183,169.805 L156.598,173.984" fill="#D98469"/>
    <path d="M168.919,240.849 L168.914,236.646 L112.085,236.646 L111.994,240.849 L168.919,240.849" fill="#D98469"/>
    <path d="M107.469,202.656 L108.569,198.451 L86.803,198.451 L104.452,202.656 L107.469,202.656" fill="#D98469"/>
    <path d="M168.704,221.752 L168.727,217.549 L112.226,217.549 L112.226,221.752 L168.704,221.752" fill="#D98469"/>
    <path d="M168.568,164.461 L184.242,164.461 L184.175,164.253 L180.937,160.258 L172.476,160.258 L168.568,164.461" fill="#D98469"/>
    <path d="M124.8,174.01 L121.989,171.985 L118.95,169.805 L95.935,169.805 L94.689,174.01 L124.8,174.01" fill="#D98469"/>
    <path d="M110.49,183.558 L111.94,179.355 L93.103,179.355 L91.857,183.558 L110.49,183.558" fill="#D98469"/>
    <path d="M109.968,193.106 L109.977,193.069 L107.475,192.293 L108.645,188.903 L87.23,188.903 L86.109,193.106 L109.968,193.106" fill="#D98469"/>
    <path d="M168.919,242.152 L111.975,241.724 L112.226,230.475 L168.662,230.03 L168.919,242.152" fill="#634332"/>
    <path d="M133.041,230.03 L147.076,230.475 L147.189,242.315 L133.041,242.152 L133.041,230.03" fill="#A77B67"/>
    <path d="M111.966,242.152 L119.701,242.152 L119.833,230.495 L123.839,230.484 L124.024,241.979 L156.187,242.152 L156.187,230.475 L160.291,230.475 L160.291,242.152 L168.919,242.152 L168.662,274.367 L112.571,274.715 L111.966,242.152" fill="#2D749F"/>
    <path d="M135.989,168.015 L130.84,164.307 L107.291,159.571 L117.703,168.913 L129.396,177.312 L132.199,170.727 L135.989,168.015" fill="#DFC2AF"/>
    <path d="M174.232,159.118 L158.902,162.695 L149.362,163.874 L144.573,168.268 L148.772,171.555 L151.246,177.312 L162.671,169.692 L174.232,159.118" fill="#DFC2AF"/>
    <path d="M171.421,192.333 L193.937,187.698 L196.706,197.978 L173.964,203.395 L171.421,192.333" fill="#DFC2AF"/>
    <path d="M88.161,187.698 L84.816,197.978 L107.291,203.331 L109.977,193.069 L88.161,187.698" fill="#DFC2AF"/>
    <path d="M168.919,264.773 C167.308,262.285 140.446,260.487 140.446,276.226 C140.446,281.641 146.297,285.575 148.423,286.173 C151.813,287.125 150.706,283.347 155.823,283.722 C160.937,284.097 162.221,288.32 166.477,286.795 C170.735,285.27 168.781,281.396 171.15,278.841 C173.518,276.284 177.361,279.383 177.361,274.715 C177.361,271.4 170.532,267.258 168.919,264.773" fill="#6A281F"/>
    <path d="M111.971,264.773 C110.361,267.258 103.532,271.4 103.532,274.715 C103.532,279.383 107.373,276.284 109.743,278.841 C112.111,281.396 110.157,285.27 114.416,286.795 C118.671,288.32 119.953,284.097 125.069,283.722 C130.183,283.347 129.079,287.125 132.468,286.173 C134.594,285.575 140.446,281.641 140.446,276.226 C140.446,260.487 113.585,262.285 111.971,264.773" fill="#6A281F"/>
    <path d="M108.671,221.165 L96.045,224.863 L88.601,205.275 L89.836,199.174 L103.532,202.279 L102.869,204.867 L108.671,221.165" fill="#BC7F71"/>
    <path d="M178.059,202.52 L191.776,199.153 L193.363,205.108 L185.101,225.791 L179.877,220.672 L174.232,219.242 L178.718,204.832 L178.059,202.52" fill="#BC7F71"/>
    <path d="M96.608,227.251 C97.252,224.313 101.715,219.368 106.26,219.368 C109.334,219.367 113.79,223.098 113.767,224.817 C113.742,226.682 112.724,226.651 111.788,226.62 C111.162,226.601 110.572,226.58 110.345,227.13 C109.564,229.017 112.937,231.71 111.684,233.806 C110.506,235.773 109.106,235.234 107.937,234.694 C107.114,234.315 106.405,233.936 105.969,234.43 C104.483,236.114 107.327,236.593 104.543,238.505 C102.595,239.841 94.863,235.237 96.608,227.251" fill="#6A281F"/>
    <path d="M167.904,223.841 L174.524,219.368 L180.711,221.225 L185.26,228.262 L183.797,235.527 L178.264,238.648 L175.622,237.303 L175.622,234.481 L171.543,235.07 L169.128,232.999 L171.235,226.894 L168.662,226.051 L167.874,224.255 L167.904,223.841" fill="#6A281F"/>
    <path d="M98.906,153.643 C74.405,146.769 65.517,131.19 67.121,109.955 C70.949,71.155 96.712,27.693 139.728,27.693 L139.671,27.693 C182.686,27.693 208.452,71.155 212.28,109.955 C213.884,131.19 204.996,146.769 180.496,153.643 L98.906,153.643" fill="#BC7F71"/>
    <path d="M97.565,98.795 C94.448,98.795 91.549,99.741 89.15,101.36 C88.013,99.941 86.262,99.027 84.292,99.027 C80.864,99.027 78.084,101.791 78.084,105.198 C78.084,108.091 80.088,110.511 82.792,111.18 C82.65,112.003 82.559,112.843 82.559,113.708 C82.559,121.944 89.279,128.621 97.565,128.621 C105.852,128.621 112.571,121.944 112.571,113.708 C112.571,105.471 105.852,98.795 97.565,98.795" fill="#0B0B0A"/>
    <path d="M181.834,98.795 C184.954,98.795 187.852,99.741 190.251,101.36 C191.388,99.941 193.138,99.027 195.106,99.027 C198.537,99.027 201.317,101.791 201.317,105.198 C201.317,108.091 199.31,110.511 196.609,111.18 C196.751,112.003 196.841,112.843 196.841,113.708 C196.841,121.944 190.123,128.621 181.834,128.621 C173.549,128.621 166.829,121.944 166.829,113.708 C166.829,105.471 173.549,98.795 181.834,98.795" fill="#0B0B0A"/>
    <path d="M99.017,109.737 C99.017,112.314 96.916,114.403 94.324,114.403 C91.732,114.403 89.63,112.314 89.63,109.737 C89.63,107.162 91.732,105.073 94.324,105.073 C96.916,105.073 99.017,107.162 99.017,109.737" fill="#D7E7E8"/>
    <path d="M183.123,109.736 C183.123,112.314 181.022,114.402 178.43,114.402 C175.836,114.402 173.737,112.314 173.737,109.736 C173.737,107.161 175.836,105.072 178.43,105.072 C181.022,105.072 183.123,107.161 183.123,109.736" fill="#D7E7E8"/>
    <path d="M181.834,150.086 C181.834,148.374 181.106,146.818 179.449,145.301 C179.039,144.924 178.413,144.264 177.425,143.485 C176.015,142.372 174.37,140.954 172.611,139.525 L172.797,139.354 C175.068,136.852 159.034,130.39 155.318,128.158 C151.604,125.925 146.385,118.796 140.907,118.833 C135.431,118.869 129.529,125.531 127.096,127.646 C124.023,130.319 120.247,132.019 116.934,133.419 L116.321,133.522 C115.11,133.923 113.859,134.549 112.603,135.307 C111.282,135.95 110.229,136.6 109.591,137.343 C106.792,139.41 104.116,141.798 101.976,143.485 C100.989,144.264 100.361,144.924 99.952,145.301 C98.297,146.818 97.565,148.374 97.565,150.086 C97.565,157.906 116.427,164.246 139.701,164.253 C162.973,164.246 181.834,157.906 181.834,150.086" fill="#6A281F"/>
    <path d="M149.247,155.181 C148.687,157.296 146.943,158.671 145.353,158.257 C143.757,157.842 142.917,155.792 143.475,153.679 C144.033,151.563 145.777,150.187 147.371,150.602 C148.964,151.019 149.805,153.068 149.247,155.181" fill="#52221A"/>
    <path d="M130.155,155.181 C130.714,157.296 132.459,158.671 134.049,158.257 C135.644,157.842 136.484,155.792 135.926,153.679 C135.366,151.563 133.623,150.187 132.029,150.602 C130.437,151.019 129.598,153.068 130.155,155.181" fill="#52221A"/>
    <path d="M80.29,63.935 L85.629,51.994 L98.974,54.566 L116.285,56.711 L136.815,58.152 L164.721,56.711 L184.073,54.389 L195.253,51.89 L200.717,64.292 L187.122,70.41 L171.563,74.241 L158.781,76.768 L143.302,77.525 L131.73,77.294 L121.962,76.768 L112.42,75.319 L97.929,71.439 L80.796,64.61" fill="#A77B67"/>
    <path d="M240.74,47.059 C235.091,42.959 233.163,45.687 222.569,52.464 L210.27,59.221 L183.581,71.078 L160.877,76.098 L143.302,77.525 L128.786,77.445 L112.42,75.319 L88.601,67.992 L54.339,49.814 C47.171,45.048 45.063,43.546 40.221,47.059 C30.536,54.086 60.37,88.223 72.338,87.701 L80.159,68.34 L89.63,73.477 L104.334,78.838 L121.962,82.554 L143.302,83.8 L158.781,82.498 L176.983,78.554 L196.708,70.605 L200.61,67.867 L208.624,87.701 C220.589,88.223 250.425,54.086 240.74,47.059" fill="#634332"/>
    <path d="M135.439,58.152 L157.493,57.536 L178.43,55.267 L195.253,51.89 L179.433,9.037 L165.247,3.996 L146.831,1.046 L122.595,2.211 L100.911,9.037 L85.088,51.89 L110.109,56.711 L135.439,58.152" fill="#634332"/>
    <path d="M108.671,258.099 L101.659,242.315 L102.282,238.51 L98.223,235.234 L96.708,243.731 L103.956,259.266 L108.671,258.099" fill="#A77B67"/>
    <path d="M92.151,278.357 L80.916,280.365 L67.788,281.87 L42.537,281.87 L31.684,280.865 L19.689,278.357 L11.484,275.597 L7.37,272.35 L9.002,269.766 L15.27,266.562 L27.643,264.178 L38.752,262.673 L49.23,262.171 L59.077,262.171 L68.797,262.548 L77.256,263.426 L85.21,264.17 L92.952,265.81 L98.19,267.589 L99.48,268.593 L97.414,272.6 L96.24,276.794 L92.151,278.357 z M123.712,271.539 L117.001,272.284 L110.12,271.449 L107.982,267.955 L101.767,264.164 L101.684,264.328 L98.29,262.821 L89.218,260.351 L79.011,258.618 L69.696,257.679 L58.323,257.192 L46.055,257.402 L33.442,258.458 L20.452,260.686 L9.887,263.955 L3.61,267.575 L1.053,272.6 L5.045,278.045 L10.558,280.53 L20.387,283.507 L32.492,285.634 L45.695,286.79 L58.066,287.036 L74.476,286.115 L86.849,285.006 L96.148,282.084 L99.17,280.29 L100.004,281.165 L107.155,282.744 L113.943,280.42 L115.713,276.913 L121.804,276.641 L129.907,274.61" fill="#A77B67"/>
    <path d="M122.075,271.539 L136.815,268.889 L158.902,261.285 L174.081,251.616 L180.701,242.315 L181.998,236.924 L184.816,233.104 L186.124,237.719 L185.864,243.387 L181.998,251.084 L170.441,260.685 L156.187,267.966 L143.08,272.114 L126.566,275.896 L122.075,271.539" fill="#A77B67"/>
    <path d="M108.366,219.403 L116.34,215.454 L128.181,213.887 L139.026,213.887 L149.911,215.456 L172.698,220.005 L168.045,223.074 L152.037,220.005 L137.646,218.48 L123.006,218.205 L117.977,219.368 L112.653,222.283 L108.366,219.403" fill="#A77B67"/>
    <path d="M173.964,141.273 C173.615,140.35 152.648,141.273 140.965,136.456 C138.96,135.629 131.953,137.291 125.288,138.953 C119.318,140.442 113.621,141.93 112.041,141.631 C108.693,140.997 107.378,139.957 106.98,140.245 C105.018,141.67 98.317,147.121 98.732,149.772 C99.146,152.42 101.992,156.19 104.885,157.571 C107.778,158.953 123.319,163.027 125.192,163.292 C127.069,163.558 154.102,165.448 149.211,164.29 C137.428,161.498 107.46,157.002 105.484,147.559 C105.196,146.177 107.159,143.882 107.993,144.103 C118.665,146.947 134.168,140.311 139.885,140.22 C143.524,140.161 149.213,141.17 154.917,142.179 C165.282,144.013 175.7,145.846 173.964,141.273" fill="#54211C"/>
    <path d="M131.566,164.663 L140.457,172.041 L149.211,164.29 L131.566,164.663" fill="#AF675C"/>
    <path d="M89.1,198.999 C88.594,201.193 88.283,203.245 88.316,204.521 C88.418,208.466 94.523,221.853 95.786,224.183 C96.268,225.072 97.962,223.944 99.439,222.815 C100.679,221.869 101.767,220.923 101.863,221.165 C102.487,222.751 95.895,207.886 94.896,204.627 C94.681,203.926 102.895,204.723 103.083,203.612 L89.1,198.999" fill="#AF675C"/>
    <path d="M168.919,261.058 C170.441,260.094 171.543,255.677 176.615,263.137 C178.53,265.954 191.47,272.428 196.095,268.542 C199.497,265.685 194.062,277.623 178.295,275.131 C177.356,274.982 170.875,266.192 168.919,264.773 C167.622,263.831 167.481,261.97 168.919,261.058" fill="#AF675C"/>
    <path d="M134.569,281.991 C131.442,282.731 130.472,280.14 127.418,279.843 C124.364,279.549 118.95,283.134 116.692,281.991 C115.713,281.495 116.55,281.38 114.315,280.048 L110.709,282.305 C112.127,283.361 112.51,286.476 114.416,286.795 C116.321,287.115 122.259,283.374 125.069,283.722 C127.878,284.071 128.313,286.235 131.218,286.814 C134.122,287.395 138.841,282.118 139.834,279.241 C140.828,276.364 137.699,281.251 134.569,281.991" fill="#54211C"/>
    <path d="M168.162,264.197 C170.778,266.727 175.248,272.967 173.461,274.797 C172.177,276.111 169.438,275.018 167.201,276.352 C164.966,277.684 166.98,281.978 164.447,282.051 C161.916,282.126 156.773,279.609 153.72,279.905 C150.665,280.2 149.696,282.792 146.569,282.051 C143.44,281.312 140.31,276.426 141.307,279.303 C142.298,282.18 147.015,287.456 149.92,286.876 C152.826,286.295 153.259,284.131 156.069,283.783 C158.881,283.436 164.818,287.177 166.722,286.858 C168.628,286.536 170.853,278.868 172.268,277.811 C173.686,276.754 176.252,278.37 177.608,276.5 C180.166,272.967 166.513,262.601 168.162,264.197" fill="#54211C"/>
    <path d="M168.909,243.565 C159.767,244.602 148.475,245.871 147.75,245.911 C147.081,245.948 147.228,258.239 147.099,265.905 C147.06,268.244 141.319,266.225 140.022,268.066 C139.959,260.309 141.467,245.907 139.577,245.911 C137.265,245.917 121.177,248.886 120.76,250.376 C120.493,251.329 120.39,257.921 120.13,263.14 C120.083,264.039 119.993,263.137 119.565,263.155 C118.478,263.204 113.125,264.993 111.966,265.073 C111.675,265.093 111.818,267.729 111.765,265.158 C111.602,257.443 112.254,241.949 112.254,241.949 L167.419,241.987" fill="#235B87"/>
    <path d="M98.284,235.312 C99.125,236.653 102.323,238.462 104.543,238.504 C106.764,238.547 105.514,235.374 105.969,234.43 C106.425,233.487 108.196,234.476 110.709,234.744 C111.881,234.869 111.859,233.32 111.476,231.773 C111.036,229.996 110.118,228.22 109.977,228.971 C109.712,230.379 110.525,231.419 109.251,231.911 C108.746,232.108 107.884,232.035 106.951,231.962 C105.536,231.853 103.958,231.743 103.211,232.569 C101.964,233.948 96.096,229.394 96.608,227.251 L98.284,235.312" fill="#54211C"/>
    <path d="M108.353,189.75 L108.645,188.903 L108.644,188.903 L108.936,188.058 C108.818,188.595 108.611,189.185 108.353,189.75 M90.521,188.066 C90.454,188.053 90.388,188.04 90.322,188.028 C90.08,185.223 95.111,170.175 97.303,164.55 C97.098,164.432 96.946,164.33 96.864,164.253 C96.297,163.717 97.948,162.332 100.044,161.018 L97.565,164.307 L95.851,170.091 L95.851,170.088 L93.104,179.355 L93.103,179.355 L91.857,183.558 L91.755,183.904 L91.755,183.905 L90.521,188.066 M116.806,168.269 L116.56,168.092 L112.571,165.231 L111.808,164.461 L111.81,164.461 L106.631,159.231 C107.246,159.7 108.036,160.324 108.95,161.059 L113.907,165.508 L116.806,168.269 M102.966,159.377 C103.805,158.958 104.59,158.615 105.213,158.4 L105.204,158.33 L105.36,158.35 C105.383,158.341 105.407,158.334 105.431,158.327 C105.613,158.412 105.799,158.497 105.988,158.581 L102.966,159.377 M106.623,159.223 L105.99,158.582 C106.057,158.613 106.127,158.644 106.197,158.674 L106.623,159.223" fill="#E2BFAA"/>
    <path d="M108.644,188.903 L106.205,188.903 L106.205,184.442 C107.066,185.099 107.905,185.666 108.671,186.169 C109.091,186.446 109.129,187.184 108.936,188.058 L108.644,188.903 M95.851,183.558 L102.107,183.558 L102.107,188.903 L95.851,188.903 z M91.755,188.332 C91.336,188.236 90.919,188.146 90.521,188.066 L91.755,183.905 L91.755,188.332 M101.28,179.355 L95.851,179.355 L95.851,174.01 L98.783,174.01 C99.385,176.09 100.26,177.851 101.28,179.355 M95.851,170.092 L95.851,170.091 L97.565,164.307 L97.521,164.461 L102.107,164.461 L102.107,166.68 C100.443,166.038 98.992,165.414 98.028,164.937 C97.88,166.696 97.885,168.315 98.014,169.805 L95.935,169.805 L95.851,170.092 M118.419,169.805 L116.56,169.805 L116.56,168.092 L116.806,168.269 L118.419,169.805 M112.461,169.674 C110.704,169.444 108.452,168.849 106.205,168.127 L106.205,164.461 L111.808,164.461 L112.571,165.231 L112.461,165.121 L112.461,169.674 M109.539,162.169 L107.646,160.258 L106.205,160.258 L106.205,158.801 L105.99,158.582 L106.623,159.223 L106.627,159.228 C106.628,159.229 106.629,159.23 106.631,159.231 L109.539,162.169 M102.107,160.258 L101.318,160.258 C101.581,160.109 101.844,159.963 102.107,159.822 L102.107,160.258" fill="#D0815D"/>
    <path d="M116.56,169.805 L113.028,169.805 C113.003,169.781 112.977,169.755 112.952,169.73 C112.793,169.715 112.629,169.696 112.461,169.674 L112.461,165.121 L112.571,165.231 L116.56,168.092 L116.56,169.805" fill="#CC917A"/>
    <path d="M106.205,188.903 L102.107,188.903 L102.107,183.558 L105.107,183.558 C105.474,183.869 105.842,184.164 106.205,184.442 L106.205,188.903 M106.205,168.127 C104.795,167.675 103.388,167.172 102.107,166.68 L102.107,164.461 L106.205,164.461 L106.205,168.127 M106.205,160.258 L102.107,160.258 L102.107,159.822 C102.396,159.667 102.685,159.518 102.966,159.377 L105.988,158.581 C105.988,158.582 105.989,158.582 105.99,158.582 L106.205,158.801 L106.205,160.258" fill="#CC917A"/>
    <path d="M95.851,188.903 L93.906,188.903 C93.222,188.695 92.482,188.501 91.755,188.332 L91.755,183.904 L91.858,183.558 L95.851,183.558 L95.851,188.903 M95.851,179.355 L93.104,179.355 L95.851,170.088 L95.851,170.092 L94.689,174.01 L95.851,174.01 L95.851,179.355" fill="#CC917A"/>
    <path d="M111.81,164.461 L97.521,164.461 L97.565,164.307 L100.044,161.018 C100.457,160.76 100.886,160.504 101.318,160.258 L107.646,160.258 L111.81,164.461" fill="#CA745A"/>
    <path d="M151.246,177.312 L152.248,176.643 C152.263,176.651 152.277,176.657 152.29,176.663 L151.246,177.312 M129.396,177.312 L129.779,176.41 C129.803,176.394 129.825,176.376 129.848,176.359 L129.396,177.312 M155.362,174.752 C155.878,174.359 156.444,173.918 157.049,173.441 L159.558,171.769 L157.974,172.953 L156.598,173.984 L156.554,174.01 L155.362,174.752 M140.323,172.965 L139.944,172.513 L140.477,172.024 L140.91,171.642 C141.298,171.487 141.702,171.249 142.118,170.979 L140.323,172.965 M134.348,169.85 C134.511,169.637 134.674,169.441 134.835,169.261 C135.094,169.054 135.341,168.871 135.567,168.733 L136.001,169.138 L134.452,169.805 L134.451,169.805 L134.348,169.85 M164.179,168.312 L165.316,167.273 C165.505,167.211 165.668,167.153 165.802,167.099 L164.231,168.273 L164.179,168.312 M168.259,164.793 C168.493,164.516 168.733,164.224 168.972,163.929 L169.577,163.375 L168.568,164.461 L168.33,164.716 L168.259,164.793 M175.102,158.582 L175.098,158.581 L175.1,158.581 L175.102,158.582" fill="#E2BFAA"/>
    <path d="M139.944,172.513 L137.467,169.559 L138.904,170.752 C139.166,171.35 139.465,171.819 140.104,171.819 C140.131,171.819 140.159,171.819 140.186,171.816 L140.457,172.041 L140.477,172.024 L139.944,172.513 M136,169.138 L135.566,168.733 C135.784,168.598 135.982,168.505 136.151,168.468 L136.631,168.866 L136,169.138" fill="#B87260"/>
    <path d="M153.879,179.355 L148.144,179.355 C147.96,178.772 147.788,178.13 147.621,177.473 L147.621,174.01 L149.827,174.01 L151.246,177.312 L152.29,176.663 C152.342,176.685 152.393,176.698 152.443,176.699 C152.444,176.699 152.444,176.699 152.446,176.699 C152.612,176.699 153.122,176.389 153.879,175.85 L153.879,179.355 M129.544,179.355 L126.914,179.355 L126.914,175.53 L129.396,177.312 L129.848,176.359 C130.422,175.909 131.04,175.029 131.683,174.01 L133.03,174.01 C131.885,175.733 130.61,177.858 129.544,179.355 M137.268,178.318 L137.268,174.01 L140.032,174.01 C139.471,174.492 139.066,174.95 138.939,175.281 C138.132,177.41 137.613,178.256 137.268,178.318 M122.816,178.206 C121.249,177.038 119.445,175.597 117.602,174.01 L122.816,174.01 L122.816,178.206 M157.974,176.816 L157.974,174.01 L161.63,174.01 C160.389,174.997 159.153,175.943 157.974,176.816 M155.362,174.753 L155.362,174.753 L156.555,174.01 L156.554,174.01 L155.362,174.753 M140.323,172.965 L137.672,169.805 L137.268,169.805 L137.268,169.394 L137.467,169.559 L140.323,172.965 M148.772,171.555 L146.537,169.805 L146.535,169.805 L145.808,169.236 C145.808,169.236 145.808,169.236 145.809,169.236 L148.772,171.555 M164.231,169.805 L162.502,169.805 L162.671,169.692 L164.179,168.312 L164.231,168.274 L164.231,169.805 M134.452,169.805 L134.452,169.805 L136,169.138 L136.631,168.866 L134.452,169.805 M168.33,168.23 L168.33,164.716 L168.567,164.461 L171.883,164.461 C170.921,165.643 169.702,166.921 168.33,168.23 M174.586,160.258 L173.061,160.258 L174.586,159.003 L174.586,160.258 M178.685,160.247 L178.685,159.979 L178.952,160.084 C178.865,160.137 178.777,160.192 178.685,160.247 M175.103,158.582 L175.098,158.582 L175.098,158.581 L175.102,158.582 L175.103,158.582" fill="#D0815D"/>
    <path d="M178.668,160.258 L174.586,160.258 L174.586,159.003 L175.098,158.583 L175.103,158.583 L178.685,159.979 L178.685,160.247 C178.68,160.251 178.673,160.255 178.668,160.258" fill="#CC917A"/>
    <path d="M126.914,179.355 L124.404,179.355 C123.911,179.01 123.379,178.626 122.816,178.206 L122.816,174.01 L124.798,174.01 L126.914,175.53 L126.914,179.355" fill="#CC917A"/>
    <path d="M147.621,177.473 C147.32,176.285 147.038,175.047 146.736,174.01 L147.621,174.01 L147.621,177.473 M146.535,169.805 L143.974,169.805 C144.571,169.483 145.184,169.249 145.808,169.236 L146.535,169.805" fill="#CC917A"/>
    <path d="M154.423,179.355 L153.879,179.355 L153.879,175.85 C154.302,175.55 154.801,175.179 155.362,174.752 L156.555,174.01 L157.974,174.01 L157.974,176.816 C156.701,177.761 155.495,178.621 154.423,179.355 M156.598,173.984 L156.598,173.984 L157.974,172.953 L156.598,173.984" fill="#CC917A"/>
    <path d="M166.626,169.805 L164.231,169.805 L164.231,168.273 L165.802,167.099 C165.919,167.052 166.015,167.009 166.086,166.968 C166.564,166.697 167.378,165.836 168.259,164.793 L168.33,164.716 L168.33,168.23 C167.784,168.751 167.213,169.278 166.626,169.805" fill="#CC917A"/>
    <path d="M137.227,178.323 C136.715,178.323 136.606,176.512 136.48,174.702 C136.464,174.469 136.448,174.237 136.431,174.01 L137.268,174.01 L137.268,178.318 C137.253,178.32 137.239,178.323 137.227,178.323 M137.268,169.805 L134.452,169.805 L136.631,168.866 L137.268,169.394 L137.268,169.805" fill="#CC917A"/>
    <path d="M149.827,174.01 L146.736,174.01 C146.338,172.645 145.905,171.631 145.348,171.544 C145.257,171.529 145.161,171.523 145.061,171.523 C143.665,171.523 141.392,172.838 140.032,174.01 L136.431,174.01 C136.311,172.456 136.139,171.081 135.636,171.081 C135.613,171.081 135.588,171.084 135.563,171.091 C134.987,171.234 134.061,172.459 133.03,174.01 L131.683,174.01 C131.993,173.518 132.309,172.993 132.627,172.469 C133.195,171.534 133.773,170.6 134.348,169.85 L134.451,169.805 L137.672,169.805 L140.323,172.965 L142.118,170.979 C142.713,170.595 143.333,170.15 143.974,169.805 L146.537,169.805 L148.772,171.555 L149.827,174.01" fill="#CA745A"/>
    <path d="M149.924,181.958 C149.174,181.958 148.618,180.849 148.144,179.355 L154.423,179.355 C152.286,180.817 150.684,181.782 150.137,181.929 C150.064,181.949 149.994,181.958 149.924,181.958 M127.678,181.219 C127.286,181.219 126.075,180.521 124.404,179.355 L129.544,179.355 C128.792,180.409 128.144,181.151 127.718,181.216 C127.705,181.217 127.693,181.219 127.678,181.219" fill="#CA745A"/>
    <path d="M161.63,174.01 L156.554,174.01 L156.598,173.984 L157.974,172.953 L159.558,171.769 L162.502,169.805 L166.626,169.805 C165.041,171.228 163.33,172.658 161.63,174.01" fill="#CA745A"/>
    <path d="M171.883,164.461 L168.567,164.461 L169.577,163.375 L172.303,160.882 L173.061,160.258 L178.668,160.258 C177.131,161.194 174.971,162.388 172.618,163.506 C172.395,163.816 172.149,164.135 171.883,164.461" fill="#CA745A"/>
    <path d="M124.798,174.01 L117.602,174.01 C116.066,172.686 114.504,171.261 113.028,169.805 L118.419,169.805 L119.724,171.05 C119.974,171.081 120.36,171.12 120.842,171.169 L124.798,174.01 M98.783,174.01 L94.689,174.01 L95.935,169.805 L98.014,169.805 C98.147,171.337 98.415,172.733 98.783,174.01" fill="#CA745A"/>
    <path d="M105.107,183.558 L91.857,183.558 L93.103,179.355 L101.28,179.355 C102.433,181.054 103.769,182.425 105.107,183.558" fill="#CA745A"/>
    <path d="M106.502,192.214 L95.75,189.567 C95.24,189.338 94.601,189.113 93.906,188.903 L108.645,188.903 L108.353,189.75 C107.845,190.861 107.137,191.875 106.502,192.214" fill="#CA745A"/>
    <path d="M129.396,177.312 L120.842,171.169 C121.025,171.186 121.223,171.204 121.432,171.224 C125.167,174.214 128.27,176.568 128.995,176.671 C129.029,176.676 129.063,176.678 129.097,176.678 C129.316,176.678 129.544,176.582 129.779,176.41 L129.396,177.312 M113.907,165.508 L108.95,161.059 C109.546,161.54 110.197,162.068 110.884,162.629 L113.907,165.508" fill="#CD9B83"/>
    <path d="M151.246,177.312 L148.772,171.555 L145.809,169.236 C145.828,169.234 145.848,169.234 145.866,169.234 C145.871,169.234 145.878,169.234 145.883,169.234 L147.541,169.977 C149.378,171.718 151.195,176.1 152.248,176.643 L151.246,177.312 M157.049,173.441 C159.168,171.773 161.758,169.66 164.268,167.586 C164.67,167.473 165.024,167.369 165.316,167.273 L162.671,169.692 L162.502,169.805 L159.558,171.769 L157.049,173.441 M168.972,163.929 C169.181,163.671 169.39,163.409 169.595,163.147 C170.338,162.524 171.017,161.951 171.608,161.453 L172.303,160.882 L168.972,163.929" fill="#CD9B83"/>
    <path d="M106.085,192.333 C105.244,192.333 100.853,191.633 96.92,190.722 C96.928,190.683 96.936,190.642 96.946,190.602 C97.023,190.277 96.538,189.918 95.75,189.567 L106.502,192.214 C106.358,192.291 106.218,192.333 106.085,192.333" fill="#CD9B83"/>
    <path d="M106.197,158.674 C106.127,158.644 106.057,158.613 105.99,158.582 C105.989,158.582 105.988,158.582 105.988,158.581 C105.799,158.497 105.613,158.412 105.431,158.327 C105.576,158.281 105.713,158.241 105.836,158.213 L106.197,158.674" fill="#7F3427"/>
    <path d="M140.457,172.041 L140.186,171.816 C140.421,171.802 140.662,171.739 140.91,171.642 L140.477,172.024 L140.457,172.041 M138.904,170.752 L137.467,169.559 L137.268,169.394 L136.151,168.468 C136.204,168.456 136.254,168.45 136.301,168.45 C136.354,168.45 136.403,168.457 136.448,168.473 C136.591,168.607 136.674,168.682 136.683,168.682 C136.689,168.682 136.663,168.649 136.601,168.578 C136.558,168.527 136.505,168.494 136.448,168.473 C136.39,168.419 136.32,168.354 136.243,168.283 C136.319,168.267 136.395,168.259 136.471,168.259 C136.514,168.259 136.558,168.262 136.601,168.268 C138.148,168.458 138.476,169.777 138.904,170.752" fill="#AE6152"/>
    <path d="M131.752,171.778 L132.199,170.727 L135.315,168.496 L135.483,168.655 C135.269,168.817 135.053,169.022 134.835,169.261 C134.544,169.495 134.238,169.76 133.931,170.029 L132.571,170.615 L132.138,171.529 C132.001,171.627 131.872,171.711 131.752,171.778" fill="#E2BFAA"/>
    <path d="M135.483,168.655 L135.315,168.497 L135.783,168.162 L136.01,168.351 C135.836,168.419 135.661,168.521 135.483,168.655" fill="#B87260"/>
    <path d="M132.138,171.529 L132.571,170.615 L132.138,171.529" fill="#D0815D"/>
    <path d="M132.138,171.529 L132.571,170.615 L133.931,170.029 C133.305,170.579 132.67,171.151 132.138,171.529" fill="#CA745A"/>
    <path d="M130.844,164.311 L130.84,164.307 L127.608,163.658 C128.504,163.748 129.41,163.827 130.328,163.898 C130.363,163.906 130.399,163.916 130.435,163.927 L130.844,164.311" fill="#E2BFAA"/>
    <path d="M133.088,165.926 L130.844,164.311 L130.435,163.928 C130.844,164.05 131.336,164.313 131.863,164.657 L131.566,164.663 L133.088,165.926" fill="#B87260"/>
    <path d="M109.887,160.094 L107.802,159.674 C107.818,159.67 107.843,159.668 107.878,159.668 C108.058,159.668 108.491,159.726 109.116,159.827 C109.37,159.917 109.627,160.006 109.887,160.094" fill="#E2BFAA"/>
    <path d="M131.187,171.964 C130.165,171.964 124.522,171.515 121.432,171.224 C118.001,168.479 114.037,165.198 110.885,162.629 L107.789,159.679 C107.792,159.677 107.797,159.675 107.802,159.674 L109.887,160.094 C114.76,161.734 120.827,162.975 127.608,163.658 L130.84,164.307 L130.844,164.311 L133.088,165.926 L135.783,168.162 L135.315,168.497 L132.199,170.727 L131.752,171.778 C131.543,171.895 131.359,171.963 131.211,171.964 C131.203,171.964 131.194,171.964 131.187,171.964" fill="#CD9B83"/>
    <path d="M130.328,163.898 C129.41,163.827 128.503,163.748 127.608,163.658 C120.827,162.975 114.76,161.734 109.887,160.094 C109.627,160.006 109.37,159.917 109.116,159.827 C110.855,160.11 114.078,160.734 117.495,161.41 C121.176,162.39 124.401,163.181 125.192,163.292 C125.543,163.342 126.773,163.448 128.508,163.582 C129.296,163.729 129.864,163.829 130.132,163.862 C130.196,163.87 130.261,163.882 130.328,163.898" fill="#7F3427"/>
    <path d="M128.508,163.582 C126.773,163.448 125.543,163.342 125.192,163.292 C124.401,163.181 121.176,162.39 117.495,161.41 C121.654,162.232 126.102,163.13 128.508,163.582" fill="#6B2D24"/>
    <path d="M136.01,168.351 L135.783,168.162 L131.566,164.663 L131.863,164.657 C133.469,165.702 135.392,167.489 136.243,168.283 C136.166,168.298 136.089,168.321 136.01,168.351" fill="#AE6152"/>
    <path d="M117.698,168.908 L116.806,168.269 L113.907,165.508 L117.698,168.908" fill="#CF9981"/>
    <path d="M118.945,169.805 L118.419,169.805 L116.806,168.269 L117.698,168.908 L117.703,168.913 L118.945,169.805" fill="#C47252"/>
    <path d="M120.842,171.169 C120.36,171.12 119.974,171.081 119.724,171.05 L118.419,169.805 L118.945,169.805 L120.842,171.169" fill="#C06A51"/>
    <path d="M121.432,171.224 C121.223,171.204 121.025,171.186 120.842,171.169 L117.703,168.913 L117.698,168.908 L113.907,165.508 L110.884,162.629 C114.037,165.198 118.001,168.479 121.432,171.224" fill="#C38269"/>
    <path d="M134.835,169.262 C135.053,169.022 135.269,168.817 135.483,168.655 L135.567,168.733 C135.341,168.871 135.094,169.054 134.835,169.262" fill="#CF9981"/>
    <path d="M135.567,168.733 L135.483,168.655 C135.661,168.521 135.836,168.419 136.01,168.351 L136.151,168.468 C135.982,168.505 135.784,168.598 135.567,168.733" fill="#B56954"/>
    <path d="M136.683,168.682 C136.674,168.682 136.591,168.607 136.448,168.473 C136.505,168.494 136.558,168.527 136.601,168.578 C136.663,168.649 136.689,168.682 136.683,168.682 M136.448,168.473 C136.403,168.457 136.354,168.45 136.301,168.45 C136.254,168.45 136.204,168.456 136.151,168.468 L136.01,168.351 C136.089,168.321 136.166,168.298 136.243,168.283 C136.32,168.354 136.39,168.419 136.448,168.473" fill="#AE5D4C"/>
    <path d="M145.71,169.156 L145.707,169.156 L144.65,168.328 L145.71,169.156" fill="#D0815D"/>
    <path d="M145.707,169.156 L144.384,168.564 L144.65,168.328 L145.707,169.156" fill="#CC917A"/>
    <path d="M149.418,170.817 L147.541,169.977 C147.177,169.632 146.813,169.39 146.452,169.304 C146.262,169.258 146.072,169.236 145.883,169.234 L145.71,169.156 L144.65,168.328 L148.799,164.655 C149.879,164.63 150.173,164.523 149.255,164.301 C149.648,164.031 149.96,163.85 150.133,163.813 C156.166,163.295 161.679,162.339 166.353,161.054 C169.516,160.461 171.936,159.933 172.155,159.668 C172.19,159.625 172.208,159.606 172.212,159.606 C172.248,159.606 171.007,161.348 169.595,163.146 C168.024,164.464 166.169,166.014 164.268,167.586 C160.087,168.742 150.59,170.633 149.418,170.817" fill="#CD9B83"/>
    <path d="M150.133,163.813 C150.134,163.811 150.135,163.811 150.137,163.811 C150.726,163.688 160.026,162.242 166.353,161.054 C161.679,162.339 156.166,163.295 150.133,163.813" fill="#7F3427"/>
    <path d="M148.799,164.655 L148.983,164.494 C149.077,164.424 149.168,164.36 149.255,164.301 C150.173,164.523 149.879,164.629 148.799,164.655" fill="#6B2D24"/>
    <path d="M144.384,168.564 L144.16,168.463 C144.593,168.08 147.315,165.694 148.983,164.494 L148.799,164.655 L144.65,168.328 L144.384,168.564" fill="#AE6152"/>
    <path d="M147.541,169.977 L145.883,169.234 C146.072,169.236 146.262,169.258 146.452,169.304 C146.813,169.39 147.177,169.632 147.541,169.977" fill="#C38269"/>
    <path d="M165.316,167.273 L168.972,163.929 C168.733,164.224 168.493,164.516 168.259,164.793 L166.829,166.331 L165.802,167.099 C165.668,167.153 165.505,167.211 165.316,167.273" fill="#CF9981"/>
    <path d="M165.802,167.099 L166.829,166.331 L168.259,164.793 C167.377,165.836 166.564,166.697 166.085,166.968 C166.015,167.009 165.919,167.052 165.802,167.099" fill="#C27D64"/>
    <path d="M164.268,167.586 C166.169,166.014 168.024,164.464 169.595,163.146 C169.389,163.408 169.181,163.67 168.972,163.929 L165.316,167.273 C165.024,167.369 164.67,167.473 164.268,167.586" fill="#C38269"/>
    <path d="M140.506,230.251 L139.891,230.248 L133.041,230.03 L133.041,230.193 L126.914,230.145 L124.507,230.127 L112.572,230.033 C112.567,230.031 112.563,230.03 112.558,230.03 L149.266,230.03 C149.65,230.082 150.041,230.13 150.431,230.174 L140.506,230.251 M112.226,229.941 C112.162,229.916 112.116,229.892 112.089,229.866 C111.895,229.678 110.528,227.901 110.73,226.724 C110.928,226.634 111.173,226.613 111.437,226.613 C111.551,226.613 111.669,226.617 111.789,226.62 C111.908,226.624 112.029,226.629 112.148,226.629 C112.174,226.629 112.2,226.629 112.226,226.628 L112.226,229.941 M112.226,222.351 C112.031,222.161 111.821,221.974 111.6,221.788 C111.6,221.718 111.6,221.647 111.601,221.576 L112.226,221.996 L112.226,222.351" fill="#E2BFAA"/>
    <path d="M112.226,229.941 L112.226,226.628 C112.306,226.627 112.384,226.623 112.461,226.617 L112.461,227.097 L112.226,227.097 L112.226,229.941 M138.386,227.097 L137.268,227.097 L137.268,226.599 C137.634,226.77 138.008,226.937 138.386,227.097 M133.17,227.097 L126.914,227.097 L126.914,221.752 L129.531,221.752 C130.668,222.683 131.878,223.559 133.17,224.371 L133.17,227.097 M116.56,221.752 L122.816,221.752 L122.816,227.097 L116.56,227.097 z M112.461,222.585 C112.385,222.506 112.307,222.428 112.226,222.351 L112.226,221.996 L112.461,222.154 L112.461,222.585" fill="#D0815D"/>
    <path d="M126.914,230.145 L124.507,230.127 L126.914,230.145" fill="#CC917A"/>
    <path d="M116.56,227.097 L112.461,227.097 L112.461,226.617 C113.155,226.557 113.748,226.235 113.767,224.817 C113.776,224.232 113.262,223.411 112.461,222.585 L112.461,222.154 L112.653,222.283 L113.62,221.752 L116.56,221.752 L116.56,227.097" fill="#CC917A"/>
    <path d="M122.816,221.752 L126.914,221.752 L126.914,227.097 L122.816,227.097 z" fill="#CC917A"/>
    <path d="M137.268,227.097 L133.17,227.097 L133.17,224.371 C134.455,225.181 135.82,225.928 137.268,226.599 L137.268,227.097" fill="#CC917A"/>
    <path d="M118.154,230.428 C115.462,230.338 113.462,230.211 112.572,230.033 L124.507,230.127 L126.914,230.145 L133.041,230.193 L133.041,230.311 L118.154,230.428 M140.136,230.255 L139.891,230.248 L140.506,230.251 L140.136,230.255" fill="#CA745A"/>
    <path d="M149.266,230.03 L112.558,230.03 C112.419,230.002 112.308,229.972 112.226,229.941 L112.226,227.098 L138.386,227.098 C141.604,228.468 145.214,229.48 149.266,230.03" fill="#CA745A"/>
    <path d="M129.531,221.752 L113.62,221.752 L117.977,219.368 L123.006,218.206 L125.808,218.257 C126.95,219.486 128.189,220.656 129.531,221.752" fill="#CA745A"/>
    <path d="M133.041,230.621 C129.837,230.616 126.686,230.596 123.84,230.555 L123.839,230.484 L120.463,230.494 C119.649,230.474 118.876,230.453 118.154,230.428 L133.041,230.311 L133.041,230.621 M147.078,230.575 L147.076,230.475 L140.136,230.255 L140.506,230.251 L150.431,230.174 C152.149,230.365 153.94,230.475 155.814,230.496 C154.478,230.51 152.652,230.528 150.502,230.548 C149.434,230.557 148.286,230.567 147.078,230.575" fill="#784A37"/>
    <path d="M135.031,230.623 C134.367,230.623 133.703,230.622 133.041,230.621 L133.041,230.03 L139.891,230.248 L140.136,230.255 L147.076,230.475 L147.077,230.575 C143.425,230.602 139.225,230.623 135.031,230.623" fill="#AA7059"/>
    <path d="M123.84,230.555 C122.655,230.538 121.524,230.518 120.463,230.494 L123.839,230.484 L123.84,230.555" fill="#696D7F"/>
    <path d="M110.73,226.724 C110.801,226.314 111.064,225.977 111.632,225.804 C114.733,224.863 111.592,223.413 111.598,222.009 C111.598,221.937 111.6,221.862 111.6,221.788 C111.821,221.974 112.031,222.161 112.226,222.351 C112.307,222.428 112.385,222.506 112.461,222.585 C113.262,223.411 113.776,224.232 113.767,224.817 C113.748,226.235 113.155,226.557 112.461,226.617 C112.384,226.623 112.306,226.627 112.226,226.628 C112.2,226.629 112.174,226.629 112.148,226.629 C112.029,226.629 111.908,226.624 111.789,226.62 C111.669,226.617 111.551,226.613 111.437,226.613 C111.173,226.613 110.928,226.634 110.73,226.724" fill="#7F3427"/>
    <path d="M111.639,217.782 C111.749,209.606 112.046,196.41 112.226,187.939 L112.226,217.491 L111.639,217.782" fill="#E2BFAA"/>
    <path d="M112.226,217.491 L112.226,187.939 C112.262,186.271 112.293,184.785 112.317,183.558 L112.389,183.558 C112.409,183.873 112.433,184.204 112.461,184.552 L112.461,188.903 L112.226,188.903 L112.226,193.106 L112.461,193.106 L112.461,198.451 L112.226,198.451 L112.226,202.656 L112.461,202.656 L112.461,208 L112.226,208 L112.226,212.203 L112.461,212.203 L112.461,217.375 L112.226,217.491 M116.56,215.426 L116.56,212.203 L121.149,212.203 C121.666,213.015 122.21,213.814 122.787,214.6 L116.56,215.426 M118.771,208 L116.56,208 L116.56,202.971 C116.836,203.691 117.128,204.414 117.439,205.139 C117.851,206.095 118.293,207.049 118.771,208" fill="#D0815D"/>
    <path d="M112.461,217.375 L112.461,212.203 L116.56,212.203 L116.56,215.426 L116.34,215.454 L112.461,217.375 M116.56,208 L112.461,208 L112.461,202.656 L116.44,202.656 C116.48,202.761 116.52,202.866 116.56,202.971 L116.56,208 M115.038,198.451 L112.461,198.451 L112.461,193.106 L113.699,193.106 C114.053,194.808 114.493,196.604 115.038,198.451 M112.956,188.903 L112.461,188.903 L112.461,184.552 C112.562,185.813 112.719,187.283 112.956,188.903" fill="#CC917A"/>
    <path d="M112.389,183.558 L112.317,183.558 C112.324,183.214 112.331,182.893 112.336,182.592 C112.349,182.893 112.367,183.216 112.389,183.558" fill="#CA745A"/>
    <path d="M116.44,202.656 L112.226,202.656 L112.226,198.451 L115.038,198.451 C115.444,199.831 115.909,201.238 116.44,202.656" fill="#CA745A"/>
    <path d="M113.699,193.106 L112.226,193.106 L112.226,188.903 L112.956,188.903 C113.148,190.214 113.39,191.624 113.699,193.106" fill="#CA745A"/>
    <path d="M121.149,212.203 L112.226,212.203 L112.226,208 L118.771,208 C119.483,209.418 120.275,210.827 121.149,212.203" fill="#CA745A"/>
    <path d="M112.653,222.283 L112.461,222.154 L112.226,221.996 L111.601,221.576 C111.607,220.502 111.619,219.219 111.639,217.782 L112.226,217.491 L112.461,217.375 L116.34,215.454 L116.56,215.426 L122.787,214.6 C123.711,215.861 124.717,217.086 125.808,218.257 L123.006,218.205 L117.977,219.368 L113.62,221.752 L112.653,222.283" fill="#AA7059"/>
    <path d="M156.187,230.499 C156.062,230.499 155.939,230.497 155.814,230.496 C155.944,230.495 156.067,230.492 156.187,230.491 L156.187,230.499 M158.188,230.475 L157.783,230.475 C157.99,230.473 158.131,230.473 158.198,230.473 C158.263,230.473 158.26,230.473 158.188,230.475" fill="#784A37"/>
    <path d="M156.473,230.5 C156.378,230.5 156.282,230.499 156.187,230.499 L156.187,230.491 C156.89,230.484 157.431,230.479 157.783,230.475 L158.188,230.475 C157.609,230.491 157.039,230.5 156.473,230.5" fill="#696D7F"/>
    <path d="M112.336,182.591 C112.255,180.814 112.303,179.779 112.347,179.779 C112.354,179.779 112.362,179.81 112.368,179.873 C112.379,179.981 112.367,180.971 112.336,182.591" fill="#CA745A"/>
    <path d="M161.432,230.489 C160.062,230.489 160.609,230.375 161.885,230.265 C161.738,230.412 161.588,230.489 161.432,230.489" fill="#784A37"/>
    <path d="M168.91,230.475 L168.862,230.475 C168.836,230.445 168.813,230.364 168.793,230.234 C168.956,230.296 169.007,230.375 168.91,230.475" fill="#E2BFAA"/>
    <path d="M168.886,230.487 C168.877,230.487 168.87,230.484 168.862,230.475 L168.909,230.475 C168.901,230.484 168.893,230.487 168.886,230.487" fill="#CA745A"/>
    <path d="M168.793,230.234 C168.755,230.221 168.713,230.208 168.666,230.196 L168.662,230.03 L162.039,230.082 C162.052,230.065 162.064,230.048 162.077,230.03 L168.662,230.03 L168.672,228.111 C168.696,229.143 168.734,229.874 168.793,230.234" fill="#E2BFAA"/>
    <path d="M168.662,230.03 L168.672,228.1 C168.672,228.104 168.672,228.107 168.672,228.111 L168.662,230.03 M168.655,227.098 L168.33,227.098 L168.33,225.296 L168.646,226.015 C168.647,226.397 168.651,226.759 168.655,227.098 M164.232,227.098 L163.126,227.098 C163.436,225.794 163.724,224.164 163.996,222.297 L164.232,222.342 L164.232,227.098 M168.33,223.553 L168.33,222.886 L168.652,222.673 C168.651,222.898 168.65,223.12 168.648,223.338 L168.33,223.553" fill="#D0815D"/>
    <path d="M168.33,227.098 L164.231,227.098 L164.231,222.342 L168.045,223.074 L168.33,222.886 L168.33,223.553 L167.904,223.841 L167.874,224.255 L168.33,225.296 L168.33,227.098" fill="#CC917A"/>
    <path d="M168.662,230.03 L162.077,230.03 C162.452,229.484 162.8,228.472 163.126,227.098 L168.655,227.098 C168.658,227.457 168.665,227.792 168.672,228.1 L168.662,230.03" fill="#CA745A"/>
    <path d="M168.733,216.158 L168.9,183.558 L168.901,183.558 L168.919,179.695 L169.421,180.961 C169.411,185.067 169.166,194.896 168.954,204.725 C168.87,208.658 168.79,212.591 168.733,216.158" fill="#E2BFAA"/>
    <path d="M168.712,217.549 L168.33,217.549 L168.33,212.203 L168.752,212.203 L168.774,208 L168.33,208 L168.33,202.656 L168.801,202.656 L168.806,201.786 L168.733,216.158 C168.725,216.629 168.718,217.092 168.712,217.549 M168.825,198.451 L168.33,198.451 L168.33,193.106 L168.851,193.106 L168.824,198.451 M168.866,190.111 L168.872,188.903 L168.33,188.903 L168.33,183.558 L168.901,183.558 L168.866,190.111 M169.403,179.355 L168.33,179.355 L168.33,179.329 C168.371,179.161 168.411,179.01 168.452,178.874 C168.476,178.796 168.505,178.765 168.54,178.765 C168.6,178.765 168.677,178.856 168.768,178.945 C168.86,179.034 168.965,179.124 169.085,179.124 C169.167,179.124 169.255,179.081 169.35,178.967 C169.358,178.984 169.368,179.005 169.38,179.031 C169.389,179.095 169.397,179.204 169.403,179.355" fill="#D0815D"/>
    <path d="M168.33,217.549 L164.601,217.549 C164.794,215.852 164.976,214.059 165.153,212.203 L168.33,212.203 L168.33,217.549 M168.33,208 L165.535,208 C165.689,206.23 165.838,204.439 165.984,202.656 L168.33,202.656 L168.33,208 M168.33,198.451 L166.322,198.451 C166.47,196.616 166.614,194.823 166.757,193.106 L168.33,193.106 L168.33,198.451 M168.33,188.903 L167.12,188.903 C167.302,186.911 167.482,185.102 167.665,183.558 L168.33,183.558 L168.33,188.903 M168.33,179.355 L168.324,179.355 C168.326,179.346 168.329,179.338 168.33,179.329 L168.33,179.355" fill="#CC917A"/>
    <path d="M168.901,183.558 L167.665,183.558 C167.88,181.752 168.097,180.306 168.324,179.355 L169.403,179.355 C169.418,179.691 169.423,180.237 169.421,180.962 L168.919,179.695 L168.901,183.558" fill="#CA745A"/>
    <path d="M168.801,202.656 L165.984,202.656 C166.098,201.242 166.211,199.836 166.322,198.451 L168.825,198.451 L168.801,202.656" fill="#CA745A"/>
    <path d="M168.851,193.106 L166.757,193.106 C166.879,191.639 167,190.23 167.12,188.903 L168.872,188.903 L168.851,193.106" fill="#CA745A"/>
    <path d="M168.752,212.203 L165.153,212.203 C165.285,210.83 165.412,209.421 165.535,208 L168.774,208 L168.752,212.203" fill="#CA745A"/>
    <path d="M168.688,219.205 L164.506,218.37 C164.539,218.1 164.57,217.824 164.601,217.549 L168.712,217.549 C168.703,218.112 168.696,218.665 168.688,219.205" fill="#CA745A"/>
    <path d="M161.885,230.265 C161.937,230.213 161.988,230.151 162.039,230.082 L168.662,230.03 L168.666,230.196 C168.258,230.093 167.466,230.055 166.531,230.055 C165.01,230.055 163.111,230.159 161.885,230.265" fill="#784A37"/>
    <path d="M168.646,226.015 L168.33,225.296 L167.874,224.255 L167.904,223.841 L168.33,223.553 L168.648,223.338 C168.643,224.312 168.642,225.208 168.646,226.015" fill="#7F3427"/>
    <path d="M168.045,223.074 L164.232,222.342 L163.996,222.297 C164.173,221.08 164.343,219.764 164.506,218.37 L168.688,219.205 C168.672,220.433 168.661,221.594 168.652,222.673 L168.33,222.886 L168.045,223.074" fill="#AA7059"/>
    <path d="M106.478,203.417 C106.011,203.417 104.878,203.238 103.361,202.941 L103.493,202.427 L103.496,202.427 L104.452,202.656 L104.453,202.656 L106.205,203.072 L106.893,203.237 C106.813,203.316 106.74,203.37 106.675,203.395 C106.638,203.411 106.572,203.417 106.478,203.417" fill="#E2BFAA"/>
    <path d="M106.205,203.072 L104.453,202.656 L104.456,202.656 L106.205,203.072 M103.496,202.427 L103.493,202.427 L103.496,202.427" fill="#CC917A"/>
    <path d="M104.456,202.656 L104.452,202.656 L103.496,202.427 L103.493,202.427 L103.494,202.426 L104.456,202.656" fill="#CA745A"/>
    <path d="M107.562,202.297 L108.569,198.451 L108.935,197.05 C109.621,197.699 108.521,200.652 107.562,202.297" fill="#E2BFAA"/>
    <path d="M107.562,202.299 L108.568,198.451 L108.569,198.451 L107.562,202.297 L107.562,202.299" fill="#CA745A"/>
    <path d="M88.987,199.502 C86.618,198.828 84.944,198.256 84.816,197.978 C84.356,196.979 86.207,187.866 87.548,187.698 L86.802,190.508 L86.109,193.106 L86.11,193.106 L84.816,197.978 L87.894,198.711 L89.863,199.18 L89.836,199.174 L89.823,199.237 L89.1,198.999 C89.061,199.168 89.024,199.335 88.987,199.502 M88.126,187.802 L87.548,187.698 C87.608,187.691 87.68,187.687 87.765,187.687 C87.876,187.687 88.008,187.693 88.158,187.704 L88.126,187.802" fill="#E2BFAA"/>
    <path d="M84.816,197.978 L84.816,197.978 L86.11,193.106 L86.401,193.106 L84.816,197.978 M86.802,190.508 L87.548,187.698 L88.126,187.802 L87.768,188.903 L87.23,188.903 L86.802,190.508" fill="#D0815D"/>
    <path d="M89.873,199.183 L89.863,199.181 L87.894,198.711 L89.873,199.183" fill="#CA745A"/>
    <path d="M90.346,188.199 L89.797,188.101 L88.203,187.708 C88.738,187.754 89.485,187.866 90.322,188.028 C90.327,188.091 90.336,188.148 90.346,188.199" fill="#E2BFAA"/>
    <path d="M90.356,188.238 L89.797,188.101 L90.346,188.199 C90.349,188.212 90.352,188.226 90.356,188.238" fill="#D0815D"/>
    <path d="M86.401,193.106 L86.109,193.106 L87.23,188.903 L87.768,188.903 L86.401,193.106" fill="#CA745A"/>
    <path d="M106.893,203.237 L106.205,203.072 L104.456,202.656 L103.494,202.426 L103.532,202.279 L89.873,199.183 L87.894,198.711 L84.816,197.978 L88.126,187.802 L88.158,187.704 C88.173,187.706 88.188,187.707 88.203,187.708 L89.797,188.101 L90.356,188.238 C90.373,188.305 90.397,188.359 90.427,188.399 C90.977,189.145 93.805,190.001 96.92,190.722 C96.167,194.468 101.553,197.447 105.714,197.447 C106.587,197.447 107.405,197.316 108.103,197.034 C108.289,196.957 108.448,196.923 108.582,196.923 C108.731,196.923 108.848,196.967 108.935,197.05 L107.562,202.299 C107.319,202.714 107.087,203.046 106.893,203.237" fill="#CD9B83"/>
    <path d="M103.361,202.941 C101.466,202.572 98.969,202.022 96.426,201.416 L89.823,199.237 L89.836,199.174 L89.863,199.181 L89.873,199.183 L103.532,202.279 L103.494,202.426 L103.493,202.427 L103.361,202.941" fill="#B87260"/>
    <path d="M96.426,201.416 C93.794,200.791 91.111,200.106 88.987,199.502 C89.024,199.335 89.061,199.168 89.1,198.999 L96.426,201.416" fill="#AE6152"/>
    <path d="M90.475,188.222 L90.346,188.199 C90.336,188.148 90.327,188.091 90.322,188.028 C90.388,188.04 90.454,188.053 90.521,188.066 L90.475,188.222" fill="#CF9981"/>
    <path d="M91.755,188.583 L90.356,188.238 C90.352,188.226 90.349,188.212 90.346,188.199 L90.475,188.222 L90.521,188.066 C90.919,188.146 91.336,188.236 91.755,188.332 L91.755,188.583" fill="#C47252"/>
    <path d="M93.906,188.903 L93.055,188.903 L91.755,188.583 L91.755,188.332 C92.482,188.501 93.222,188.695 93.906,188.903" fill="#C27D64"/>
    <path d="M95.75,189.567 L93.055,188.903 L93.906,188.903 C94.601,189.113 95.24,189.338 95.75,189.567" fill="#C06A51"/>
    <path d="M96.92,190.722 C93.805,190.001 90.977,189.145 90.427,188.399 C90.397,188.359 90.373,188.305 90.356,188.238 L91.755,188.583 L93.055,188.903 L95.75,189.567 C96.538,189.918 97.023,190.277 96.946,190.602 C96.936,190.642 96.928,190.683 96.92,190.722" fill="#C38269"/>
    <path d="M173.707,191.862 C173.473,191.329 173.181,190.544 172.859,189.621 L173.744,191.854 L173.707,191.862" fill="#E2BFAA"/>
    <path d="M180.19,188.903 L178.685,188.903 L178.685,188.208 C179.173,188.467 179.676,188.7 180.19,188.903 M174.586,188.903 L172.611,188.903 C172.052,187.257 171.428,185.3 170.874,183.558 L172.9,183.558 C173.416,184.118 173.979,184.689 174.586,185.246 L174.586,188.903 M169.621,179.355 L169.506,179.355 C169.455,179.215 169.413,179.106 169.38,179.031 C169.372,178.985 169.365,178.962 169.356,178.962 C169.353,178.962 169.351,178.964 169.35,178.967 C169.32,178.911 169.307,178.884 169.31,178.884 C169.317,178.884 169.423,179.054 169.621,179.355" fill="#D0815D"/>
    <path d="M178.685,188.903 L174.586,188.903 L174.586,185.246 C175.791,186.351 177.17,187.403 178.685,188.209 L178.685,188.903" fill="#CC917A"/>
    <path d="M172.9,183.558 L170.874,183.558 C170.287,181.71 169.779,180.103 169.506,179.355 L169.621,179.355 C170.138,180.137 171.278,181.794 172.9,183.558" fill="#CA745A"/>
    <path d="M173.744,191.854 L172.859,189.621 C172.778,189.39 172.695,189.15 172.611,188.903 L180.19,188.903 C181.431,189.39 182.748,189.69 184.125,189.718 L173.744,191.854" fill="#CA745A"/>
    <path d="M173.928,192.32 C173.862,192.2 173.788,192.046 173.707,191.862 L173.744,191.854 L184.125,189.717 L184.126,189.717 C186.265,189.758 180.6,191.638 176.873,192.318 C176.729,192.083 176.6,191.884 176.475,191.733 L173.928,192.32" fill="#CD9B83"/>
    <path d="M169.38,179.031 C169.368,179.005 169.358,178.984 169.35,178.967 C169.351,178.964 169.353,178.962 169.356,178.962 C169.365,178.962 169.372,178.985 169.38,179.031" fill="#C47252"/>
    <path d="M174.732,203.614 C174.275,203.614 174,203.546 173.964,203.395 C173.647,202.096 170.851,193.91 171.431,192.957 L172.764,198.451 L172.763,198.451 L173.781,202.656 L173.784,202.656 L173.964,203.395 L191.775,199.153 C191.776,199.153 191.776,199.153 191.779,199.153 C192.027,199.167 192.028,199.24 191.831,199.359 L191.776,199.153 L178.059,202.52 L178.236,203.138 C176.74,203.429 175.488,203.614 174.732,203.614 M171.486,192.896 C171.503,192.884 171.522,192.875 171.543,192.87 L171.544,192.87 L171.547,192.881 L171.486,192.896" fill="#E2BFAA"/>
    <path d="M173.964,203.395 L173.784,202.656 L173.794,202.656 L173.964,203.395 M172.828,198.451 L172.764,198.451 L171.431,192.957 L171.469,193.106 L171.599,193.106 L172.828,198.451" fill="#D0815D"/>
    <path d="M171.599,193.106 L171.469,193.106 L171.431,192.957 C171.447,192.931 171.465,192.911 171.486,192.896 L171.547,192.881 L171.599,193.106" fill="#CA745A"/>
    <path d="M173.794,202.656 L173.781,202.656 L172.763,198.451 L172.828,198.451 L173.794,202.656" fill="#CA745A"/>
    <path d="M173.964,203.395 L173.964,203.395 L173.794,202.656 L171.599,193.106 L171.547,192.881 L171.544,192.87 L173.928,192.32 C173.929,192.324 173.932,192.329 173.934,192.333 C174.023,192.492 174.331,192.56 174.789,192.56 C175.318,192.56 176.048,192.469 176.873,192.318 C178.049,194.225 180.362,198.527 191.775,199.153 L173.964,203.395" fill="#CD9B83"/>
    <path d="M178.236,203.138 L178.059,202.52 L191.776,199.153 L191.831,199.359 C190.707,200.033 183.156,202.175 178.236,203.138" fill="#B87260"/>
    <path d="M174.789,192.56 C174.331,192.56 174.023,192.492 173.934,192.333 C173.932,192.329 173.929,192.324 173.928,192.32 L176.475,191.733 C176.6,191.884 176.729,192.083 176.873,192.318 C176.048,192.469 175.318,192.56 174.789,192.56" fill="#C38269"/>
    <path d="M174.232,219.242 L181.834,222.237 L182.548,204.627 L191.973,200.749 L191.779,199.153 L178.121,202.405 L178.952,204.903 L174.232,218.483" fill="#AF675C"/>
    <path d="M183.1,235.234 C180.726,235.521 178.978,233.85 177.907,232.319 C176.838,230.788 173.573,231.662 173.049,230.475 C172.523,229.289 171.447,227.806 171.373,226.834 C171.297,225.863 169.168,233.426 169.927,234.882 C170.686,236.338 175.126,233.772 175.445,234.306 C175.767,234.84 175.507,238.179 176.705,238.435 C177.902,238.691 183.1,235.234 183.1,235.234" fill="#54211C"/>
    <path d="M140.761,97.871 C171.74,97.871 203.706,75.531 203.706,75.531 L200.596,68.513 L184.79,75.531 L166,81.274 L146.35,83.543 L131.73,83.543 L104.334,78.838 L82.248,69.716 L80.129,68.724 L71.952,88.106 C69.946,94.199 68.532,100.12 67.658,105.523 C63.311,132.289 81.922,148.924 96.102,152.586 C100.011,153.596 99.017,145.857 99.017,145.857 C92.369,143.15 88.474,139.068 86.663,132.296 C84.526,124.317 83.137,116.95 82.359,110.127 C80.48,109.325 79.137,107.277 79.137,104.856 C79.137,102.766 80.144,100.964 81.624,99.988 C81.419,92.142 82.108,85.143 83.466,78.882 C93.662,85.239 116.922,97.871 140.761,97.871" fill="#AF675C"/>
    <path d="M105.547,73.9 C105.547,73.9 101.475,72.089 102.328,68.513 C103.18,64.936 105.084,64.712 105.084,64.712 C105.084,64.712 103.706,62.695 105.168,59.221 C106.349,56.414 108.531,56.443 109.324,56.558 L85.629,51.89 L85.088,51.89 L80.29,63.935 L90.975,68.724 L105.547,73.9" fill="#8D6859"/>
    <path d="M109.324,56.558 L109.624,56.617 C109.624,56.617 109.51,56.587 109.324,56.558" fill="#8D6859"/>
    <path d="M65.16,262.044 L70.95,262.522 L70.95,257.192 L65.48,257.173 L65.16,262.044" fill="#8D6859"/>
    <path d="M43.27,257.557 L43.27,262.407 L49.23,262.171 L48.863,257.174 L43.27,257.557" fill="#8D6859"/>
    <path d="M9.887,263.955 L16.056,267.178 L26.775,264.345 L26.775,258.881 L16.062,262.044 L9.887,263.955" fill="#8D6859"/>
    <path d="M101.659,242.315 L101.659,238.178 L97.396,235.234 L96.356,242.152 L101.659,242.315" fill="#8D6859"/>
    <path d="M90.313,278.685 L93.158,283.024 L99.529,280.948 L96.148,277.118 L90.313,278.685" fill="#8D6859"/>
    <path d="M184.816,233.104 L181.664,237.117 L181.055,243.387 L186.124,237.719 L184.816,233.104" fill="#8D6859"/>
    <path d="M104.145,272.104 L102.983,273.162 L101.659,275.896 L105.8,277.984 C105.8,277.984 123.501,277.159 116.34,276.668 C105.048,275.896 104.145,272.104 104.145,272.104" fill="#8D6859"/>
    <path d="M184.406,71.078 L185.838,68.859 L180.985,62.236 L183.099,55.841 L175.856,55.021 C175.856,55.021 171.364,57.179 173.187,59.222 C174.35,60.523 175.912,60.208 176.984,62.017 C177.595,63.051 178.254,68.115 179.482,69.448 C182.858,73.12 184.406,71.078 184.406,71.078" fill="#8D6859"/>
    <path d="M50.578,47.265 L39.935,47.059 L39.539,53.478 L44.629,64.948 L54.707,77.525 L63.481,84.84 L72.05,87.701 L80.078,68.513 L63.695,57.668 L50.578,47.265" fill="#51382C"/>
    <path d="M227.396,60.904 C225.088,56.976 200.545,68.724 200.545,68.724 L208.337,87.701 C208.337,87.701 234.058,72.243 227.396,60.904" fill="#51382C"/>
    <path d="M165.757,22.244 C159.791,16.419 160.143,10.097 153.766,11.758 C149.435,12.885 146.511,22.41 155.084,28.11 C163.657,33.81 173.961,31.864 173.793,29.174 C173.574,25.634 171.726,28.069 165.757,22.244" fill="#51382C"/>
    <path d="M129.582,10.181 C129.135,10.081 128.729,10.02 128.342,9.986 C122.894,8.802 108.807,10.226 110.534,6.805 C111.485,4.916 118.355,0.679 100.91,9.037 L85.088,51.89 L105.855,55.841 C105.855,55.841 107.097,40.576 110.846,29.927 C112.416,32.168 121.571,33.258 129.315,28.11 C135.875,23.748 135.702,17.156 133.321,13.791 C132.623,11.937 131.202,10.548 129.582,10.181" fill="#51382C"/>
    <path d="M187.087,69.715 C187.087,69.715 174.679,73.545 175.775,76.203 C176.868,78.861 198.834,69.483 198.834,69.483 L199.779,68.377 L193.636,67.377 L187.087,69.715" fill="#51382C"/>
    <path d="M177.362,276.18 L177.362,276.18 L177.344,274.087 C188.536,274.087 195.284,272.189 195.412,269.008 C195.61,264.067 193.133,263.265 187.511,261.922 C183.958,261.074 179.536,260.018 175.18,257.033 L176.374,255.31 C180.409,258.074 184.443,259.036 188.003,259.887 C193.253,261.142 197.791,262.226 197.515,269.093 C197.329,273.729 190.358,276.18 177.362,276.18" fill="#6B2A21"/>
    <path d="M169.893,254.357 C169.049,253.52 169.883,252.101 168.162,249.621 L169.529,248.353 C170.592,249.886 171.747,251.275 172.965,252.482 L169.893,254.357" fill="#6B2A21"/>
    <path d="M146.137,230.475 L148.244,230.475 L148.244,242.152 L146.137,242.152 z" fill="#3A271C"/>
    <path d="M131.988,230.475 L134.092,230.475 L134.092,242.152 L131.988,242.152 z" fill="#3A271C"/>
    <path d="M167.867,264.773 L169.973,264.773 L169.973,261.059 L167.249,262.065 L167.867,264.773" fill="#264367"/>
    <path d="M167.867,230.475 L167.867,241.107 L161.344,241.107 L161.344,230.475 L159.238,230.475 L159.238,241.107 L157.239,241.107 L157.239,230.475 L155.133,230.475 L155.133,241.107 L125.089,241.107 L125.089,230.475 L122.981,230.475 L122.981,241.107 L120.753,241.107 L120.753,230.475 L118.648,230.475 L118.648,241.107 L113.033,241.107 L113.037,233.451 L110.932,233.45 L110.912,264.936 L113.018,264.936 L113.032,243.2 L139.394,243.2 L139.394,267.966 L141.499,267.966 L141.499,243.2 L167.867,243.2 L167.867,255.677 L169.973,255.677 L169.973,230.475 L167.867,230.475" fill="#264367"/>
    <path d="M172.846,267.22 C171.541,266.071 170.31,264.984 169.806,264.206 C169.256,263.36 167.621,262.747 164.945,262.381 L164.658,264.455 C166.991,264.773 167.926,265.244 168.034,265.339 C168.697,266.36 169.973,267.484 171.45,268.787 C173.498,270.594 176.307,273.069 176.307,274.715 C176.307,276.454 175.985,276.474 174.432,276.575 C173.258,276.652 171.649,276.756 170.376,278.133 C169.209,279.389 168.919,280.865 168.662,282.169 C168.325,283.874 168.083,285.109 166.122,285.811 C164.259,286.478 163.198,285.812 161.585,284.809 C160.194,283.944 158.465,282.867 155.9,282.678 C152.717,282.447 151.486,283.669 150.594,284.563 C149.929,285.223 149.706,285.446 148.711,285.166 C146.972,284.678 141.499,281.058 141.499,276.226 C141.499,275.085 141.653,274.01 141.959,273.028 L141.044,272.748 L141.032,272.691 L140.941,272.716 L139.947,272.41 C139.884,272.614 139.832,272.826 139.778,273.036 L139.004,273.25 C139.262,274.177 139.394,275.178 139.394,276.226 C139.394,281.058 133.92,284.678 132.18,285.166 C131.184,285.446 130.959,285.223 130.299,284.563 C129.406,283.669 128.178,282.444 124.993,282.678 C122.425,282.867 120.697,283.944 119.305,284.809 C117.695,285.811 116.629,286.476 114.77,285.811 C112.809,285.109 112.566,283.876 112.23,282.17 L112.169,281.865 L110.105,282.276 L110.163,282.572 C110.525,284.4 110.973,286.675 114.058,287.78 C114.834,288.058 115.534,288.175 116.177,288.175 C117.867,288.175 119.161,287.369 120.425,286.582 C121.74,285.763 123.102,284.916 125.147,284.765 C127.371,284.602 128.066,285.299 128.804,286.037 C129.589,286.821 130.563,287.796 132.755,287.18 C134.61,286.659 138.555,284.141 140.446,280.421 C142.336,284.141 146.282,286.659 148.137,287.18 C150.33,287.796 151.303,286.821 152.088,286.037 C152.825,285.299 153.52,284.607 155.745,284.765 C157.791,284.916 159.152,285.763 160.466,286.582 C161.731,287.369 163.027,288.175 164.716,288.175 C165.358,288.175 166.057,288.058 166.834,287.78 C169.92,286.675 170.369,284.4 170.727,282.572 C170.951,281.441 171.163,280.373 171.926,279.55 C172.629,278.79 173.528,278.731 174.57,278.664 C176.101,278.564 178.413,278.414 178.413,274.715 C178.413,272.129 175.458,269.521 172.846,267.22" fill="#451D18"/>
    <path d="M112.829,265.376 C113.173,265.025 115.299,264.304 118.659,264.231 C119.989,264.203 122.617,264.264 123.903,264.334 C129.512,264.643 134.237,266.483 136.862,269.385 L138.428,267.986 C135.434,264.675 130.182,262.583 124.017,262.244 C122.695,262.171 119.989,262.109 118.612,262.138 C115.489,262.206 111.951,262.871 111.087,264.206 C110.585,264.983 109.354,266.066 108.054,267.215 L107.665,267.555 L109.067,269.119 L109.451,268.779 C110.924,267.481 112.198,266.358 112.829,265.376" fill="#451D18"/>
    <path d="M175.238,219.548 L173.224,218.936 L177.623,204.636 L177.102,202.672 L179.137,202.138 L179.812,204.676 L175.238,219.548" fill="#6B2A21"/>
    <path d="M185.795,226.895 L183.835,226.122 L192.255,205.041 L190.76,199.42 L192.797,198.885 L194.469,205.173 L185.795,226.895" fill="#6B2A21"/>
    <path d="M106.285,219.548 L101.71,204.676 L102.385,202.138 L104.421,202.672 L103.9,204.636 L108.299,218.936 L106.285,219.548" fill="#6B2A21"/>
    <path d="M95.729,226.895 L87.053,205.173 L88.728,198.885 L90.762,199.42 L89.266,205.041 L97.687,226.122 L95.729,226.895" fill="#6B2A21"/>
    <path d="M144.282,185.869 C144.282,187.313 143.106,188.482 141.653,188.482 C140.202,188.482 139.026,187.313 139.026,185.869 C139.026,184.426 140.202,183.256 141.653,183.256 C143.106,183.256 144.282,184.426 144.282,185.869" fill="#B85E3A"/>
    <path d="M144.347,201.251 C144.347,202.693 143.169,203.862 141.718,203.862 C140.266,203.862 139.088,202.693 139.088,201.251 C139.088,199.807 140.266,198.638 141.718,198.638 C143.169,198.638 144.347,199.807 144.347,201.251" fill="#B85E3A"/>
    <path d="M150.284,195.978 L156.925,200.075 L163.57,195.978 L163.57,185.35 L150.284,185.35 L150.284,195.978 z M156.925,202.538 L148.176,197.143 L148.176,183.256 L165.675,183.256 L165.675,197.143 L156.925,202.538" fill="#AE543D"/>
    <path d="M117.392,195.978 L124.034,200.075 L130.677,195.978 L130.677,185.35 L117.392,185.35 L117.392,195.978 z M124.034,202.538 L115.285,197.143 L115.285,183.256 L132.784,183.256 L132.784,197.143 L124.034,202.538" fill="#AE543D"/>
    <path d="M167.855,229.428 L137.867,229.428 L137.867,218.484 L135.762,218.484 L135.762,229.428 L113.063,229.428 L113.14,226.074 L111.035,226.026 L111.412,231.521 L168.909,231.521 L169.423,231.301 L171.737,227.94 L169.96,226.155 L167.855,226.155 L167.855,229.428" fill="#AE543D"/>
    <path d="M172.805,193.654 L193.216,188.946 L195.412,197.211 L174.751,202.131 L172.805,193.654 z M108.717,193.654 L106.77,202.131 L86.109,197.211 L88.306,188.946 L108.717,193.654 z M194.731,186.449 L191.842,187.115 L187.201,169.667 C187.14,169.344 185.656,161.723 180.743,158.726 C178.673,157.463 176.322,157.201 173.752,157.948 L173.979,158.725 L173.095,158.126 C167.9,165.706 155.674,173.434 151.871,175.725 C151.104,173.399 149.252,168.932 146.193,168.099 C148.447,166.291 151.079,164.946 154.004,164.597 L153.755,162.519 C148.305,163.166 143.964,166.574 140.914,170.397 C140.717,170.626 140.521,170.872 140.325,171.133 C140.021,170.732 139.716,170.376 139.409,170.051 C136.781,166.89 132.571,163.195 126.889,162.519 L126.638,164.597 C129.733,164.966 132.358,166.387 134.477,168.094 C131.402,168.908 129.542,173.393 128.772,175.725 C124.998,173.45 112.929,165.82 107.669,158.292 L107.771,157.948 C105.202,157.201 102.85,157.463 100.781,158.726 C95.867,161.723 94.382,169.344 94.337,169.593 L89.679,187.115 L86.792,186.449 L83.521,198.747 L108.35,204.659 L111.238,192.087 L108.961,191.561 L111.315,184.638 L111.315,216.999 L113.42,216.999 L113.42,178.27 L113.355,178.27 L113.395,178.093 C113.395,177.572 112.933,177.148 112.368,177.148 C111.862,177.148 111.459,177.492 111.374,177.937 L111.371,177.935 L106.9,191.086 L91.732,187.588 L96.392,170.053 C96.403,169.983 97.756,163.027 101.882,160.51 C103.159,159.731 104.553,159.477 106.107,159.724 C112.721,168.966 128.209,177.842 128.873,178.222 L130.073,178.904 L130.417,177.573 C130.889,175.745 132.776,170.444 135.191,170.069 C136.055,169.934 136.934,170.504 137.735,171.322 C138.23,171.915 138.673,172.491 139.047,173.019 C136.947,176.344 135.816,179.59 135.774,181.296 C135.767,181.666 135.764,182.52 135.764,183.249 L135.762,183.249 L135.762,214.219 L137.867,214.219 L137.867,184.408 L137.873,184.408 L137.872,184.099 C137.871,183.408 137.867,181.874 137.881,181.347 C137.918,179.832 138.959,177.065 140.792,174.206 L140.797,174.207 L140.943,173.97 C141.525,173.084 142.182,172.193 142.909,171.329 C143.81,170.413 144.664,169.962 145.42,170.064 C147.582,170.361 149.515,174.828 150.226,177.573 L150.57,178.904 L151.769,178.222 C152.428,177.845 167.668,169.111 174.371,159.952 C176.353,159.381 178.076,159.56 179.636,160.508 C183.752,163.013 185.117,169.983 185.149,170.127 L189.791,187.588 L174.61,191.088 L169.902,177.824 L169.871,177.834 C169.746,177.441 169.367,177.148 168.901,177.148 C168.334,177.148 167.874,177.572 167.874,178.093 L167.89,178.171 L167.855,178.171 L167.855,219.194 L169.96,219.194 L169.96,184.286 L172.544,191.565 L170.285,192.087 L173.173,204.659 L198.001,198.747 L194.731,186.449" fill="#AE543D"/>
    <path d="M100.437,254.6 C101.688,257.112 102.143,258.372 102.362,258.979 C102.61,259.661 102.843,260.308 103.927,260.314 L104.017,260.314 C106.11,260.314 108.635,259.885 109.56,258.678 C109.898,258.236 110.005,257.72 109.864,257.222 C109.474,255.856 108.401,254.065 107.159,251.992 C104.706,247.896 101.344,242.286 103.141,238.912 L101.282,237.932 C98.928,242.346 102.491,248.288 105.35,253.063 C106.379,254.781 107.355,256.411 107.748,257.52 C107.363,257.766 106.26,258.17 104.325,258.215 C104.085,257.553 103.594,256.219 102.326,253.672 C101.949,252.918 101.55,252.171 101.148,251.418 C98.644,246.735 96.278,242.312 98.962,235.253 L96.992,234.513 C93.972,242.458 96.796,247.74 99.289,252.401 C99.681,253.135 100.072,253.865 100.437,254.6" fill="#5E453E"/>
    <path d="M95.054,276.379 C85.762,279.397 70.663,281.26 55.333,281.26 C27.121,281.26 8.423,274.796 8.423,272.176 C8.423,268.973 26.234,263.092 55.333,263.092 C74.576,263.092 91.421,265.377 98.616,268.944 C98.455,269.182 98.263,269.452 98.089,269.692 C96.864,271.401 95.113,273.846 95.054,276.379 z M112.063,280.503 C108.996,282.252 104.254,282.055 99.987,280.005 C98.447,279.267 97.529,278.356 97.256,277.298 C96.719,275.216 98.576,272.623 99.805,270.906 C100.582,269.82 101.053,269.165 101.071,268.517 L101.087,267.866 L100.081,267.341 C92.786,263.428 75.642,260.998 55.333,260.998 C31.663,260.998 6.319,265.491 6.319,272.176 C6.319,277.817 30.596,283.354 55.333,283.354 C70.712,283.354 85.913,281.488 95.428,278.459 C95.77,279.283 96.342,280.022 97.132,280.675 C86.925,284.016 71.632,285.988 55.585,285.988 C23.595,285.988 2.105,278.81 2.105,272.104 C2.105,265.399 23.595,258.22 55.585,258.22 C85.061,258.22 105.607,264.316 108.656,270.518 C106.622,270.596 104.027,270.989 102.469,272.237 L102.331,272.177 C102.175,272.528 101.935,272.902 101.701,273.264 C101.01,274.346 99.851,276.153 101.756,277.72 C102.583,278.401 104.121,278.869 105.763,279.027 L105.832,279.04 L105.86,279.036 C106.221,279.069 106.59,279.09 106.956,279.09 C107.535,279.09 108.109,279.049 108.652,278.962 C110.13,278.726 111.23,278.157 111.922,277.339 C112.689,277.482 113.552,277.581 114.504,277.641 C114.169,278.784 113.328,279.784 112.063,280.503 z M185.81,231.979 L183.82,232.66 C186.103,239.266 184.423,245.717 178.82,251.833 C163.516,268.541 123.408,277.984 111.7,275.165 C111.039,275.008 110.283,275.122 109.61,275.223 C109.428,275.25 109.259,275.276 109.11,275.291 C107.868,275.421 106.721,276.197 105.964,276.71 C105.846,276.79 105.749,276.857 105.661,276.913 C104.481,276.762 103.496,276.433 103.098,276.107 C102.726,275.8 102.625,275.719 103.478,274.39 C103.589,274.217 103.706,274.031 103.82,273.84 C105.376,272.617 109.103,272.496 110.708,272.625 C111.981,272.847 113.524,272.96 115.314,272.96 C129.252,272.96 157.163,266.394 172.299,254.506 C179.216,249.076 182.722,243.16 182.722,236.924 L180.614,236.924 C180.614,242.488 177.379,247.85 170.995,252.865 C154.505,265.815 122.621,272.313 111.488,270.641 L111.494,270.61 C111.389,270.592 111.22,270.575 111.014,270.557 L110.917,270.539 C108.138,261.484 81.45,256.127 55.585,256.127 C28.263,256.127 0,262.103 0,272.104 C0,282.106 28.263,288.082 55.585,288.082 C73.004,288.082 88.957,285.892 99.48,282.075 C101.996,283.214 104.604,283.796 107.036,283.796 C109.282,283.796 111.378,283.306 113.11,282.32 C115.051,281.216 116.285,279.595 116.659,277.705 C132.753,277.696 166.506,268.385 180.378,253.241 C186.536,246.518 188.365,239.363 185.81,231.979" fill="#5E453E"/>
    <path d="M112.218,221.133 L111.944,221.367 L112.045,221.322 L112.69,223.315 C113.056,223.197 113.318,222.965 113.621,222.694 C120.73,216.376 147.366,219.972 168.457,224.101 L168.865,222.047 C121.606,212.795 114.538,219.071 112.218,221.133" fill="#5E453E"/>
    <path d="M172.452,221.022 L172.945,218.988 C138.305,210.711 116.864,210.665 107.392,218.843 L108.776,220.423 C117.57,212.828 138.994,213.028 172.452,221.022" fill="#5E453E"/>
    <path d="M106.141,220.22 L106.023,220.222 C101.939,220.387 98.126,225.188 97.696,227.624 C97.089,231.077 98.391,233.493 99.591,234.912 C101.063,236.65 102.995,237.588 104.069,237.588 C104.325,237.588 104.413,237.531 104.413,237.531 C105.298,236.87 105.248,236.743 105.097,236.368 C104.882,235.825 104.483,234.816 105.485,233.581 C105.83,233.157 106.309,232.933 106.872,232.933 C107.433,232.933 107.962,233.155 108.524,233.389 C109.018,233.594 109.529,233.807 109.944,233.807 C110.13,233.807 110.562,233.807 111.064,232.885 C111.389,232.286 110.973,231.454 110.301,230.253 C109.644,229.079 108.897,227.748 109.389,226.409 C109.844,225.167 111.11,225.157 111.789,225.152 C112.021,225.151 112.453,225.147 112.55,225.078 C112.55,225.078 112.668,224.924 112.65,224.348 C112.594,223.42 108.844,220.22 106.141,220.22 z M104.069,239.68 C102.158,239.68 99.711,238.306 97.98,236.259 C95.877,233.771 95.039,230.577 95.622,227.262 C96.231,223.809 100.935,218.333 105.934,218.131 L106.141,218.126 C109.533,218.126 114.687,221.813 114.756,224.288 C114.785,225.289 114.558,226.022 114.063,226.533 C113.383,227.235 112.469,227.242 111.805,227.247 C111.662,227.248 111.471,227.248 111.338,227.262 C111.301,227.733 111.744,228.525 112.14,229.234 C112.889,230.568 113.817,232.226 112.918,233.88 C112.188,235.221 111.187,235.901 109.944,235.901 L109.943,235.901 C109.105,235.901 108.33,235.578 107.709,235.319 C107.495,235.23 107.195,235.105 107.005,235.052 C106.9,235.205 106.93,235.28 107.058,235.6 C107.53,236.79 107.476,237.861 105.679,239.203 C105.257,239.519 104.714,239.68 104.069,239.68" fill="#451D18"/>
    <path d="M174.93,232.933 C175.493,232.933 175.974,233.157 176.314,233.581 C177.318,234.816 176.918,235.825 176.705,236.368 C176.554,236.743 176.502,236.87 177.388,237.531 C177.388,237.531 177.478,237.588 177.733,237.588 C178.805,237.588 180.74,236.651 182.207,234.913 C183.409,233.493 184.712,231.077 184.105,227.623 C183.675,225.188 179.863,220.387 175.779,220.222 L175.662,220.22 C172.957,220.22 169.207,223.42 169.151,224.349 C169.135,224.924 169.251,225.078 169.254,225.079 C169.347,225.147 169.78,225.151 170.014,225.152 C170.693,225.157 171.956,225.167 172.411,226.408 C172.902,227.748 172.156,229.079 171.5,230.253 C170.828,231.454 170.412,232.286 170.737,232.885 C171.24,233.807 171.673,233.807 171.855,233.807 C172.271,233.807 172.782,233.594 173.277,233.389 C173.839,233.155 174.37,232.933 174.93,232.933 z M177.733,239.68 L177.733,239.68 C177.087,239.68 176.544,239.519 176.12,239.203 C174.326,237.861 174.271,236.79 174.744,235.6 C174.871,235.28 174.901,235.205 174.796,235.052 C174.606,235.105 174.306,235.23 174.091,235.319 C173.469,235.578 172.696,235.901 171.855,235.901 C170.614,235.901 169.613,235.221 168.885,233.881 C167.983,232.226 168.912,230.568 169.661,229.234 C170.056,228.525 170.501,227.733 170.463,227.262 C170.331,227.248 170.138,227.248 169.996,227.247 C169.332,227.242 168.42,227.235 167.738,226.533 C167.243,226.022 167.017,225.289 167.044,224.288 C167.114,221.813 172.268,218.126 175.662,218.126 L175.866,218.131 C180.866,218.333 185.57,223.809 186.179,227.262 C186.762,230.577 185.925,233.772 183.82,236.26 C182.089,238.306 179.645,239.68 177.733,239.68" fill="#451D18"/>
    <path d="M181.5,154.596 L180.927,152.581 C203.488,146.253 213.634,132.318 211.947,109.98 C210.54,95.726 206.293,81.549 199.662,69 L201.529,68.026 C208.281,80.812 212.609,95.256 214.044,109.799 C215.797,132.983 204.845,148.047 181.5,154.596" fill="#6B2A21"/>
    <path d="M99.336,154.596 C75.988,148.047 65.037,132.983 66.788,109.824 C68.215,95.343 72.507,80.973 79.195,68.238 L81.063,69.207 C74.495,81.706 70.286,95.812 68.887,110.003 C67.199,132.318 77.348,146.253 99.907,152.581 L99.336,154.596" fill="#6B2A21"/>
    <path d="M85.009,100.111 C82.167,100.111 79.856,102.41 79.856,105.235 C79.856,107.589 81.462,109.632 83.76,110.201 L84.71,110.436 L84.545,111.392 C84.402,112.24 84.33,113.009 84.33,113.745 C84.33,121.392 90.589,127.612 98.284,127.612 C105.976,127.612 112.235,121.392 112.235,113.745 C112.235,106.099 105.976,99.878 98.284,99.878 C95.478,99.878 92.773,100.703 90.459,102.264 L89.651,102.809 L89.043,102.049 C88.058,100.818 86.585,100.111 85.009,100.111 z M98.284,129.705 C89.428,129.705 82.223,122.546 82.223,113.745 C82.223,113.163 82.261,112.567 82.338,111.941 C79.593,110.867 77.748,108.231 77.748,105.235 C77.748,101.256 81.007,98.018 85.009,98.018 C86.912,98.018 88.702,98.746 90.047,100.042 C92.533,98.563 95.361,97.785 98.284,97.785 C107.137,97.785 114.341,104.945 114.341,113.745 C114.341,122.546 107.137,129.705 98.284,129.705" fill="#0B0B0A"/>
    <path d="M182.551,99.878 C174.858,99.878 168.6,106.099 168.6,113.745 C168.6,121.392 174.858,127.612 182.551,127.612 C190.244,127.612 196.504,121.392 196.504,113.745 C196.504,113.009 196.434,112.24 196.29,111.392 L196.125,110.436 L197.072,110.201 C199.374,109.632 200.978,107.589 200.978,105.235 C200.978,102.41 198.667,100.111 195.826,100.111 C194.248,100.111 192.777,100.818 191.791,102.049 L191.184,102.809 L190.377,102.264 C188.063,100.703 185.357,99.878 182.551,99.878 z M182.551,129.705 C173.698,129.705 166.492,122.546 166.492,113.745 C166.492,104.945 173.698,97.785 182.551,97.785 C185.473,97.785 188.302,98.563 190.787,100.042 C192.133,98.746 193.922,98.018 195.826,98.018 C199.828,98.018 203.086,101.256 203.086,105.235 C203.086,108.231 201.24,110.867 198.497,111.941 C198.574,112.567 198.609,113.163 198.609,113.745 C198.609,122.546 191.407,129.705 182.551,129.705" fill="#0B0B0A"/>
    <path d="M140.417,163.26 C115.842,163.255 99.336,156.474 99.336,150.142 C99.336,148.682 99.987,147.405 101.382,146.124 C101.489,146.026 101.608,145.911 101.744,145.781 C102.123,145.416 102.643,144.915 103.345,144.359 C104.158,143.721 105.045,142.982 105.985,142.199 C106.359,141.885 106.766,141.554 107.159,141.228 C107.997,142.145 109.644,142.62 112.122,142.62 C116.066,142.62 121.714,141.546 127.228,140.386 C129.169,139.975 130.701,139.495 132.05,139.072 C134.475,138.311 136.568,137.656 140.328,137.656 C144,137.656 146.093,138.311 148.518,139.072 C149.868,139.495 151.397,139.975 153.341,140.386 C158.853,141.546 164.499,142.62 168.444,142.62 L168.447,142.62 C171.035,142.62 172.72,142.105 173.515,141.093 C173.967,141.465 174.413,141.834 174.843,142.194 C175.786,142.978 176.675,143.719 177.487,144.359 C178.192,144.915 178.711,145.416 179.09,145.781 C179.226,145.911 179.346,146.026 179.452,146.124 C180.847,147.405 181.5,148.682 181.5,150.142 C181.5,156.474 164.993,163.255 140.417,163.26 z M116.662,134.074 C119.341,132.786 122.377,131.326 125.18,129.566 C127.256,128.264 128.938,126.606 130.562,125 C133.499,122.101 136.034,119.597 140.328,119.597 C144.533,119.597 147.068,122.101 150.005,125 C151.629,126.605 153.31,128.264 155.385,129.566 C158.191,131.326 161.226,132.786 163.907,134.075 C167.862,135.979 171.954,137.947 171.954,139.549 C171.939,140.153 170.592,140.527 168.447,140.527 L168.444,140.527 C164.694,140.527 159.179,139.475 153.776,138.337 C151.935,137.949 150.52,137.505 149.149,137.075 C146.561,136.263 144.323,135.562 140.24,135.562 C136.244,135.562 134.008,136.263 131.418,137.075 C130.048,137.505 128.632,137.949 126.79,138.337 C121.388,139.475 115.873,140.527 112.122,140.527 C109.976,140.527 108.63,140.152 108.614,139.58 C108.614,137.946 112.705,135.979 116.662,134.074 z M193.281,137.526 L191.184,137.306 C190.832,140.623 186.394,142.627 180.955,144.66 L180.879,144.585 C180.787,144.499 180.678,144.395 180.556,144.277 C180.146,143.882 179.582,143.339 178.798,142.719 C177.997,142.09 177.123,141.362 176.195,140.59 C175.473,139.988 174.713,139.357 173.934,138.726 C173.256,136.255 169.647,134.512 164.823,132.191 C162.196,130.928 159.214,129.493 156.508,127.796 C154.631,126.617 153.033,125.041 151.488,123.515 C148.495,120.561 145.4,117.505 140.24,117.505 C135.165,117.505 132.07,120.561 129.077,123.516 C127.534,125.041 125.934,126.618 124.057,127.796 C121.352,129.493 118.374,130.926 115.745,132.191 C110.763,134.587 107.072,136.367 106.568,138.994 C105.908,139.535 105.254,140.077 104.632,140.593 C103.706,141.366 102.835,142.091 102.038,142.72 C101.252,143.339 100.689,143.882 100.279,144.277 C100.157,144.395 100.049,144.499 99.954,144.585 L99.878,144.659 C94.439,142.627 90.004,140.623 89.649,137.306 L87.554,137.526 C88.043,142.113 93.506,144.506 98.42,146.351 C97.628,147.531 97.23,148.782 97.23,150.142 C97.23,158.664 116.182,165.343 140.386,165.354 L140.449,165.354 C164.653,165.343 183.604,158.664 183.604,150.142 C183.604,148.782 183.206,147.531 182.415,146.351 C187.328,144.506 192.792,142.113 193.281,137.526" fill="#451D18"/>
    <path d="M147.509,151.612 C146.555,151.612 145.567,152.63 145.21,153.981 C145.001,154.775 145.034,155.6 145.301,156.247 C145.429,156.565 145.738,157.127 146.336,157.282 C147.356,157.549 148.549,156.453 148.945,154.951 C149.348,153.428 148.833,151.916 147.82,151.652 L147.509,151.612 z M146.646,159.415 C146.36,159.415 146.077,159.378 145.802,159.308 C144.719,159.025 143.822,158.197 143.348,157.036 C142.907,155.964 142.846,154.688 143.174,153.449 C143.785,151.135 145.567,149.52 147.509,149.52 C147.795,149.52 148.08,149.556 148.355,149.627 C150.507,150.188 151.685,152.816 150.982,155.484 C150.37,157.799 148.585,159.415 146.646,159.415" fill="#451D18"/>
    <path d="M133.326,151.612 L133.012,151.652 C132.001,151.916 131.487,153.428 131.891,154.953 C132.286,156.453 133.487,157.549 134.498,157.282 C135.096,157.127 135.406,156.565 135.535,156.247 C135.8,155.6 135.831,154.775 135.624,153.981 C135.268,152.63 134.28,151.612 133.326,151.612 z M134.189,159.415 L134.189,159.415 C132.248,159.415 130.464,157.799 129.854,155.484 C129.149,152.816 130.328,150.188 132.48,149.627 C132.755,149.556 133.041,149.52 133.326,149.52 C135.268,149.52 137.049,151.135 137.659,153.449 C137.989,154.688 137.927,155.964 137.488,157.036 C137.013,158.197 136.116,159.025 135.033,159.308 C134.758,159.378 134.475,159.415 134.189,159.415" fill="#451D18"/>
    <path d="M185.689,62.574 L178.425,56.31 C180.629,55.995 182.669,55.675 184.523,55.357 L187.874,57.678 L185.689,62.574 z M176.938,63.988 L169.076,57.484 C171.373,57.234 173.568,56.967 175.653,56.691 L178.918,59.506 L176.938,63.988 z M167.866,66.324 L159.146,58.4 C161.544,58.218 163.887,58.012 166.15,57.788 L170.265,61.192 L167.866,66.324 z M158.442,68.025 L148.174,59.021 C150.91,58.921 153.607,58.778 156.245,58.604 L160.979,62.906 L158.442,68.025 z M148.156,69.325 L137.958,59.177 C138.586,59.186 139.216,59.194 139.845,59.198 L140.161,59.199 L140.161,59.198 C141.814,59.188 143.465,59.161 145.103,59.119 L150.87,64.176 L148.156,69.325 z M137.873,70.462 L127.853,58.846 C130.18,58.966 132.541,59.06 134.922,59.119 L141.108,65.276 L137.873,70.462 z M127.575,69.637 L118.599,58.219 C120.667,58.392 122.782,58.549 124.94,58.683 L130.576,65.217 L127.575,69.637 z M117.28,69.387 L109.665,57.342 C111.621,57.564 113.643,57.774 115.728,57.968 L120.804,64.426 L117.28,69.387 z M107.824,67.609 L101.803,56.342 C103.448,56.576 105.172,56.805 106.98,57.027 L111.213,63.721 L107.824,67.609 z M98.241,65.646 L92.873,54.89 C94.742,55.241 96.868,55.603 99.218,55.961 L102.338,61.803 L98.241,65.646 z M195.728,55.456 L194.128,59.456 L187.447,54.832 C191.828,54 194.711,53.246 195.47,52.78 L194.366,50.999 C192.439,52.181 167.436,56.97 140.005,57.105 C112.572,56.97 87.568,52.181 85.64,50.999 L84.536,52.78 C85.155,53.158 87.177,53.729 90.265,54.375 L92.541,58.931 L88.002,62.551 L84.591,55.394 L82.687,56.29 L86.311,63.897 L84.432,65.397 L85.747,67.03 L93.499,60.852 L96.639,67.147 L93.973,69.649 L95.419,71.171 L103.363,63.721 L106.345,69.305 L103.537,72.524 L105.128,73.896 L112.384,65.575 L115.963,71.238 L113.495,74.714 L115.213,75.921 L122.158,66.147 L126.336,71.463 L123.132,76.183 L124.878,77.353 L131.999,66.865 L136.711,72.327 L133.861,76.894 L135.65,77.997 L142.636,66.796 L147.129,71.268 L144.126,76.96 L145.992,77.931 L152.497,65.6 L157.479,69.971 L154.341,76.306 L156.23,77.231 L162.6,64.376 L166.934,68.315 L163.765,75.09 L165.675,75.972 L171.941,62.578 L176.056,65.982 L172.81,73.328 L174.74,74.168 L180.583,60.943 L184.796,64.575 L181.996,70.847 L184.999,70.959 L189.636,58.897 L193.332,61.454 L190.794,67.808 L192.751,68.581 L197.686,56.228 L195.728,55.456" fill="#5E453E"/>
    <path d="M140.457,82.816 L139.899,82.816 C100.942,82.326 78.025,67.339 63.679,56.593 C78.242,65.668 101.358,78.144 139.885,78.629 L140.471,78.629 C178.986,78.144 202.102,65.668 216.662,56.593 C202.317,67.34 179.403,82.326 140.457,82.816 z M91.557,37.254 C96.06,24.911 101.154,10.942 101.775,9.647 C103.175,8.504 119.043,2.143 140.172,2.094 C161.267,2.143 177.12,8.484 178.56,9.642 C179.254,11.124 184.311,24.99 188.785,37.254 C194.006,51.565 197.484,61.076 198.701,64.117 C184.834,70.6 166.347,76.211 140.457,76.537 L139.899,76.537 C114.002,76.211 95.512,70.599 81.641,64.117 C82.86,61.075 86.338,51.564 91.557,37.254 z M240.745,46.214 C235.281,42.244 229.123,46.178 219.798,52.127 C214.528,55.49 208.295,59.459 200.601,63.209 C199.226,59.737 194.763,47.498 190.765,36.541 C183.836,17.548 180.755,9.153 180.32,8.476 C179.206,6.734 162.019,0.1 140.417,0.001 L139.925,0 L139.925,0.001 C118.323,0.1 101.138,6.734 100.023,8.476 C99.589,9.153 96.506,17.548 89.577,36.541 C85.579,47.498 81.117,59.735 79.741,63.209 C72.047,59.459 65.815,55.49 60.546,52.127 C51.219,46.179 45.058,42.247 39.598,46.214 C38.132,47.282 36.8,49.828 38.794,55.896 C42.603,67.478 58.229,88.747 72.338,88.747 L72.338,86.654 C60.233,86.654 44.858,67.602 40.798,55.246 C39.564,51.496 39.58,48.82 40.844,47.903 C41.417,47.487 42.011,47.195 42.628,47.001 L42.637,47.033 C46.427,46.059 51.505,49.946 58.542,55.327 C72.748,66.188 96.527,84.364 139.885,84.909 L140.471,84.909 C183.818,84.364 207.596,66.187 221.801,55.326 C228.861,49.93 233.958,46.033 237.745,47.043 L237.753,47.011 C238.36,47.205 238.939,47.495 239.5,47.903 C240.762,48.82 240.778,51.496 239.546,55.246 C235.485,67.602 220.111,86.654 208.005,86.654 L208.005,88.747 C222.113,88.747 237.739,67.478 241.548,55.896 C243.543,49.828 242.211,47.282 240.745,46.214" fill="#3A271C"/>
    <path d="M208.498,91.465 C207.847,89.085 207.113,86.711 206.317,84.407 L208.312,83.727 C209.119,86.074 209.868,88.493 210.53,90.916 L208.498,91.465" fill="#6B2A21"/>
    <path d="M72.217,91.903 L70.183,91.361 C70.858,88.861 71.624,86.361 72.456,83.929 L74.449,84.604 C73.631,86.991 72.88,89.448 72.217,91.903" fill="#6B2A21"/>
    <path d="M48.863,190.313 L65.16,190.313 L65.16,275.896 L48.863,275.896 z" fill="#2D749F"/>
    <path d="M49.917,274.85 L64.108,274.85 L64.108,191.36 L49.917,191.36 z M47.808,189.266 L66.215,189.266 L66.215,276.942 L47.808,276.942 z" fill="#264267"/>
    <path d="M26.481,210.878 L42.975,210.878 L42.975,275.896 L26.481,275.896 z" fill="#45B69F"/>
    <path d="M27.536,274.85 L41.922,274.85 L41.922,211.925 L27.536,211.925 z M25.428,209.831 L44.027,209.831 L44.027,276.942 L25.428,276.942 z" fill="#227763"/>
    <path d="M70.95,227.335 L86.251,227.335 L86.251,275.896 L70.95,275.896 z" fill="#9C2629"/>
    <path d="M72.002,274.85 L85.195,274.85 L85.195,228.382 L72.002,228.382 z M69.897,226.289 L87.303,226.289 L87.303,276.942 L69.897,276.942 z" fill="#651B26"/>
    <path d="M195.044,58.575 L190.59,51.894 L190.403,51.948 L190.034,47.428 C180.577,44.831 175.561,43.868 175.173,51.164 C174.674,60.49 187.82,51.963 190.283,51.983 C184.032,53.786 175.76,59.42 184.811,67.394 C191.776,73.528 194.734,58.219 195.044,58.575" fill="#B4D0D6"/>
    <path d="M211.475,52.759 C209.752,46.434 206.162,46.299 202.679,47.821 C205.662,45.769 209.138,41.854 200.303,38.743 C193.732,36.432 193.531,42.273 193.572,44.829 L200.185,49.157 C200.03,49.252 199.876,49.349 199.723,49.448 L202.214,57.423 C202.417,57.483 202.786,57.614 203.262,57.774 L195.569,58.309 C194.31,59.266 190.667,74.808 202.73,66.839 C209.273,62.519 206.126,61.149 203.338,57.798 C206.398,58.811 213.666,60.801 211.475,52.759" fill="#B4D0D6"/>
    <path d="M189.767,47.345 L193.488,44.636 C192.885,42.715 193.1,34.068 185.081,37.118 C173.069,41.691 188.703,46.799 189.767,47.345" fill="#B4D0D6"/>
    <path d="M199.585,49.499 C202.823,53.122 203.859,57.459 201.902,59.184 C199.946,60.912 195.735,59.377 192.499,55.755 C191.812,54.987 191.224,54.185 190.743,53.383 C188.956,50.411 188.641,47.43 190.181,46.068 C192.139,44.34 196.347,45.878 199.585,49.499" fill="#D9562B"/>
    <path d="M177.493,46.79 C176.383,47.633 174.214,54.346 176.149,55.235 C178.084,56.122 188.325,53.753 189.222,52.78 C191.501,50.303 182.471,52.026 181.557,51.853 C178.033,51.187 178.172,46.273 177.493,46.79" fill="#9EBEC4"/>
    <path d="M183.155,56.971 C181.709,57.228 179.735,62.912 184.405,67.598 C189.074,72.285 190.796,68.948 192.211,67.095 C193.628,65.243 195.913,61.294 194.51,60.849 C193.105,60.402 191.883,62.746 188.958,61.64 C186.034,60.532 185.319,56.585 183.155,56.971" fill="#9EBEC4"/>
    <path d="M195.872,68.701 C197.688,69.372 207.101,65.773 206.975,62.814 C206.852,59.855 205.714,61.377 205.278,60.9 C204.84,60.423 203.94,63.851 200.77,64.459 C199.555,64.69 195.896,63.181 194.963,64.276 C193.466,66.029 194.767,68.291 195.872,68.701" fill="#9EBEC4"/>
    <path d="M181.091,40.771 C179.392,42.686 187.592,47.468 188.782,47.29 C189.973,47.113 192.794,46.42 193.184,45.625 C193.572,44.829 193.031,42.087 192.512,41.997 C191.996,41.906 190.336,44.326 188.59,43.794 C186.848,43.267 181.654,40.136 181.091,40.771" fill="#9EBEC4"/>
    <path d="M194.287,45.738 C193.238,46.312 198.977,50.144 200.151,49.737 C201.326,49.332 202.38,48.99 203.623,47.806 C204.865,46.622 207.359,45.633 202.619,45.836 C200.245,45.936 196.466,46.202 195.651,45.051 C193.849,42.51 194.967,45.365 194.287,45.738" fill="#9EBEC4"/>
    <path d="M202.856,56.023 C203.374,58.405 203.138,57.934 206.709,58.655 C210.283,59.375 212.085,58.973 211.835,56.075 C211.58,53.176 210.999,48.635 210.348,50.386 C209.542,52.544 209.288,54.116 206.841,54.246 C202.189,54.496 202.491,54.345 202.856,56.023" fill="#9EBEC4"/>
    <path d="M190.101,48.064 C189.157,56.095 199.208,61.042 200.969,60.381 C202.73,59.72 202.893,57.411 202.63,56.311 C201.744,52.592 201.513,58.046 197.272,55.96 C191.261,53.003 190.233,46.953 190.101,48.064" fill="#AB412B"/>
    <path d="M210.308,57.794 C209.317,58.717 206.906,58.529 203.143,57.242 C202.903,57.16 202.715,57.096 202.586,57.057 L201.981,59.062 C202.091,59.094 202.252,59.151 202.458,59.22 C202.563,59.257 202.686,59.298 202.806,59.339 C203.291,59.898 203.77,60.384 204.195,60.807 C204.877,61.478 205.517,62.113 205.481,62.473 C205.441,62.883 204.804,63.761 202,65.612 C198.861,67.685 196.573,68.332 195.719,67.381 C194.248,65.746 195.725,60.449 196.277,59.778 L195.551,58.833 L195.907,58.524 L195.489,58.057 L195.03,58.152 L194.999,58.114 L194.943,58.169 L194.886,58.181 C194.218,58.317 194.081,58.741 193.679,59.999 C193.01,62.089 191.229,67.64 188.593,68.362 C187.701,68.607 186.709,68.243 185.579,67.247 C182.727,64.735 181.54,62.364 182.046,60.203 C182.783,57.067 187.041,54.598 190.934,53.54 L190.549,52.14 L190.636,51.588 L190.393,51.573 L190.38,51.521 L190.177,51.58 C189.395,51.638 188.304,52.067 186.438,52.842 C183.622,54.009 178.912,55.963 177.14,54.72 C176.501,54.271 176.215,53.308 176.293,51.854 C176.402,49.807 176.898,48.493 177.809,47.839 C179.748,46.454 184.012,47.477 189.821,49.073 L190.382,47.056 L190.249,47.019 C190.099,46.951 189.836,46.843 189.469,46.697 C182.686,44.013 181.683,42.312 181.686,41.536 C181.689,41.132 182.069,40.05 185.525,38.733 C187.367,38.034 188.812,37.972 189.815,38.55 C191.532,39.537 191.968,42.283 192.256,44.101 C192.356,44.72 192.433,45.209 192.551,45.584 L192.898,45.476 L194.693,45.447 C194.677,44.448 194.626,41.407 196.134,40.33 C196.959,39.739 198.266,39.749 200.019,40.366 C203.19,41.483 204.943,42.806 204.947,44.09 C204.951,45.286 203.564,46.595 202.216,47.545 C201.117,48.033 200.093,48.644 199.221,49.206 L200.367,50.962 L200.653,50.784 L200.663,50.81 C201.051,50.669 202.102,50.164 203.245,49.389 C204.919,48.667 206.253,48.513 207.33,48.921 C208.739,49.458 209.818,51.055 210.528,53.67 C210.917,55.097 211.194,56.971 210.308,57.794 z M212.561,53.122 C211.663,49.826 210.157,47.754 208.082,46.967 C207.465,46.732 206.83,46.627 206.191,46.614 C206.715,45.838 207.057,44.986 207.052,44.08 C207.042,41.782 204.911,39.869 200.722,38.393 C198.286,37.536 196.327,37.615 194.903,38.631 C194.298,39.065 193.859,39.629 193.522,40.258 C193.025,38.864 192.236,37.523 190.871,36.739 C189.288,35.828 187.232,35.841 184.773,36.778 C181.292,38.103 179.592,39.655 179.58,41.521 C179.57,42.891 180.515,44.109 181.938,45.188 C179.687,44.96 177.91,45.187 176.578,46.141 C175.116,47.188 174.335,49.022 174.191,51.743 C174.071,53.963 174.657,55.54 175.929,56.43 C176.724,56.99 177.696,57.216 178.769,57.216 C179.606,57.216 180.505,57.067 181.429,56.844 C180.748,57.716 180.24,58.678 179.996,59.727 C179.299,62.695 180.707,65.752 184.182,68.814 C185.48,69.956 186.77,70.532 188.036,70.531 C188.41,70.531 188.783,70.481 189.152,70.38 C190.852,69.915 192.165,68.442 193.181,66.71 C193.324,67.374 193.553,67.981 193.904,68.471 C194.596,69.437 195.565,69.92 196.805,69.92 C198.454,69.92 200.58,69.065 203.168,67.356 C206.207,65.348 207.444,64.036 207.577,62.678 C207.668,61.762 207.26,61.041 206.651,60.336 C207.187,60.415 207.731,60.465 208.266,60.465 C209.583,60.465 210.834,60.171 211.745,59.323 C213.071,58.092 213.346,56.005 212.561,53.122" fill="#6D97AB"/>
    <path d="M192.448,47.022 C191.857,47.022 191.389,47.173 191.057,47.468 C189.98,48.416 190.303,50.936 191.821,53.462 C192.281,54.228 192.833,54.974 193.46,55.674 C195.518,57.976 198.079,59.464 199.986,59.464 C200.575,59.464 201.043,59.314 201.377,59.019 C202.01,58.46 202.179,57.327 201.841,55.912 C201.442,54.247 200.425,52.435 198.972,50.811 C196.915,48.509 194.354,47.022 192.448,47.022 z M199.986,61.556 C197.467,61.556 194.364,59.836 191.887,57.066 C191.17,56.266 190.542,55.415 190.013,54.535 C187.876,50.983 187.737,47.594 189.658,45.902 C190.378,45.266 191.345,44.929 192.448,44.929 C194.967,44.929 198.069,46.65 200.546,49.421 C202.226,51.299 203.413,53.433 203.889,55.427 C204.421,57.649 204.024,59.48 202.775,60.583 C202.053,61.22 201.09,61.556 199.986,61.556" fill="#8D3A27"/>
  </g>
</svg>
