<svg version="1.1" xmlns="http://www.w3.org/2000/svg" xmlns:xlink="http://www.w3.org/1999/xlink" x="0" y="0" width="231.921" height="266.1" viewBox="0, 0, 231.921, 266.1">
  <g id="Layer_1">
    <path d="M20.811,257.123 L211.104,257.123 L211.104,85.228 L20.811,85.228 z M13.447,77.295 L218.473,77.295 L218.473,265.056 L13.447,265.056 z" fill="#A4865C"/>
    <path d="M21.865,86.274 L210.053,86.274 L210.053,256.076 L21.865,256.076 z M12.395,266.1 L219.524,266.1 L219.524,76.249 L12.395,76.249 z M19.76,258.168 L212.158,258.168 L212.158,84.182 L19.76,84.182 z M14.499,78.341 L217.421,78.341 L217.421,264.009 L14.499,264.009 z" fill="#84694D"/>
    <path d="M115.96,43.968 C56.661,43.968 8.417,91.916 8.417,150.851 C8.417,209.785 56.661,257.733 115.96,257.733 C175.259,257.733 223.501,209.785 223.501,150.851 C223.501,91.916 175.259,43.968 115.96,43.968 z M115.96,265.056 C52.6,265.056 1.052,213.823 1.052,150.851 C1.052,87.879 52.6,36.647 115.96,36.647 C179.32,36.647 230.869,87.879 230.869,150.851 C230.869,213.823 179.32,265.056 115.96,265.056" fill="#A4865C"/>
    <path d="M115.96,256.688 C57.242,256.688 9.47,209.209 9.47,150.851 C9.47,92.493 57.242,45.014 115.96,45.014 C174.678,45.014 222.449,92.493 222.449,150.851 C222.449,209.209 174.678,256.688 115.96,256.688 z M115.96,35.602 C52.02,35.602 0,87.301 0,150.851 C0,214.4 52.02,266.1 115.96,266.1 C179.902,266.1 231.921,214.4 231.921,150.851 C231.921,87.301 179.902,35.602 115.96,35.602 z M115.96,258.779 C175.839,258.779 224.556,210.363 224.556,150.851 C224.556,91.339 175.839,42.923 115.96,42.923 C56.081,42.923 7.365,91.339 7.365,150.851 C7.365,210.363 56.081,258.779 115.96,258.779 M115.96,37.694 C178.742,37.694 229.816,88.456 229.816,150.851 C229.816,213.247 178.742,264.009 115.96,264.009 C53.18,264.009 2.105,213.247 2.105,150.851 C2.105,88.456 53.18,37.694 115.96,37.694" fill="#84694D"/>
    <path d="M160.063,223.203 C160.063,223.203 144.205,229.691 144.762,245.708 C144.809,247.092 140.345,237.203 137.307,236.49 C121.482,235.012 116.128,245.356 116.128,245.356 C116.128,245.356 111.253,236.431 93.816,236.187 C92.105,236.649 89.449,244.587 87,244.115 C81.931,225.26 69.052,222.945 69.052,222.945 L87.807,199.551 L142.831,199.551 L160.063,223.203" fill="#D9674C"/>
    <path d="M210.008,134.367 L190.157,133.986 L185.048,133.889 L205.602,124.753 L197.509,108.553 L158.249,126.881 L73.933,126.664 L34.557,107.597 L26.658,124.753 L47.204,133.986 L21.139,133.986 L21.139,152.658 L86.849,151.893 L86.849,199.407 L144.055,199.407 L144.116,152.78 L210.008,153.807 L210.008,134.367" fill="#2D749F"/>
    <path d="M123.572,259.33 C126.957,260.283 125.855,256.506 130.966,256.88 C136.076,257.256 137.361,261.477 141.612,259.953 C145.869,258.429 143.917,254.558 146.282,252.003 C148.651,249.449 153.75,251.149 149.994,248.353 C145.731,245.182 139.842,240.158 138.229,237.673 C136.619,235.187 115.597,233.66 115.597,249.389 C115.597,254.803 121.447,258.733 123.572,259.33" fill="#6A281F"/>
    <path d="M159.796,252.067 C162.997,250.61 159.693,248.446 163.827,245.436 C167.965,242.428 171.694,244.815 173.939,240.913 C176.183,237.011 172.174,235.322 172.309,231.852 C172.444,228.381 177.389,228.265 174.344,224.713 C172.182,222.191 164.286,223.437 161.441,222.584 C158.591,221.731 136.98,237.659 147.239,249.635 C150.776,253.757 157.789,252.98 159.796,252.067" fill="#6A281F"/>
    <path d="M107.627,259.33 C104.242,260.283 105.344,256.506 100.23,256.88 C95.121,257.256 93.838,261.477 89.582,259.953 C85.33,258.429 87.281,254.558 84.912,252.003 C82.545,249.449 82.905,251.719 84.652,247.556 C85.933,244.5 92.335,239.949 93.032,237.077 C93.22,236.307 115.597,233.66 115.597,249.389 C115.597,254.803 109.75,258.733 107.627,259.33" fill="#6A281F"/>
    <path d="M71.08,251.763 C67.85,250.372 71.107,248.14 66.907,245.22 C62.709,242.299 59.032,244.763 56.704,240.909 C54.378,237.055 58.353,235.281 58.144,231.815 C57.934,228.348 52.991,228.334 55.96,224.72 C58.067,222.154 65.986,223.235 68.815,222.322 C71.646,221.41 93.586,236.885 83.58,249.071 C80.137,253.266 73.106,252.637 71.08,251.763" fill="#6A281F"/>
    <path d="M21.919,138.346 C23.092,141.113 22.306,147.707 18.589,150.305 C16.08,152.063 10.279,151.56 9.301,150.143 C7.533,147.573 11.093,147.739 10.761,146.297 C10.309,144.308 5.991,144.036 5.802,141.607 C5.502,137.718 9.944,139.412 10.112,137.827 C10.352,135.604 7.752,136.836 8.921,133.682 C9.739,131.477 18.722,130.821 21.919,138.346" fill="#6A281F"/>
    <path d="M209.228,138.346 C208.052,141.113 208.84,147.707 212.555,150.305 C215.065,152.063 220.513,151.617 221.49,150.199 C223.256,147.631 220.053,147.739 220.385,146.297 C220.836,144.308 225.155,144.036 225.342,141.607 C225.642,137.718 221.204,139.412 221.033,137.827 C220.793,135.604 223.394,136.836 222.225,133.682 C221.406,131.477 212.423,130.821 209.228,138.346" fill="#6A281F"/>
    <path d="M199.335,109.569 C198.68,112.502 200.645,118.848 204.768,120.741 C207.556,122.023 213.172,120.493 213.879,118.923 C215.152,116.081 211.683,116.881 211.749,115.4 C211.834,113.363 216.032,112.326 215.777,109.903 C215.371,106.024 211.309,108.482 210.856,106.953 C210.217,104.809 212.999,105.558 211.28,102.663 C210.078,100.641 201.122,101.598 199.335,109.569" fill="#6A281F"/>
    <path d="M33.333,110.906 C33.564,113.902 30.708,119.905 26.357,121.195 C23.414,122.07 18.074,119.761 17.6,118.109 C16.744,115.113 20.065,116.395 20.212,114.923 C20.419,112.895 16.413,111.273 17.012,108.909 C17.968,105.129 21.639,108.136 22.306,106.688 C23.245,104.655 20.383,105.003 22.5,102.383 C23.979,100.549 32.706,102.762 33.333,110.906" fill="#6A281F"/>
    <path d="M75.108,126.456 C50.621,119.588 41.739,104.018 43.344,82.797 C47.167,44.02 72.917,0.585 115.907,0.585 L115.85,0.585 C158.838,0.585 184.586,44.02 188.414,82.797 C190.016,104.018 181.134,119.588 156.647,126.456 L75.108,126.456" fill="#BC7F71"/>
    <path d="M72.745,72.067 C69.628,72.067 66.733,73.014 64.335,74.631 C63.199,73.211 61.448,72.3 59.482,72.3 C56.054,72.3 53.275,75.06 53.275,78.467 C53.275,81.358 55.279,83.777 57.98,84.445 C57.837,85.268 57.749,86.108 57.749,86.973 C57.749,95.204 64.463,101.877 72.745,101.877 C81.028,101.877 87.741,95.204 87.741,86.973 C87.741,78.739 81.028,72.067 72.745,72.067" fill="#0B0B0A"/>
    <path d="M156.96,72.067 C160.08,72.067 162.974,73.014 165.373,74.631 C166.508,73.211 168.259,72.3 170.226,72.3 C173.655,72.3 176.43,75.06 176.43,78.467 C176.43,81.358 174.428,83.777 171.729,84.445 C171.868,85.268 171.956,86.108 171.956,86.973 C171.956,95.204 165.245,101.877 156.96,101.877 C148.68,101.877 141.966,95.204 141.966,86.973 C141.966,78.739 148.68,72.067 156.96,72.067" fill="#0B0B0A"/>
    <path d="M74.195,83.003 C74.195,85.579 72.094,87.666 69.504,87.666 C66.914,87.666 64.817,85.579 64.817,83.003 C64.817,80.429 66.914,78.341 69.504,78.341 C72.094,78.341 74.195,80.429 74.195,83.003" fill="#D7E7E8"/>
    <path d="M158.249,83.003 C158.249,85.577 156.15,87.665 153.559,87.665 C150.968,87.665 148.868,85.577 148.868,83.003 C148.868,80.429 150.968,78.341 153.559,78.341 C156.15,78.341 158.249,80.429 158.249,83.003" fill="#D7E7E8"/>
    <path d="M156.96,123.327 C156.96,121.618 156.232,120.062 154.576,118.543 C154.168,118.167 153.541,117.508 152.554,116.731 C151.144,115.619 149.5,114.201 147.743,112.774 C147.805,112.716 147.873,112.664 147.929,112.601 C150.2,110.102 134.175,103.643 130.465,101.413 C126.75,99.181 121.534,92.056 116.061,92.094 C110.587,92.13 104.689,98.786 102.257,100.901 C99.185,103.575 95.411,105.272 92.095,106.671 L91.489,106.772 C90.271,107.175 89.014,107.804 87.751,108.568 C86.464,109.196 85.444,109.835 84.809,110.557 C81.995,112.63 79.304,115.034 77.154,116.731 C76.166,117.508 75.54,118.167 75.129,118.543 C73.474,120.062 72.745,121.618 72.745,123.327 C72.745,131.142 91.594,137.479 114.853,137.485 C138.112,137.479 156.96,131.142 156.96,123.327" fill="#6A281F"/>
    <path d="M124.393,128.42 C123.834,130.533 122.092,131.907 120.5,131.492 C118.909,131.078 118.068,129.029 118.626,126.917 C119.182,124.804 120.928,123.428 122.519,123.842 C124.11,124.26 124.951,126.309 124.393,128.42" fill="#52221A"/>
    <path d="M105.313,128.42 C105.871,130.533 107.615,131.907 109.206,131.492 C110.799,131.078 111.641,129.029 111.082,126.917 C110.521,124.804 108.779,123.428 107.186,123.842 C105.595,124.26 104.757,126.309 105.313,128.42" fill="#52221A"/>
    <path d="M149.097,114.519 C148.746,113.597 127.795,114.519 116.117,109.705 C112.318,108.139 90.555,115.512 87.21,114.877 C83.865,114.243 82.55,113.204 82.153,113.493 C80.192,114.916 73.494,120.366 73.909,123.013 C74.325,125.66 77.167,129.428 80.058,130.809 C82.952,132.189 98.482,136.26 100.353,136.526 C102.23,136.792 129.245,138.68 124.36,137.522 C112.582,134.731 82.634,130.239 80.658,120.801 C80.369,119.419 82.332,117.127 83.165,117.348 C93.831,120.19 109.324,113.559 115.038,113.467 C125.284,113.303 151.785,121.603 149.097,114.519" fill="#54211C"/>
    <path d="M81.987,250.532 C82.754,250.496 83.484,250.5 84.04,250.912 C85.455,251.969 87.677,259.633 89.582,259.953 C91.489,260.272 97.421,256.533 100.23,256.88 C103.038,257.23 103.473,259.392 106.377,259.973 C109.278,260.552 113.993,255.279 114.988,252.403 C115.979,249.528 112.853,254.411 109.727,255.15 C106.6,255.891 105.631,253.3 102.577,253.005 C99.527,252.709 94.39,255.224 91.858,255.15 C89.327,255.077 91.338,250.785 89.105,249.454 C87.429,248.456 85.47,248.819 84.054,248.509 C83.58,248.406 80.798,250.587 81.987,250.532" fill="#54211C"/>
    <path d="M69.985,223.166 C72.275,222.941 55.109,222.585 54.895,226.932 C54.778,229.232 57.799,229.559 58.241,231.262 C58.687,232.964 55.619,240.333 56.905,241.765 C58.194,243.195 65.183,243.947 67.158,245.959 C69.134,247.972 68.117,249.931 70.023,252.184 C71.931,254.436 78.924,253.233 81.505,251.601 C84.085,249.968 78.577,251.849 75.67,250.491 C72.759,249.129 73.627,246.505 71.426,244.383 C69.226,242.261 63.631,241.045 61.698,239.42 C59.763,237.793 64.027,235.683 63.117,233.257 C62.207,230.832 59.382,229.991 59.201,228.169 C58.951,225.63 66.356,223.523 69.985,223.166" fill="#54211C"/>
    <path d="M148.704,250.584 C148.219,250.605 147.771,250.699 147.402,250.974 C145.987,252.031 143.765,259.695 141.861,260.015 C139.956,260.333 134.021,256.594 131.213,256.942 C128.404,257.291 127.973,259.454 125.066,260.033 C122.165,260.614 117.449,255.339 116.455,252.465 C115.463,249.59 118.59,254.473 121.717,255.212 C124.843,255.951 125.811,253.362 128.863,253.067 C131.917,252.771 137.052,255.285 139.584,255.212 C142.117,255.139 140.107,250.847 142.337,249.515 C143.786,248.651 145.447,248.808 146.787,248.664 C147.511,248.588 150.073,250.524 148.704,250.584" fill="#54211C"/>
    <path d="M161.048,222.233 C158.774,221.892 175.936,222.416 175.925,226.765 C175.92,229.07 172.889,229.244 172.356,230.92 C171.826,232.598 175.341,240.043 173.982,241.405 C172.62,242.767 166.124,243.789 164.045,245.697 C161.966,247.607 162.29,249.442 160.269,251.595 C158.249,253.746 150.566,251.804 148.074,250.039 C145.58,248.278 150.985,250.439 153.957,249.229 C156.933,248.022 156.204,245.356 158.511,243.35 C160.821,241.342 166.471,240.413 168.485,238.89 C170.5,237.365 166.349,235.04 167.385,232.664 C168.422,230.288 171.286,229.591 171.561,227.782 C171.941,225.261 164.657,222.776 161.048,222.233" fill="#54211C"/>
    <path d="M87.537,153.086 C87.259,150.659 96.269,200.652 144.055,199.435 C145.96,199.386 88.548,199.739 87.258,198.593 C86.998,198.364 87.604,153.671 87.537,153.086" fill="#235B87"/>
    <path d="M143.491,151.003 C141.507,155.957 140.174,199.827 136.417,199.827 C132.408,199.827 144.809,199.1 143.889,199.816 C142.968,200.533 143.623,150.672 143.491,151.003" fill="#235B87"/>
    <path d="M144.036,154.456 C145.551,153.538 143.491,151.003 143.491,151.003 L144.46,151.631 C144.347,151.22 144.235,150.814 144.123,150.421" fill="#235B87"/>
    <path d="M145.015,151.991 C144.747,151.458 144.472,150.924 144.174,150.395 L144.123,150.421 C144.235,150.814 144.347,151.22 144.46,151.631 L145.015,151.991" fill="#235B87"/>
    <path d="M153.559,129.493 C153.559,129.493 143.491,144.269 110.324,143.968 C78.549,143.68 56.211,118.487 56.211,118.487 L74.8,126.917 L87.038,133.79 L108.914,137.894 L125.282,137.894 L139.776,134.735 L153.559,129.493" fill="#235B87"/>
    <path d="M144.46,151.631 L210.008,153.609 L209.354,143.924 L208.48,141.941 L172.25,144.938 L188.287,133.95 L185.048,133.889 L155.72,145.684 L204.977,124.338 L201.191,117.098 L142.805,151.281 L153.679,146.569 L154.914,146.724 L144.46,151.631" fill="#235B87"/>
    <path d="M199.212,107.447 C199.212,107.447 203.311,118.509 213.974,116.097 C215.789,115.687 213.332,121.399 207.067,121.941 C204.908,122.129 200.199,116.689 200.199,116.689" fill="#54211C"/>
    <path d="M33.408,107.447 C33.408,107.447 29.309,118.509 18.645,116.097 C16.829,115.687 19.287,121.399 25.551,121.941 C27.71,122.129 32.418,116.689 32.418,116.689" fill="#54211C"/>
    <path d="M6.598,139.916 L6.466,143.762 L11.659,146.455 L9.851,149.166 L12.75,151.427 L18.502,150.532 L21.975,146.161 C21.975,146.161 23.028,142.809 22.436,141.56 C21.841,140.309 19.958,143.794 14.966,143.564 C9.97,143.334 10.302,138.668 8.452,139.292" fill="#54211C"/>
    <path d="M224.7,139.916 L224.832,143.762 L219.639,146.455 L221.448,149.166 L218.55,151.427 L212.796,150.532 L209.322,146.161 C209.322,146.161 208.27,142.809 208.862,141.56 C209.455,140.309 211.339,143.794 216.332,143.564 C221.328,143.334 220.996,138.668 222.848,139.292" fill="#54211C"/>
    <path d="M88.599,152.263 L30.531,118.487 L26.658,124.753 L61.596,140.271 L45.748,133.232 L38.113,133.986 L38.113,134.367 L48.414,144.05 L22.436,141.815 L21.139,152.439 L87.741,151.991 L75.382,146.393 L88.599,152.263" fill="#235B87"/>
    <path d="M182.755,62.787 L152.106,63.333 L130.138,68.393 L108.41,71.032 L75.532,63.295 L57.046,63.317 C61.35,5.825 117.368,0.226 111.756,0.916 C74.776,5.461 54.829,36.458 46.505,63.331 L44.69,63.333 L43.067,75.714 C43.067,75.714 43.186,75.703 43.393,75.686 C43.196,76.704 43.015,77.711 42.856,78.699 C38.511,105.449 57.111,122.074 71.282,125.733 C75.186,126.742 74.195,119.007 74.195,119.007 C67.551,116.302 63.659,112.224 61.849,105.455 C59.714,97.482 58.325,90.118 57.546,83.298 C55.67,82.499 54.328,80.451 54.328,78.032 C54.328,76.753 54.709,75.585 55.34,74.646 C56.838,74.268 58.764,71.8 60.268,71.684 C62.167,71.538 63.585,74.062 65.399,73.934 C70.077,73.606 72.063,71.455 73.967,71.455 C75.649,71.455 80.182,73.604 82.946,73.981 C89.909,74.934 99.019,76.745 103.8,77.693 C110.483,79.017 116.331,71.455 116.331,71.455 L125.497,78.516 C125.497,78.516 136.895,74.494 150.766,73.242 C153.177,73.025 155.431,71.162 157.892,71.032 C159.687,70.936 161.692,72.551 163.463,72.52 C164.867,72.496 166.365,72.529 167.905,72.608 C170.362,72.734 171.372,70.107 175.367,73.237 C176.443,74.079 178.593,74.296 180.736,74.369 C182.572,74.432 179.748,97.778 180.901,97.929 C185.902,98.582 188.501,72.576 188.501,72.576 L182.755,62.787" fill="#AF675C"/>
    <path d="M103.8,89.18 L111.093,77.864 L115.78,75.605 L120.449,77.864 L127.374,90.356 C127.374,90.356 120.415,83.449 116.331,82.393 C112.247,81.336 107.822,82.393 107.822,82.393" fill="#AF675C"/>
    <path d="M90.41,105.296 L81.088,107.785 L70.721,108.625 L62.012,107.361 L52.626,103.769 L45.315,98.533 L44.695,99.534 L46.774,104.439 C46.774,104.439 56.144,110.199 63.113,111.276 C72.166,112.672 82.359,111.901 82.359,111.901 L90.41,105.296" fill="#AF675C"/>
    <path d="M143.221,105.54 L151.859,108.052 L158.947,108.661 L172.711,106.43 L176.125,105.119 C176.125,105.119 170.995,112.05 159.673,112.114 C148.353,112.178 149.082,111.901 149.082,111.901 L143.221,107.466 L143.221,105.54" fill="#AF675C"/>
    <path d="M75.7,214.672 C75.943,214.327 76.081,214.053 76.036,213.905 C75.846,214.023 75.734,214.291 75.7,214.672" fill="#BE533E"/>
    <path d="M155.221,225.794 C154.106,226.534 153.11,227.305 152.216,228.092 C154.143,226.922 155.221,225.794 155.221,225.794" fill="#BE533E"/>
    <path d="M121.189,216.027 C123.124,218.647 125.017,220.814 126.858,222.63 C121.585,216.067 117.98,211.682 121.189,216.027" fill="#BE533E"/>
    <path d="M126.858,222.63 C134.18,231.738 144.717,245.043 144.717,245.043 C144.717,245.043 143.556,235.731 152.216,228.092 C147.645,230.867 138.257,233.858 126.858,222.63" fill="#BE533E"/>
    <path d="M115.958,231.792 C115.958,231.792 106.946,236.813 100.561,230.841 L115.57,219.643 L129.82,231.349 C123.31,237.063 115.958,231.792 115.958,231.792 z M131.11,230.051 L115.958,209.682 L106.057,221.332 C110.553,215.847 113.12,212.514 109.708,216.027 C86.245,240.186 75.29,219.252 75.7,214.672 C74.263,216.717 68.699,221.598 69.689,222.282 C87.783,234.809 86.178,245.043 86.178,245.043 C86.178,245.043 89.714,240.882 94.127,235.641 L95.01,234.983 C94.851,235.637 94.765,236.073 94.765,236.073 L102.949,236.307 L109.152,239.426 L115.439,245.697 L119.171,241.403 L125.282,237.206 L133.465,236.423 L137.157,236.347 L131.601,229.473 C131.438,229.677 131.274,229.864 131.11,230.051" fill="#BE533E"/>
    <path d="M94.126,235.642 L99.075,236.553 C99.075,236.553 86.372,250.785 91.518,255.674 C96.666,260.565 82.841,249.628 82.841,249.628 L94.126,235.642" fill="#54211C"/>
    <path d="M136.589,235.642 C136.589,235.642 144.737,245.031 147.433,248.85 C151.334,254.372 131.898,258.862 136.614,254.26 C139.64,251.309 133.465,236.423 133.465,236.423 L136.589,235.642" fill="#54211C"/>
    <path d="M114.545,209.682 L116.649,209.682 L116.649,250.912 L114.545,250.912 z" fill="#A34336"/>
    <path d="M139.853,261.331 C138.164,261.331 136.868,260.526 135.606,259.739 C134.294,258.921 132.932,258.074 130.889,257.925 C128.666,257.767 127.97,258.457 127.231,259.195 C126.448,259.978 125.476,260.95 123.285,260.337 C120.796,259.638 114.545,255.355 114.545,249.389 C114.545,245.896 115.77,242.954 118.188,240.644 C123.853,235.223 133.98,235.173 136.96,235.289 L136.878,237.38 C131.193,237.161 123.674,238.299 119.645,242.151 C117.658,244.051 116.649,246.487 116.649,249.389 C116.649,254.218 122.121,257.836 123.858,258.324 C124.853,258.603 125.076,258.381 125.738,257.721 C126.632,256.827 127.858,255.606 131.041,255.839 C133.607,256.026 135.337,257.103 136.727,257.967 C138.337,258.97 139.398,259.635 141.257,258.969 C143.216,258.267 143.461,257.034 143.796,255.329 C144.055,254.027 144.344,252.551 145.509,251.294 C146.58,250.14 147.858,249.882 148.966,249.783 L149.157,251.867 C148.271,251.946 147.612,252.115 147.056,252.712 C146.297,253.534 146.085,254.602 145.861,255.732 C145.502,257.558 145.053,259.833 141.971,260.937 C141.195,261.215 140.496,261.331 139.853,261.331" fill="#451D18"/>
    <path d="M91.344,261.331 C90.701,261.331 90.003,261.215 89.227,260.937 C86.144,259.833 85.694,257.558 85.335,255.732 C85.112,254.602 84.901,253.534 84.14,252.712 C83.436,251.953 82.499,251.891 81.506,251.828 L81.645,249.74 C82.814,249.816 84.413,249.921 85.688,251.294 C86.852,252.551 87.144,254.027 87.401,255.329 C87.736,257.034 87.979,258.267 89.939,258.969 C91.794,259.635 92.86,258.97 94.473,257.967 C95.861,257.103 97.589,256.026 100.154,255.839 C103.338,255.608 104.565,256.827 105.458,257.721 C106.118,258.381 106.342,258.603 107.339,258.324 C109.075,257.836 114.545,254.218 114.545,249.389 C114.545,246.463 113.522,244.014 111.503,242.106 C107.358,238.189 99.692,237.112 93.902,237.398 L93.794,235.31 C96.819,235.155 107.127,235.088 112.954,240.589 C115.406,242.908 116.649,245.868 116.649,249.389 C116.649,255.355 110.4,259.638 107.913,260.337 C105.722,260.951 104.748,259.978 103.965,259.195 C103.226,258.457 102.525,257.762 100.309,257.925 C98.264,258.074 96.904,258.921 95.591,259.739 C94.326,260.526 93.032,261.331 91.344,261.331" fill="#451D18"/>
    <path d="M69.708,223.16 L68.092,221.82 L87.466,198.737 L89.079,200.076 L69.708,223.16" fill="#A34336"/>
    <path d="M159.776,223.114 L141.97,200.043 L143.642,198.77 L161.449,221.841 L159.776,223.114" fill="#A34336"/>
    <path d="M144.911,247.605 L115.587,211.336 L85.956,246.95 L84.334,245.617 L115.609,208.027 L146.552,246.295 L144.911,247.605" fill="#A34336"/>
    <path d="M68.698,223.522 C67.578,223.895 65.874,223.982 63.904,224.081 C61.167,224.22 57.422,224.409 56.389,225.693 C55.296,227.05 55.536,227.267 56.683,228.309 C57.551,229.096 58.743,230.176 58.871,232.041 C58.991,233.745 58.291,235.077 57.672,236.254 C56.864,237.794 56.278,238.906 57.369,240.673 C58.399,242.345 59.648,242.488 61.538,242.705 C63.166,242.893 65.191,243.125 67.311,244.57 C69.95,246.367 70.134,248.082 70.271,249.333 C70.372,250.26 70.407,250.571 71.362,250.972 C71.975,251.23 73.31,251.49 74.903,251.49 C76.871,251.49 80.489,251.097 82.605,248.469 C85.317,245.101 85.629,241.197 83.533,236.866 C79.985,229.527 70.751,223.522 68.698,223.522 z M74.903,253.581 C73.217,253.581 71.547,253.32 70.543,252.9 C68.447,252.021 68.298,250.655 68.179,249.558 C68.066,248.525 67.959,247.548 66.12,246.295 C64.433,245.143 62.839,244.961 61.295,244.784 C59.252,244.548 57.141,244.306 55.573,241.767 C53.861,238.99 54.939,236.936 55.808,235.285 C56.343,234.265 56.849,233.3 56.772,232.185 C56.7,231.156 56.034,230.552 55.265,229.852 C54.13,228.825 52.421,227.273 54.745,224.387 C56.37,222.369 60.316,222.169 63.797,221.992 C65.538,221.904 67.181,221.821 68.064,221.526 C68.254,221.463 68.469,221.431 68.698,221.431 C71.894,221.431 81.658,228.157 85.432,235.96 C87.871,241.006 87.463,245.784 84.25,249.775 C81.584,253.088 77.249,253.581 74.903,253.581" fill="#451D18"/>
    <path d="M161.834,223.51 C159.815,223.522 150.583,229.526 147.034,236.866 C144.939,241.196 145.25,245.101 147.962,248.469 C150.076,251.097 153.695,251.49 155.661,251.49 C155.661,251.49 155.661,251.49 155.664,251.49 C157.257,251.49 158.591,251.23 159.208,250.972 C160.162,250.571 160.195,250.26 160.296,249.333 C160.431,248.082 160.618,246.367 163.254,244.57 C165.376,243.125 167.401,242.893 169.029,242.705 C170.92,242.488 172.166,242.345 173.197,240.673 C174.289,238.906 173.703,237.794 172.894,236.253 C172.277,235.077 171.576,233.745 171.694,232.041 C171.826,230.176 173.014,229.096 173.885,228.309 C175.03,227.267 175.271,227.049 174.18,225.692 C173.145,224.409 169.398,224.22 166.661,224.081 C164.692,223.982 162.989,223.895 161.834,223.51 z M155.664,253.581 C155.661,253.581 155.661,253.581 155.661,253.581 C153.319,253.581 148.983,253.086 146.318,249.775 C143.103,245.784 142.697,241.006 145.137,235.96 C148.913,228.157 158.673,221.431 161.869,221.431 C162.098,221.431 162.313,221.463 162.502,221.526 C163.385,221.821 165.029,221.904 166.771,221.992 C170.251,222.169 174.197,222.369 175.822,224.386 C178.144,227.273 176.435,228.825 175.304,229.852 C174.533,230.552 173.867,231.156 173.795,232.185 C173.718,233.3 174.223,234.265 174.76,235.285 C175.627,236.936 176.705,238.99 174.992,241.767 C173.426,244.306 171.313,244.548 169.273,244.784 C167.731,244.961 166.133,245.143 164.445,246.295 C162.606,247.548 162.501,248.524 162.387,249.558 C162.271,250.655 162.12,252.021 160.025,252.9 C159.019,253.32 157.351,253.581 155.664,253.581" fill="#451D18"/>
    <path d="M22.239,151.605 L22.602,135.033 L46.978,135.033 L82.925,151.188 L22.239,151.605 z M184.488,135.033 L208.693,135.033 L208.896,151.605 L147.176,151.182 L184.488,135.033 z M211.119,153.711 L211.056,149.381 C211.056,149.381 209.226,144.443 209.202,142.725 C209.177,141.015 210.861,135.667 210.861,135.667 L210.839,134.19 L210.839,132.941 L189.323,132.941 L207.1,125.246 L204.814,120.717 C204.814,120.717 201.214,117.573 200.463,116.085 C199.814,114.801 199.216,109.625 199.216,109.625 L198.71,108.625 L198.087,107.172 L183.366,113.405 C183.057,113.53 175.747,116.454 173.757,117.578 L174.794,119.397 C176.665,118.344 184.078,115.377 184.172,115.338 L197.046,109.887 L204.107,124.26 L143.623,150.436 L143.629,150.45 C143.266,150.596 143.008,150.929 143.008,151.317 C143.008,151.344 143.023,151.367 143.025,151.395 L142.991,151.395 L143.004,198.361 L88.197,198.361 L88.588,152.314 C88.589,152.296 88.599,152.281 88.599,152.263 C88.599,152.246 88.589,152.232 88.589,152.215 L88.59,151.999 L88.54,151.999 C88.426,151.484 88.008,151.093 87.455,150.976 L87.472,150.936 L28.122,124.262 L35.303,109.29 L48.359,115.17 C48.412,115.192 53.607,117.437 55.386,118.664 L56.585,116.945 C54.638,115.603 49.42,113.347 49.214,113.258 L34.196,106.494 L33.326,108.399 L33.444,108.452 L33.069,109.213 C33.069,109.213 32.873,114.392 32.148,115.866 C31.404,117.379 27.201,121.162 27.201,121.162 L25.196,125.242 L42.323,132.941 L20.306,132.941 L20.306,133.531 L20.278,135.656 C20.278,135.656 22.456,140.23 22.436,141.815 C22.413,143.525 20.105,148.838 20.105,148.838 L20.04,153.711 L86.171,153.258 C86.262,153.332 86.364,153.393 86.472,153.445 L86.076,200.452 L145.108,200.452 L145.097,153.259 L211.119,153.711" fill="#264367"/>
    <path d="M10.894,149.276 C10.894,149.276 10.907,149.469 11.298,149.895 C11.43,150.031 12.161,150.314 13.569,150.314 C15.776,150.314 18.018,149.663 19.024,148.731 C22.012,145.96 21.754,139.855 20.483,137.732 C18.097,133.746 14.313,133.316 12.798,133.316 C10.443,133.316 8.997,134.195 8.898,134.572 C8.662,135.645 8.782,135.708 9.142,135.896 C9.661,136.17 10.627,136.675 10.677,138.26 C10.72,139.658 9.385,140.088 8.499,140.372 C7.059,140.834 6.618,141.094 6.901,142.4 C7.048,143.065 7.909,143.426 9.207,143.899 C10.474,144.362 11.914,144.889 12.418,146.222 C12.886,147.457 11.934,148.283 11.422,148.726 C11.247,148.878 10.922,149.16 10.894,149.276 z M13.569,152.407 C12.283,152.407 10.573,152.215 9.739,151.303 C9.061,150.563 8.753,149.86 8.794,149.153 C8.851,148.18 9.538,147.584 10.04,147.151 C10.144,147.058 10.289,146.934 10.381,146.838 C10.101,146.455 9.244,146.142 8.479,145.862 C7.041,145.336 5.248,144.681 4.846,142.844 C4.133,139.577 6.644,138.77 7.851,138.381 C8.074,138.31 8.382,138.21 8.563,138.126 C8.539,137.945 8.464,137.906 8.161,137.747 C7.023,137.149 6.363,136.303 6.843,134.123 C7.212,132.443 9.718,131.224 12.798,131.224 C14.673,131.224 19.352,131.753 22.292,136.662 C24.094,139.674 24.119,146.869 20.46,150.26 C18.753,151.844 15.682,152.407 13.569,152.407" fill="#451D18"/>
    <path d="M18.777,117.422 C18.777,117.422 18.708,117.602 18.88,118.152 C19.11,118.794 22.134,120.492 25.044,120.492 C25.566,120.492 26.019,120.43 26.391,120.308 C30.273,119.033 32.607,113.381 32.346,110.924 C31.715,104.992 26.531,102.994 24.262,102.994 C23.507,102.994 23.196,103.185 23.154,103.235 C22.489,104.112 22.571,104.22 22.817,104.542 C23.172,105.003 23.838,105.865 23.216,107.325 C23.005,107.823 22.502,108.416 21.326,108.416 C21.032,108.416 20.7,108.38 20.348,108.34 C20.046,108.302 19.723,108.262 19.407,108.262 C18.794,108.262 18.304,108.354 18.044,109.516 C17.899,110.181 18.528,110.867 19.507,111.837 C20.463,112.786 21.547,113.861 21.446,115.281 C21.352,116.598 20.14,116.952 19.488,117.143 C19.264,117.208 18.851,117.328 18.777,117.422 z M25.044,122.583 C21.91,122.583 17.525,120.829 16.875,118.783 C16.572,117.83 16.587,117.062 16.92,116.438 C17.382,115.577 18.256,115.322 18.895,115.136 C19.029,115.096 19.214,115.042 19.335,114.993 C19.243,114.531 18.596,113.89 18.021,113.319 C16.935,112.241 15.585,110.901 15.991,109.065 C16.285,107.744 17.115,106.171 19.407,106.171 C19.829,106.171 20.238,106.219 20.598,106.261 C20.861,106.292 21.107,106.325 21.326,106.325 C21.336,106.325 21.343,106.325 21.343,106.325 C21.407,106.151 21.357,106.084 21.146,105.812 C20.366,104.798 20.121,103.756 21.475,101.975 C22.009,101.273 22.97,100.902 24.262,100.902 C27.945,100.902 33.728,104.018 34.44,110.704 C34.809,114.188 31.802,120.733 27.052,122.294 C26.468,122.485 25.791,122.583 25.044,122.583" fill="#451D18"/>
    <path d="M207.999,102.994 C205.732,102.994 200.548,104.992 199.915,110.924 C199.655,113.381 201.99,119.033 205.869,120.308 C206.242,120.43 206.696,120.492 207.218,120.492 C210.128,120.492 213.152,118.794 213.381,118.151 C213.555,117.602 213.483,117.422 213.483,117.421 C213.413,117.328 212.999,117.208 212.774,117.143 C212.122,116.953 210.907,116.598 210.815,115.281 C210.715,113.861 211.798,112.786 212.753,111.837 C213.731,110.867 214.363,110.181 214.214,109.516 C213.956,108.354 213.468,108.262 212.853,108.262 C212.539,108.262 212.217,108.302 211.913,108.34 C211.56,108.38 211.229,108.416 210.935,108.416 C209.758,108.416 209.258,107.823 209.046,107.325 C208.425,105.865 209.088,105.003 209.445,104.542 C209.691,104.22 209.776,104.112 209.109,103.234 C209.067,103.185 208.756,102.994 207.999,102.994 z M207.218,122.583 C206.473,122.583 205.795,122.485 205.21,122.294 C200.459,120.734 197.453,114.188 197.823,110.704 C198.533,104.018 204.316,100.902 207.999,100.902 C209.291,100.902 210.253,101.273 210.787,101.974 C212.14,103.756 211.898,104.798 211.116,105.812 C210.905,106.084 210.856,106.151 210.912,106.325 C211.106,106.331 211.391,106.293 211.662,106.261 C212.024,106.219 212.433,106.171 212.853,106.171 C215.145,106.171 215.976,107.744 216.27,109.065 C216.678,110.901 215.325,112.241 214.241,113.319 C213.664,113.89 213.017,114.531 212.924,114.993 C213.05,115.042 213.231,115.096 213.368,115.136 C214.004,115.322 214.88,115.577 215.34,116.438 C215.676,117.062 215.69,117.83 215.386,118.784 C214.737,120.829 210.351,122.583 207.218,122.583" fill="#451D18"/>
    <path d="M218.348,133.316 C216.831,133.316 213.05,133.746 210.662,137.732 C209.389,139.855 209.132,145.96 212.12,148.73 C213.126,149.663 215.368,150.314 217.575,150.314 C218.982,150.314 219.714,150.031 219.848,149.895 C220.24,149.469 220.251,149.276 220.251,149.275 C220.225,149.16 219.898,148.878 219.722,148.726 C219.211,148.283 218.257,147.457 218.728,146.222 C219.232,144.889 220.671,144.362 221.936,143.899 C223.235,143.426 224.094,143.065 224.242,142.4 C224.527,141.094 224.087,140.834 222.646,140.372 C221.763,140.088 220.425,139.658 220.47,138.26 C220.519,136.675 221.486,136.17 222.002,135.896 C222.361,135.708 222.483,135.645 222.247,134.571 C222.147,134.195 220.702,133.316 218.348,133.316 z M217.575,152.407 L217.575,152.407 C215.463,152.407 212.389,151.844 210.683,150.26 C207.026,146.869 207.05,139.674 208.852,136.662 C211.793,131.753 216.473,131.224 218.348,131.224 C221.428,131.224 223.933,132.443 224.301,134.123 C224.783,136.303 224.124,137.149 222.985,137.747 C222.679,137.906 222.607,137.945 222.586,138.126 C222.764,138.21 223.072,138.31 223.295,138.381 C224.502,138.77 227.013,139.577 226.298,142.844 C225.896,144.681 224.104,145.336 222.666,145.862 C221.901,146.142 221.044,146.455 220.764,146.838 C220.855,146.934 220.999,147.058 221.104,147.151 C221.607,147.584 222.295,148.18 222.35,149.153 C222.391,149.86 222.084,150.563 221.406,151.303 C220.57,152.215 218.862,152.407 217.575,152.407" fill="#451D18"/>
    <path d="M156.626,127.925 L156.054,125.912 C178.603,119.588 188.742,105.66 187.056,83.337 C183.171,43.973 156.797,2.112 115.57,2.091 C74.342,2.112 47.966,43.973 44.082,83.36 C42.397,105.66 52.537,119.588 75.083,125.912 L74.512,127.925 C51.18,121.38 40.237,106.326 41.984,83.18 C44.02,62.568 51.969,42.09 63.8,26.969 C77.591,9.343 95.483,0.019 115.541,-0 C115.561,-0 115.577,-0 115.597,-0 C135.656,0.019 153.547,9.343 167.339,26.969 C179.172,42.09 187.12,62.568 189.152,83.156 C190.903,106.326 179.959,121.38 156.626,127.925" fill="#6B2A21"/>
    <path d="M60.197,73.383 C57.355,73.383 55.043,75.681 55.043,78.505 C55.043,80.856 56.648,82.898 58.949,83.467 L59.896,83.701 L59.734,84.657 C59.589,85.504 59.517,86.273 59.517,87.009 C59.517,94.65 65.773,100.866 73.46,100.866 C81.149,100.866 87.406,94.65 87.406,87.009 C87.406,79.367 81.149,73.15 73.46,73.15 C70.658,73.15 67.954,73.974 65.643,75.535 L64.833,76.079 L64.226,75.32 C63.241,74.09 61.77,73.383 60.197,73.383 z M73.46,102.96 C64.613,102.96 57.413,95.803 57.413,87.009 C57.413,86.428 57.449,85.831 57.525,85.207 C54.783,84.133 52.942,81.498 52.942,78.505 C52.942,74.528 56.196,71.292 60.197,71.292 C62.096,71.292 63.886,72.019 65.231,73.314 C67.716,71.836 70.543,71.058 73.46,71.058 C82.312,71.058 89.51,78.214 89.51,87.009 C89.51,95.803 82.312,102.96 73.46,102.96" fill="#0B0B0A"/>
    <path d="M157.678,73.15 C149.991,73.15 143.734,79.367 143.734,87.009 C143.734,94.65 149.991,100.866 157.678,100.866 C165.367,100.866 171.622,94.65 171.622,87.009 C171.622,86.273 171.552,85.504 171.406,84.657 L171.244,83.701 L172.191,83.467 C174.489,82.898 176.094,80.856 176.094,78.505 C176.094,75.681 173.784,73.383 170.943,73.383 C169.368,73.383 167.897,74.09 166.911,75.32 L166.306,76.079 L165.499,75.535 C163.186,73.974 160.481,73.15 157.678,73.15 z M157.678,102.96 C148.83,102.96 141.629,95.803 141.629,87.009 C141.629,78.214 148.83,71.058 157.678,71.058 C160.599,71.058 163.425,71.836 165.908,73.314 C167.254,72.019 169.044,71.292 170.943,71.292 C174.945,71.292 178.2,74.528 178.2,78.505 C178.2,81.498 176.358,84.133 173.615,85.207 C173.69,85.831 173.728,86.428 173.728,87.009 C173.728,95.803 166.528,102.96 157.678,102.96" fill="#0B0B0A"/>
    <path d="M74.951,120.099 C69.749,118.177 63.273,115.787 62.74,110.775 L64.831,110.554 C65.2,113.997 69.965,116.025 75.683,118.137 L74.951,120.099" fill="#451D18"/>
    <path d="M115.6,138.586 C115.58,138.586 115.56,138.586 115.54,138.586 C91.349,138.575 72.408,131.9 72.408,123.381 C72.408,121.327 73.3,119.511 75.132,117.83 C75.227,117.743 75.334,117.641 75.454,117.523 C75.867,117.128 76.427,116.585 77.212,115.965 C78.012,115.337 78.881,114.612 79.806,113.842 C80.531,113.236 81.291,112.604 82.07,111.972 L83.402,113.593 C82.629,114.22 81.876,114.845 81.156,115.445 C80.218,116.228 79.332,116.966 78.521,117.604 C77.82,118.158 77.3,118.66 76.92,119.026 C76.786,119.155 76.666,119.27 76.56,119.366 C75.165,120.647 74.512,121.923 74.512,123.381 C74.512,129.711 91.01,136.489 115.57,136.494 C140.13,136.489 156.626,129.711 156.626,123.381 C156.626,121.923 155.976,120.647 154.578,119.367 C154.474,119.27 154.354,119.155 154.218,119.026 C153.838,118.66 153.32,118.158 152.616,117.604 C151.805,116.965 150.917,116.224 149.975,115.44 C149.17,114.77 148.325,114.065 147.453,113.363 L148.779,111.739 C149.658,112.448 150.513,113.158 151.327,113.835 C152.253,114.608 153.127,115.336 153.924,115.965 C154.711,116.585 155.272,117.128 155.685,117.523 C155.806,117.641 155.914,117.743 156.008,117.831 C157.84,119.511 158.732,121.327 158.732,123.381 C158.732,131.9 139.792,138.575 115.6,138.586" fill="#451D18"/>
    <path d="M156.189,120.099 L155.455,118.137 C161.176,116.025 165.94,113.997 166.308,110.554 L168.4,110.775 C167.866,115.787 161.393,118.177 156.189,120.099" fill="#451D18"/>
    <path d="M115.392,108.812 C119.475,108.812 121.71,109.512 124.297,110.324 C125.665,110.754 127.081,111.197 128.92,111.585 C134.318,112.722 139.832,113.774 143.581,113.774 C145.726,113.774 147.07,113.399 147.088,112.796 C147.088,111.196 142.999,109.228 139.042,107.326 C136.369,106.038 133.332,104.579 130.528,102.82 C128.455,101.519 126.774,99.862 125.15,98.256 C122.216,95.36 119.682,92.857 115.48,92.857 C111.189,92.857 108.655,95.36 105.719,98.257 C104.096,99.862 102.418,101.519 100.342,102.82 C97.541,104.579 94.508,106.037 91.831,107.325 C87.874,109.228 83.785,111.196 83.785,112.828 C83.801,113.399 85.146,113.774 87.292,113.774 C91.041,113.774 96.553,112.722 101.953,111.585 C103.792,111.197 105.208,110.754 106.575,110.324 C109.162,109.512 111.401,108.812 115.392,108.812 z M143.581,115.866 L143.581,115.866 C139.638,115.866 133.995,114.792 128.487,113.631 C126.544,113.224 125.014,112.743 123.665,112.319 C121.243,111.56 119.149,110.904 115.48,110.904 C111.723,110.904 109.631,111.56 107.209,112.319 C105.858,112.743 104.329,113.224 102.388,113.631 C96.878,114.792 91.234,115.866 87.292,115.866 C83.63,115.866 81.742,114.855 81.679,112.859 C81.679,109.884 85.552,108.021 90.913,105.443 C93.54,104.178 96.517,102.747 99.221,101.052 C101.097,99.874 102.694,98.297 104.237,96.774 C107.229,93.819 110.321,90.766 115.392,90.766 C120.553,90.766 123.643,93.819 126.635,96.773 C128.179,98.297 129.774,99.874 131.652,101.052 C134.355,102.747 137.332,104.178 139.959,105.443 C145.321,108.022 149.193,109.884 149.193,112.828 C149.131,114.855 147.244,115.866 143.581,115.866" fill="#451D18"/>
    <path d="M122.655,124.852 C121.705,124.852 120.718,125.871 120.36,127.22 C120.152,128.012 120.182,128.838 120.449,129.484 C120.579,129.804 120.888,130.363 121.486,130.518 C122.509,130.782 123.696,129.689 124.092,128.191 C124.494,126.667 123.98,125.156 122.969,124.893 C122.868,124.866 122.762,124.852 122.655,124.852 z M121.795,132.65 C121.509,132.65 121.225,132.614 120.951,132.543 C119.867,132.26 118.972,131.433 118.498,130.272 C118.058,129.201 117.997,127.928 118.324,126.688 C118.935,124.376 120.718,122.761 122.655,122.761 C122.943,122.761 123.227,122.798 123.501,122.868 C125.653,123.429 126.831,126.056 126.128,128.721 C125.517,131.036 123.733,132.65 121.795,132.65" fill="#451D18"/>
    <path d="M108.482,124.852 C108.376,124.852 108.271,124.866 108.171,124.893 C107.16,125.156 106.644,126.667 107.05,128.192 C107.444,129.689 108.636,130.782 109.655,130.518 C110.253,130.363 110.56,129.804 110.692,129.484 C110.957,128.838 110.988,128.012 110.78,127.22 C110.422,125.871 109.436,124.852 108.482,124.852 z M109.344,132.65 L109.344,132.65 C107.407,132.65 105.623,131.035 105.013,128.723 C104.308,126.056 105.487,123.429 107.637,122.868 C107.913,122.798 108.196,122.761 108.482,122.761 C110.422,122.761 112.204,124.376 112.813,126.688 C113.143,127.928 113.079,129.201 112.64,130.272 C112.167,131.433 111.271,132.26 110.188,132.543 C109.913,132.614 109.63,132.65 109.344,132.65" fill="#451D18"/>
    <path d="M94.651,177.05 C93.672,177.112 93.283,176.691 93.405,175.965 C93.728,174.074 94.143,172.194 94.357,170.292 C94.528,168.802 94.483,167.283 94.47,165.779 C94.466,165.14 94.257,164.594 93.372,164.801 C93.027,164.882 92.641,164.784 92.276,164.793 C91.795,164.806 91.428,164.631 91.511,164.121 C91.561,163.805 91.77,163.428 92.025,163.246 C92.549,162.874 93.166,162.638 93.726,162.308 C95.386,161.331 97.005,160.277 98.715,159.396 C99.059,159.22 99.732,159.681 100.253,159.847 C100.066,160.21 99.97,160.678 99.681,160.914 C98.676,161.73 97.544,162.396 96.587,163.26 C96.21,163.602 96.012,164.304 96,164.849 C95.983,165.833 96.203,166.821 96.252,167.811 C96.285,168.474 96.221,169.146 96.168,169.811 C96.096,170.679 95.964,171.545 95.922,172.415 C95.91,172.685 96.113,172.965 96.215,173.24 C96.438,173.091 96.724,172.99 96.873,172.786 C98.89,170.066 100.918,167.358 102.872,164.594 C103.864,163.187 104.336,161.53 104.689,159.863 C104.876,158.98 105.363,158.42 106.111,157.959 C107.701,156.979 109.254,155.939 110.821,154.92 C111.085,154.75 111.321,154.483 111.606,154.424 C112.011,154.338 112.448,154.404 112.869,154.404 C112.762,154.829 112.797,155.411 112.523,155.648 C111.673,156.389 110.75,157.072 109.774,157.644 C108.088,158.629 106.481,159.56 105.863,161.656 C105.325,163.492 104.507,165.258 103.697,167.002 C103.369,167.712 102.752,168.291 102.24,168.908 C101.052,170.337 99.854,171.762 98.642,173.17 C97.903,174.028 97.164,174.891 96.358,175.683 C95.795,176.24 95.118,176.684 94.651,177.05" fill="#7BABCC"/>
    <path d="M133.221,160.534 C134.528,160.072 135.197,158.855 134.87,157.545 C133.249,157.47 132.575,158.691 133.221,160.534 z M137.162,159.743 C137.826,159.373 138.486,158.983 139.171,158.642 C139.367,158.544 139.638,158.596 139.875,158.582 C139.858,158.88 139.952,159.248 139.812,159.465 C138.985,160.736 137.577,161.228 136.025,160.923 C135.793,160.879 135.473,161.057 135.253,161.212 C135.028,161.375 134.914,161.7 134.68,161.844 C134.183,162.151 133.703,162.444 133.044,162.013 C132.189,161.456 131.148,161.122 131.107,159.875 C131.095,159.496 131.115,159.105 131.199,158.737 C131.504,157.384 132.261,156.334 133.562,155.809 C133.97,155.643 134.522,155.812 135.006,155.852 C135.135,155.863 135.248,156.006 135.379,156.03 C136.458,156.217 136.849,156.764 136.601,157.87 C136.428,158.632 136.277,159.347 137.162,159.743" fill="#7BABCC"/>
    <path d="M111.975,159.476 C111.975,159.476 112.251,159.517 112.328,159.661 C112.421,159.833 112.419,160.148 112.313,160.306 C112.129,160.584 111.816,160.772 111.593,161.031 C111.231,161.452 110.842,161.87 110.576,162.35 C110.439,162.6 110.538,162.98 110.529,163.301 C110.914,163.308 111.341,163.426 111.673,163.3 C112.645,162.929 113.164,162.085 113.524,161.175 C114.277,159.278 114.948,157.346 115.719,155.457 C116.258,154.141 116.932,152.879 117.497,151.573 C117.857,150.746 118.14,149.884 118.435,149.03 C118.685,148.299 119.002,147.614 119.894,147.568 C120.18,147.555 120.568,147.708 120.739,147.919 C120.866,148.074 120.791,148.482 120.683,148.723 C119.562,151.214 118.413,153.696 117.274,156.18 C116.944,156.902 116.57,157.605 116.292,158.348 C115.876,159.456 115.485,160.581 115.161,161.718 C114.578,163.749 111.966,165.492 110.022,165.094 C108.989,164.882 108.334,164.041 108.531,163.02 C108.803,161.604 109.999,159.507 111.975,159.476" fill="#7BABCC"/>
    <path d="M125.059,172.139 C125.201,171.54 125.314,170.932 125.497,170.344 C125.726,169.614 125.93,168.854 126.301,168.194 C126.539,167.772 127.021,167.436 127.47,167.217 C127.647,167.13 128.111,167.398 128.302,167.623 C128.699,168.089 128.453,168.567 128.187,169.038 C127.841,169.643 127.48,170.256 127.249,170.909 C126.909,171.873 127.516,172.676 128.568,172.598 C129.75,172.509 130.947,172.372 132.087,172.072 C132.852,171.873 133.354,172.211 133.785,172.598 C134.278,173.041 133.882,173.586 133.455,173.788 C131.628,174.639 129.736,175.306 127.682,175.271 C126.799,175.258 125.453,173.73 125.242,172.596 C125.216,172.456 125.211,172.31 125.198,172.168 C125.15,172.158 125.105,172.148 125.059,172.139" fill="#7BABCC"/>
    <path d="M107.71,173.072 C106.382,174.342 105.215,175.464 104.044,176.578 C103.877,176.735 103.69,176.872 103.497,176.994 C102.82,177.421 102.092,177.617 101.445,177.028 C100.7,176.348 100.644,175.533 101.113,174.657 C101.66,173.638 102.163,172.595 102.73,171.585 C103.207,170.736 103.998,170.571 104.589,171.041 C103.892,172.371 103.207,173.68 102.553,174.927 C103.136,175.664 103.685,175.452 104.06,175.143 C105.086,174.295 106.064,173.381 107.02,172.452 C107.491,171.995 107.858,171.433 108.304,170.951 C108.512,170.727 108.779,170.49 109.062,170.414 C109.392,170.326 109.849,170.286 110.107,170.453 C110.285,170.565 110.34,171.103 110.24,171.374 C109.911,172.273 109.469,173.128 109.108,174.018 C108.809,174.751 108.601,175.525 108.276,176.244 C108.159,176.504 107.84,176.772 107.567,176.832 C107.309,176.893 106.811,176.758 106.74,176.581 C106.638,176.329 106.751,175.912 106.914,175.655 C107.372,174.927 107.817,174.216 107.71,173.072" fill="#7BABCC"/>
    <path d="M119.064,174.223 C121.317,174.199 123.048,173.424 124.778,172.646 C124.987,173.458 124.66,174.273 123.84,174.675 C122.429,175.369 120.961,175.992 119.37,176.059 C118.803,176.082 118.184,175.753 117.649,175.474 C116.954,175.108 117.425,174.401 117.561,174.065 C118.317,172.199 119.073,170.292 120.718,168.97 C121.198,168.582 121.763,168.25 122.34,168.039 C123.172,167.731 123.791,168.28 123.53,169.053 C123.45,169.282 122.994,169.614 122.852,169.556 C121.954,169.2 121.454,169.673 121.087,170.334 C120.415,171.544 119.805,172.787 119.064,174.223" fill="#7BABCC"/>
    <path d="M113.89,171.299 C112.888,171.664 111.887,172.027 110.886,172.392 C110.796,172.268 110.705,172.143 110.616,172.017 C111.133,171.481 111.573,170.817 112.19,170.442 C112.827,170.055 113.556,169.53 114.412,169.921 C115.28,170.316 115.472,171.273 115.009,172.513 C114.768,173.169 114.568,173.846 114.402,174.527 C114.351,174.735 114.427,175.155 114.523,175.181 C114.759,175.242 115.061,175.179 115.301,175.079 C116.067,174.759 116.818,174.403 117.654,174.022 C117.894,174.985 117.322,175.338 116.888,175.577 C116.075,176.024 115.197,176.431 114.299,176.616 C113.823,176.714 113.164,176.416 112.737,176.098 C112.49,175.914 112.387,175.302 112.482,174.95 C112.644,174.328 113,173.758 113.289,173.172 C113.547,172.643 113.825,172.125 114.095,171.602 C114.024,171.5 113.957,171.399 113.89,171.299" fill="#7BABCC"/>
    <path d="M128.888,164.879 C129.189,164.54 129.426,164.054 129.806,163.897 C130.406,163.646 130.581,164.229 130.662,164.666 C130.747,165.139 130.793,165.649 130.696,166.109 C130.639,166.37 130.263,166.739 130.032,166.738 C129.798,166.737 129.493,166.378 129.352,166.108 C129.184,165.792 129.161,165.404 129.073,165.047 C129.012,164.992 128.95,164.935 128.888,164.879" fill="#7BABCC"/>
    <path d="M107.017,168.021 C107.155,168.838 106.735,169.176 106.1,169.289 C105.401,169.412 105.315,168.903 105.264,168.389 C105.194,167.697 105.6,166.976 106.087,167.005 C106.755,167.043 107.022,167.481 107.017,168.021" fill="#7BABCC"/>
    <path d="M119.292,162.091 C118.644,160.248 119.315,159.026 120.937,159.103 C121.266,160.41 120.597,161.628 119.292,162.091 z M134.893,149.698 C134.276,149.853 133.664,150.034 133.053,150.224 C133.517,149.21 133.986,148.199 134.442,147.183 C134.551,146.942 134.624,146.534 134.5,146.378 C134.327,146.167 133.939,146.015 133.655,146.03 C132.76,146.075 132.444,146.758 132.192,147.49 C131.9,148.344 131.615,149.205 131.257,150.034 C131.125,150.338 130.979,150.635 130.839,150.935 C130.35,151.095 129.859,151.255 129.368,151.411 C128.752,151.603 128.094,151.696 127.5,151.938 C127.208,152.058 126.919,152.38 126.799,152.676 C126.604,153.153 126.919,153.405 127.389,153.502 C127.749,153.575 128.103,153.759 128.458,153.758 C129.017,153.756 129.262,153.976 129.332,154.291 C128.624,156.062 127.988,157.862 127.285,159.637 C126.923,160.546 126.405,161.388 125.432,161.76 C125.33,161.799 125.185,161.85 125.027,161.903 C123.239,162.295 122.01,161.535 122.669,159.426 C122.919,158.32 122.526,157.774 121.447,157.586 C121.315,157.563 121.203,157.421 121.075,157.41 C120.589,157.369 120.038,157.201 119.631,157.365 C118.328,157.891 117.572,158.941 117.265,160.294 C117.184,160.661 117.163,161.053 117.175,161.432 C117.215,162.679 118.261,163.012 119.111,163.57 C119.771,164 120.249,163.709 120.748,163.4 C120.982,163.256 121.096,162.931 121.322,162.771 C121.543,162.614 121.862,162.436 122.093,162.481 C123.077,162.673 122.362,163.394 123.739,163.534 C123.756,163.538 123.763,163.549 123.78,163.553 C125.723,163.952 128.337,162.21 128.918,160.178 C129.245,159.041 129.635,157.917 130.052,156.808 C130.328,156.066 130.703,155.362 131.033,154.64 C131.258,154.151 131.483,153.659 131.706,153.169 C131.781,153.099 131.859,153.027 131.942,152.981 C133.067,152.356 134.323,151.959 135.49,151.392 C135.822,151.229 136.023,150.794 136.285,150.484 C135.819,150.203 135.268,149.604 134.893,149.698" fill="#7BABCC"/>
    <path d="M182.687,96.569 C167.971,108.424 148.634,107.393 137.143,98.293 C133.653,95.527 126.536,77.906 129.041,73.543 C133.144,66.393 182.006,64.288 183.974,68.055 C187.364,74.549 185.488,94.314 182.687,96.569 z M94.398,98.293 C82.552,106.928 63.573,108.424 48.857,96.569 C46.058,94.314 44.178,74.549 47.57,68.055 C49.538,64.288 98.399,66.393 102.502,73.543 C105.007,77.906 97.634,95.931 94.398,98.293 z M194.335,62.698 C192.13,59.787 159.152,60.562 153.033,60.995 C126.125,62.898 131.913,67.205 115.77,67.115 C99.63,67.205 105.418,62.898 78.508,60.995 C72.39,60.562 39.411,59.787 37.207,62.698 C35.784,64.576 34.974,70.988 35.745,72.087 C37.015,73.896 39.296,73.293 40.926,75.45 C42.55,77.607 42.751,96.386 45.705,98.999 C58.045,109.926 80.448,113.038 96.777,100.662 C104.068,95.137 107.424,76.153 115.773,76.197 C124.118,76.153 127.478,95.137 134.768,100.662 C151.097,113.038 173.498,109.926 185.838,98.999 C188.792,96.386 188.989,77.607 190.618,75.45 C192.247,73.293 194.525,73.896 195.799,72.087 C196.57,70.988 195.759,64.576 194.335,62.698" fill="#B02E2F"/>
    <path d="M170.112,67.261 C152.998,67.261 132.187,70.169 129.952,74.06 C127.777,77.853 134.634,94.966 137.801,97.475 C143.314,101.84 150.593,104.245 158.301,104.245 C166.926,104.246 175.131,101.31 182.022,95.756 C184.197,94.007 186.427,75.021 183.039,68.537 C182.62,68.138 179.315,67.261 170.112,67.261 z M158.301,106.337 L158.301,106.337 C150.119,106.337 142.372,103.771 136.488,99.111 C132.84,96.219 125.208,78.109 128.124,73.025 C131.533,67.089 157.884,65.168 170.112,65.168 C183.65,65.168 184.563,66.916 184.908,67.573 C188.406,74.274 186.754,94.64 183.351,97.381 C176.077,103.24 167.415,106.337 158.301,106.337" fill="#832128"/>
    <path d="M115.743,75.603 C121.239,75.603 124.454,82.187 127.856,89.159 C130.14,93.838 132.501,98.676 135.404,100.877 C142.125,105.969 150.286,108.661 159.01,108.661 C168.87,108.661 178.395,105.236 185.14,99.266 C186.552,98.014 187.406,90.449 187.971,85.443 C188.579,80.051 188.962,76.95 189.777,75.87 C190.806,74.505 192.068,74.041 193.079,73.666 C193.993,73.329 194.53,73.11 194.935,72.534 C195.335,71.684 194.734,66.01 193.495,64.375 C193.327,64.215 191.139,62.661 170.894,62.661 C162.871,62.661 155.538,62.914 153.11,63.086 C138.924,64.087 133.953,65.752 129.957,67.088 C126.417,68.273 123.619,69.208 116.273,69.208 L115.765,69.207 L115.272,69.208 C107.921,69.208 105.126,68.273 101.586,67.088 C97.589,65.752 92.619,64.087 78.434,63.086 C76.006,62.914 68.674,62.661 60.649,62.661 C40.405,62.661 38.215,64.215 38.032,64.393 C36.809,66.01 36.209,71.684 36.631,72.569 C37.013,73.11 37.55,73.329 38.462,73.666 C39.476,74.041 40.736,74.505 41.766,75.87 C42.581,76.95 42.964,80.051 43.573,85.443 C44.139,90.449 44.991,98.014 46.403,99.266 C53.147,105.236 62.672,108.661 72.534,108.661 C81.256,108.661 89.421,105.969 96.139,100.877 C99.042,98.678 101.404,93.838 103.69,89.159 C107.091,82.187 110.305,75.603 115.743,75.603 z M159.01,110.753 C149.821,110.753 141.218,107.913 134.129,102.541 C130.826,100.038 128.353,94.972 125.962,90.071 C122.991,83.987 119.92,77.694 115.8,77.694 C115.793,77.694 115.786,77.694 115.78,77.694 L115.765,77.694 C111.608,77.728 108.543,84.003 105.582,90.071 C103.19,94.972 100.718,100.038 97.414,102.541 C90.325,107.913 81.722,110.753 72.534,110.753 C62.165,110.753 52.13,107.135 45.003,100.827 C43.129,99.168 42.392,93.75 41.482,85.675 C41.086,82.181 40.595,77.831 40.08,77.124 C39.424,76.252 38.638,75.962 37.73,75.627 C36.769,75.273 35.681,74.871 34.881,73.732 C33.707,72.06 34.887,65.065 36.367,63.116 C36.943,62.353 38.296,60.568 60.649,60.568 C68.724,60.568 76.124,60.826 78.584,60.999 C93.035,62.021 98.147,63.731 102.256,65.107 C105.613,66.23 108.266,67.117 115.272,67.117 L115.748,67.116 C115.755,67.116 115.765,67.116 115.775,67.116 L116.273,67.117 C123.275,67.117 125.927,66.23 129.286,65.107 C133.394,63.731 138.507,62.021 152.959,60.999 C155.419,60.826 162.819,60.568 170.894,60.568 C193.246,60.568 194.599,62.353 195.177,63.116 C196.653,65.065 197.836,72.058 196.663,73.732 C195.861,74.871 194.773,75.273 193.813,75.627 C192.903,75.962 192.119,76.252 191.46,77.125 C190.945,77.831 190.455,82.181 190.063,85.675 C189.152,93.75 188.414,99.168 186.54,100.827 C179.416,107.135 169.38,110.753 159.01,110.753" fill="#832128"/>
    <path d="M61.432,67.261 C52.23,67.261 48.923,68.138 48.459,68.603 C45.119,75.021 47.346,94.007 49.518,95.756 C56.269,101.195 64.334,104.068 72.84,104.068 C80.485,104.068 87.921,101.719 93.775,97.45 C96.709,95.311 103.759,77.842 101.589,74.06 C99.355,70.169 78.545,67.261 61.432,67.261 z M72.84,106.161 C63.845,106.161 55.323,103.125 48.191,97.381 C44.788,94.639 43.137,74.274 46.635,67.573 C46.98,66.916 47.893,65.168 61.432,65.168 C73.658,65.168 100.009,67.089 103.416,73.023 C106.342,78.12 98.447,96.638 95.023,99.136 C88.809,103.665 80.929,106.161 72.84,106.161" fill="#832128"/>
  </g>
</svg>
