<svg version="1.1" xmlns="http://www.w3.org/2000/svg" xmlns:xlink="http://www.w3.org/1999/xlink" x="0" y="0" width="213.131" height="263.485" viewBox="0, 0, 213.131, 263.485">
  <g id="Layer_1">
    <path d="M56.131,236.827 C56.338,238.813 55.563,240.673 54.2,241.941 C55.416,243.491 56.852,244.849 58.471,245.964 C59.456,244.47 61.082,243.413 63.008,243.217 C66.406,242.868 69.442,245.323 69.793,248.7 C69.816,248.926 69.826,249.153 69.823,249.375 C70.368,249.365 70.915,249.347 71.467,249.291 C72.672,249.167 73.834,248.923 74.956,248.597 C74.868,248.271 74.798,247.94 74.762,247.595 C74.412,244.222 76.883,241.202 80.279,240.855 C81.909,240.688 83.452,241.171 84.658,242.086 C85.877,240.561 86.849,238.852 87.559,237.018 C85.72,236.113 84.37,234.322 84.146,232.143 C83.841,229.234 85.637,226.597 88.311,225.698 C87.95,224.17 87.405,222.719 86.707,221.365 C86.047,221.698 85.32,221.925 84.541,222.006 C81.143,222.352 78.107,219.897 77.757,216.521 C77.629,215.283 77.882,214.095 78.421,213.067 C76.919,212.289 75.31,211.707 73.621,211.341 C72.953,213.692 70.903,215.519 68.309,215.784 C65.645,216.057 63.213,214.605 62.111,212.341 C60.294,213.085 58.622,214.085 57.14,215.304 C57.697,216.117 58.064,217.075 58.172,218.12 C58.522,221.496 56.054,224.517 52.656,224.864 C52.048,224.926 51.452,224.895 50.881,224.789 C50.279,226.858 50.031,229.059 50.172,231.323 C53.223,231.413 55.809,233.729 56.131,236.827" fill="#C1A889"/>
    <path d="M84.177,232.315 C81.329,234.207 77.91,235.315 74.228,235.315 C66.034,235.315 59.138,229.844 57.003,222.383 C56.004,223.732 54.464,224.679 52.656,224.864 C52.048,224.926 51.452,224.895 50.881,224.789 C50.279,226.858 50.031,229.059 50.172,231.323 C53.223,231.413 55.809,233.729 56.131,236.827 C56.338,238.813 55.563,240.673 54.2,241.941 C55.416,243.491 56.852,244.849 58.472,245.964 C59.456,244.47 61.082,243.413 63.008,243.217 C66.406,242.868 69.442,245.323 69.793,248.7 C69.816,248.927 69.826,249.153 69.823,249.375 C70.368,249.365 70.915,249.347 71.467,249.291 C72.672,249.168 73.834,248.923 74.956,248.597 C74.868,248.272 74.799,247.94 74.762,247.596 C74.412,244.222 76.883,241.202 80.279,240.855 C81.909,240.688 83.452,241.172 84.658,242.086 C85.877,240.561 86.849,238.852 87.559,237.018 C85.771,236.138 84.453,234.416 84.177,232.315" fill="#A5875D"/>
    <path d="M63.651,242.139 C67.265,242.139 70.288,244.765 70.803,248.295 C70.988,248.284 71.172,248.27 71.36,248.252 C72.145,248.17 72.927,248.035 73.733,247.841 C73.728,247.794 73.72,247.749 73.718,247.702 C73.519,245.794 74.081,243.921 75.3,242.431 C76.52,240.942 78.248,240.012 80.17,239.816 C81.684,239.657 83.13,239.969 84.407,240.677 C85.122,239.676 85.735,238.6 86.24,237.461 C84.472,236.276 83.32,234.39 83.1,232.25 C82.784,229.221 84.385,226.402 87.064,225.083 C86.829,224.272 86.537,223.48 86.191,222.711 C85.689,222.879 85.173,222.991 84.646,223.043 C80.613,223.457 77.119,220.552 76.712,216.628 C76.604,215.589 76.725,214.548 77.06,213.571 C76.168,213.167 75.24,212.836 74.287,212.578 C73.25,214.928 71.039,216.555 68.416,216.824 C65.704,217.1 63.14,215.839 61.675,213.675 C60.551,214.199 59.491,214.831 58.508,215.564 C58.888,216.329 59.129,217.16 59.218,218.014 C59.627,221.957 56.733,225.498 52.764,225.904 C52.391,225.942 52.029,225.949 51.666,225.932 C51.324,227.374 51.162,228.862 51.185,230.375 C54.342,230.904 56.841,233.486 57.177,236.721 C57.376,238.642 56.805,240.514 55.593,241.986 C56.402,242.921 57.298,243.77 58.268,244.519 C59.459,243.199 61.096,242.362 62.901,242.177 C63.151,242.151 63.403,242.139 63.651,242.139 z M68.761,250.439 L68.774,249.365 C68.776,249.182 68.769,248.994 68.748,248.807 C68.458,246.022 65.96,243.967 63.116,244.255 C61.574,244.413 60.201,245.245 59.352,246.536 L58.759,247.434 L57.873,246.823 C56.174,245.654 54.658,244.226 53.371,242.583 L52.781,241.83 L53.48,241.179 C54.668,240.076 55.251,238.53 55.085,236.935 C54.823,234.406 52.695,232.443 50.139,232.366 L49.184,232.337 L49.123,231.387 C48.975,229.03 49.226,226.712 49.874,224.498 L50.139,223.585 L51.076,223.762 C51.56,223.852 52.05,223.877 52.55,223.825 C55.363,223.537 57.417,221.026 57.127,218.228 C57.04,217.39 56.744,216.581 56.271,215.889 L55.735,215.105 L56.471,214.498 C58.041,213.206 59.805,212.155 61.711,211.375 L62.626,211.002 L63.059,211.888 C63.988,213.798 66.037,214.966 68.201,214.746 C70.303,214.531 72.035,213.083 72.611,211.056 L72.88,210.11 L73.847,210.319 C75.611,210.704 77.313,211.315 78.903,212.141 L79.835,212.623 L79.353,213.549 C78.892,214.432 78.699,215.423 78.804,216.415 C79.091,219.199 81.568,221.258 84.434,220.966 C85.055,220.903 85.658,220.723 86.234,220.435 L87.166,219.965 L87.644,220.89 C88.389,222.336 88.959,223.873 89.334,225.457 L89.554,226.383 L88.646,226.687 C86.365,227.456 84.944,229.654 85.192,232.036 C85.372,233.785 86.43,235.297 88.024,236.081 L88.886,236.504 L88.539,237.392 C87.788,239.335 86.761,241.132 85.48,242.735 L84.842,243.538 L84.02,242.916 C82.972,242.122 81.709,241.756 80.386,241.893 C79.023,242.034 77.797,242.693 76.93,243.749 C76.067,244.806 75.668,246.133 75.807,247.489 C75.834,247.749 75.888,248.018 75.971,248.317 L76.247,249.31 L75.255,249.599 C73.99,249.967 72.787,250.206 71.574,250.329 C70.966,250.392 70.383,250.41 69.841,250.421 L68.761,250.439" fill="#84694D"/>
    <path d="M68.291,219.351 C74.128,218.755 79.346,222.972 79.948,228.771 C80.547,234.572 76.304,239.756 70.469,240.356 C64.635,240.953 59.414,236.735 58.815,230.936 C58.214,225.136 62.457,219.949 68.291,219.351" fill="#84694D"/>
    <path d="M65.802,230.219 C65.598,228.255 67.037,226.498 69.014,226.295 C70.988,226.094 72.755,227.521 72.961,229.488 C73.165,231.451 71.726,233.208 69.751,233.41 C67.773,233.613 66.006,232.184 65.802,230.219" fill="#FFFFFE"/>
    <path d="M135.007,225.003 C133.971,224.994 134.622,241.468 134.807,249.054 C134.898,252.679 163.065,250.389 162.569,243.492 C162.075,236.596 153.704,237.804 146.549,233.881 C139.394,229.96 136.774,225.015 135.007,225.003" fill="#BC7F71"/>
    <path d="M78.6,217.549 L135.451,217.549 L135.451,247.259 L78.6,247.259 z" fill="#BC7F71"/>
    <path d="M78.421,136.235 L78.796,188.489 L135.451,188.699 L135.451,136.235 L125.452,138.411 C125.452,138.411 127.346,148.805 106.866,148.831 C86.384,148.857 86.67,138.156 86.67,138.156 L78.421,136.235" fill="#45B69F"/>
    <path d="M78.6,189.447 L78.796,209.933 L76.547,210.683 L76.547,217.549 L137.479,218.234 L137.479,210.683 L135.688,210.683 L135.451,189.447 L78.6,189.447" fill="#634332"/>
    <path d="M100.495,188.689 L114.36,188.689 L114.36,199.691 L100.495,199.691 z" fill="#A5875E"/>
    <path d="M114.992,261.489 C118.375,262.44 117.271,258.669 122.377,259.043 C127.483,259.418 128.763,263.632 133.012,262.111 C137.26,260.588 135.313,256.721 137.677,254.17 C140.041,251.618 143.874,254.712 143.874,250.051 C143.874,246.744 137.061,242.609 135.451,240.127 C133.842,237.644 107.028,235.849 107.028,251.559 C107.028,256.967 112.869,260.891 114.992,261.489" fill="#6A281F"/>
    <path d="M99.064,261.489 C95.683,262.44 96.785,258.669 91.679,259.043 C86.572,259.418 85.292,263.632 81.043,262.111 C76.796,260.588 78.742,256.721 76.379,254.17 C74.015,251.618 70.181,254.712 70.181,250.051 C70.181,246.744 76.995,242.609 78.606,240.127 C80.216,237.644 107.029,235.849 107.029,251.559 C107.029,256.967 101.188,260.891 99.064,261.489" fill="#6A281F"/>
    <path d="M74.202,134.909 L70.52,137.16 L51.773,163.476 C51.773,163.476 25.621,164.098 26.372,164.08 C27.124,164.062 30.43,170.649 30.43,170.649 L26.372,177.918 L59.384,176.022 L78.546,154.993 L78.546,136.113" fill="#BC7F71"/>
    <path d="M152.416,173.115 L135.688,154.993 L135.451,136.236 L139.873,134.909 C139.873,134.909 144.5,138.081 147.514,142.195 C150.518,146.297 158.029,157.24 160.826,161.33" fill="#BC7F71"/>
    <path d="M29.895,173.656 C28.141,178.099 22.648,180.114 17.627,178.156 C12.602,176.198 9.952,171.009 11.704,166.567 C13.456,162.123 18.95,160.11 23.972,162.068 C28.997,164.025 31.647,169.213 29.895,173.656" fill="#6A281F"/>
    <path d="M79.776,136.625 L86.244,147.546 L101.308,157.715 L107,164.08 L114.969,155.662 L126.931,149.086 L133.616,136.987 L110.595,139.459 L86.668,138.081 L79.776,136.625" fill="#2D749F"/>
    <path d="M65.564,129.198 C41.106,122.338 32.234,106.787 33.835,85.591 C37.657,46.862 63.376,3.478 106.311,3.478 L106.255,3.478 C149.193,3.478 174.911,46.862 178.731,85.591 C180.332,106.787 171.462,122.338 147.004,129.198 L65.564,129.198" fill="#BC7F71"/>
    <path d="M64.225,74.45 C61.113,74.45 58.222,75.395 55.827,77.012 C54.691,75.594 52.942,74.682 50.976,74.682 C47.555,74.682 44.779,77.439 44.779,80.843 C44.779,83.73 46.781,86.145 49.477,86.812 C49.337,87.635 49.247,88.474 49.247,89.337 C49.247,97.558 55.955,104.224 64.225,104.224 C72.498,104.224 79.203,97.558 79.203,89.337 C79.203,81.116 72.498,74.45 64.225,74.45" fill="#0B0B0A"/>
    <path d="M148.341,74.45 C151.456,74.45 154.346,75.395 156.743,77.012 C157.877,75.594 159.626,74.682 161.589,74.682 C165.012,74.682 167.787,77.439 167.787,80.843 C167.787,83.73 165.787,86.145 163.09,86.812 C163.232,87.635 163.32,88.474 163.32,89.337 C163.32,97.558 156.614,104.224 148.341,104.224 C140.071,104.224 133.363,97.558 133.363,89.337 C133.363,81.116 140.071,74.45 148.341,74.45" fill="#0B0B0A"/>
    <path d="M65.674,85.374 C65.674,87.945 63.577,90.029 60.991,90.029 C58.402,90.029 56.304,87.945 56.304,85.374 C56.304,82.802 58.402,80.717 60.991,80.717 C63.577,80.717 65.674,82.802 65.674,85.374" fill="#D7E7E8"/>
    <path d="M149.627,85.372 C149.627,87.945 147.531,90.029 144.943,90.029 C142.356,90.029 140.258,87.945 140.258,85.372 C140.258,82.802 142.356,80.717 144.943,80.717 C147.531,80.717 149.627,82.802 149.627,85.372" fill="#D7E7E8"/>
    <path d="M148.341,125.649 C148.341,123.941 147.614,122.389 145.96,120.871 C145.552,120.496 144.925,119.837 143.94,119.061 C142.531,117.95 140.89,116.535 139.135,115.108 C139.195,115.05 139.263,114.998 139.318,114.937 C141.589,112.439 125.583,105.989 121.873,103.761 C118.166,101.531 112.955,94.416 107.491,94.452 C102.021,94.488 96.133,101.138 93.702,103.25 C90.637,105.919 86.868,107.614 83.559,109.013 L82.946,109.113 C81.738,109.515 80.49,110.139 79.235,110.897 C77.915,111.539 76.866,112.187 76.23,112.93 C73.437,114.994 70.763,117.375 68.628,119.061 C67.643,119.837 67.017,120.496 66.606,120.871 C64.956,122.389 64.225,123.941 64.225,125.649 C64.225,133.454 83.053,139.784 106.285,139.789 C129.515,139.784 148.341,133.454 148.341,125.649" fill="#6A281F"/>
    <path d="M115.813,130.735 C115.254,132.846 113.513,134.219 111.927,133.805 C110.334,133.391 109.496,131.344 110.05,129.234 C110.609,127.123 112.349,125.75 113.942,126.164 C115.53,126.58 116.37,128.625 115.813,130.735" fill="#52221A"/>
    <path d="M96.755,130.735 C97.314,132.846 99.054,134.219 100.643,133.805 C102.234,133.391 103.073,131.344 102.515,129.234 C101.958,127.123 100.219,125.75 98.629,126.164 C97.036,126.58 96.199,128.625 96.755,130.735" fill="#52221A"/>
    <path d="M203.107,169.499 C203.925,174.2 200.28,178.754 194.964,179.67 C189.65,180.586 184.673,177.516 183.853,172.815 C183.034,168.113 186.681,163.559 191.996,162.642 C197.311,161.726 202.286,164.796 203.107,169.499" fill="#C1A889"/>
    <path d="M183.644,173.304 L176.393,170.621 L169.653,165.8 L164.889,164.353 L164.586,165.001 L164.039,161.249 L161.899,160.782 L154.543,169.497 L152.177,174.72 L153.82,177.078 L157.304,175.75 L164.105,166.019 L163.493,167.319 L168.687,169.401 L176.155,175.242 L186.928,178.312 L183.644,173.304" fill="#A5875E"/>
    <path d="M159.96,171.833 L163.885,171.04 L170.244,168.048 L178.498,165.157 L186.928,164.353 L183.994,167.874 L173.625,170.876 L163.783,174.906 L159.077,175.692 L156.715,176.06 L159.96,171.833" fill="#C1A889"/>
    <path d="M140.487,116.852 C140.136,115.93 119.208,116.852 107.546,112.043 C103.752,110.479 82.013,117.842 78.673,117.211 C75.333,116.577 74.019,115.538 73.621,115.825 C71.664,117.248 64.972,122.69 65.39,125.334 C65.803,127.979 68.642,131.742 71.533,133.121 C74.42,134.5 89.932,138.566 91.801,138.831 C93.675,139.097 120.658,140.982 115.779,139.827 C104.017,137.04 74.103,132.553 72.13,123.125 C71.841,121.747 73.801,119.455 74.634,119.677 C85.286,122.515 100.761,115.893 106.468,115.8 C116.699,115.636 143.172,123.929 140.487,116.852" fill="#54211C"/>
    <path d="M135.192,231.943 C135.177,230.054 140.437,236.41 143.131,238.493 C145.827,240.579 157.961,247.767 162.575,243.89 C165.972,241.038 160.547,252.955 144.808,250.466 C143.871,250.319 137.402,241.545 135.451,240.127 C134.155,239.188 135.206,233.636 135.192,231.943" fill="#AF675C"/>
    <path d="M79.606,239.492 C81.255,237.899 67.626,248.244 70.181,251.772 C71.533,253.64 74.096,252.027 75.509,253.082 C76.921,254.137 79.142,261.791 81.043,262.111 C82.946,262.43 88.876,258.695 91.679,259.043 C94.484,259.391 94.916,261.55 97.817,262.129 C100.717,262.709 105.426,257.442 106.417,254.571 C107.409,251.699 104.285,256.575 101.163,257.314 C98.039,258.053 97.072,255.466 94.024,255.17 C90.974,254.876 85.846,257.387 83.316,257.314 C80.788,257.24 82.795,252.954 80.566,251.623 C78.335,250.293 75.599,251.385 74.32,250.072 C72.534,248.244 76.995,242.017 79.606,239.492" fill="#54211C"/>
    <path d="M134.696,239.552 C133.047,237.961 146.675,248.306 144.122,251.833 C142.769,253.701 140.206,252.088 138.792,253.143 C137.38,254.197 135.16,261.851 133.257,262.172 C131.355,262.49 125.427,258.755 122.623,259.104 C119.818,259.451 119.386,261.611 116.485,262.191 C113.585,262.769 108.876,257.503 107.885,254.631 C106.894,251.759 110.017,256.637 113.139,257.375 C116.261,258.114 117.229,255.527 120.278,255.232 C123.328,254.938 128.456,257.449 130.983,257.375 C133.514,257.302 131.505,253.015 133.736,251.685 C135.968,250.354 138.701,251.445 139.982,250.133 C141.765,248.306 137.308,242.079 134.696,239.552" fill="#54211C"/>
    <path d="M133.496,218.837 C124.371,219.873 115.085,222.124 114.36,222.165 C113.695,222.201 113.798,233.607 113.67,241.258 C113.631,243.592 110.819,242.121 109.524,243.96 C108.136,245.93 107.934,250.985 106.972,251.576 C106.713,251.734 106.654,250.223 106.639,248.483 C106.577,240.741 108.047,221.296 106.159,221.3 C103.853,221.306 87.795,224.27 87.378,225.757 C87.111,226.708 87.006,233.288 86.75,238.498 C86.704,239.396 86.613,238.493 86.185,238.513 C85.099,238.563 79.756,240.347 78.6,240.427 C78.311,240.447 78.453,243.078 78.398,240.511 C78.235,232.811 78.887,217.346 78.887,217.346 L133.95,217.384" fill="#AF675C"/>
    <path d="M171.821,78.285 L168.504,63.937 L163.255,51.453 C163.255,51.453 159.816,48.198 158.401,47.539 C152.956,44.999 134.801,42.896 134.801,42.896 L103.023,41.974 L70.181,44.067 C70.181,44.067 56.004,46.549 52.453,49.514 C51.948,49.934 51.408,50.627 50.864,51.478 C62.383,7.335 108.292,2.757 103.191,3.385 C58.879,8.833 39.039,52.308 34.37,81.074 C30.033,107.792 48.611,124.397 62.765,128.052 C66.667,129.06 65.674,121.335 65.674,121.335 C59.041,118.632 55.151,114.558 53.342,107.798 C51.209,99.834 49.823,92.481 49.046,85.669 C47.172,84.869 45.831,82.824 45.831,80.408 C45.831,78.322 46.837,76.522 48.313,75.548 C48.298,75.053 48.301,74.572 48.296,74.081 C48.363,72.378 48.98,61.046 53.777,56.661 C58.797,52.076 82.717,47.047 106.934,47.203 C130.639,47.355 154.662,52.607 158.722,55.813 C162.183,58.547 163.288,62.957 165.68,71.335 C168.074,79.712 169.542,97.034 169.314,106.324 C169.254,108.78 173.057,95.922 173.057,95.922 L171.821,78.285" fill="#AF675C"/>
    <path d="M30.106,172.016 L56.951,170.206 L77.898,148.039 L78.546,154.993 L59.384,176.022 L27.995,177.727 L30.106,172.016" fill="#AF675C"/>
    <path d="M135.688,153.683 L152.717,172.584 L155.831,168.132 L135.688,147.538 L135.688,153.683" fill="#AF675C"/>
    <path d="M86.924,148.039 C86.924,148.039 85.602,145.512 86.924,144.89 C87.982,144.39 90.3,145.251 90.3,145.251 L94.193,148.039 C94.193,148.039 93.289,146.424 96.075,144.927 C98.859,143.431 102.507,145.251 102.507,145.251 L109.879,146.035 L114.693,144.588 L117.119,142.6 C117.119,142.6 120.483,142.448 124.584,141.657 C128.683,140.864 134.087,137.555 134.087,137.555 L121.126,139.105 L106.907,139.895 L86.244,138.081 L79.776,136.625 L83.061,143.468 L86.924,148.039" fill="#235B87"/>
    <path d="M78.6,139.845 L78.796,188.489 L115.985,188.489 C115.985,188.489 100.58,186.409 92.227,181.162 C83.875,175.913 103.584,182.021 103.584,182.021 C103.584,182.021 90.531,175.566 86.244,163.764 C81.951,151.962 78.6,139.845 78.6,139.845" fill="#2F9C83"/>
    <path d="M135.451,156.413 L135.451,188.699 L125.831,188.489 C125.831,188.489 130.641,186.601 131.689,183.547 C134.424,175.577 135.451,156.413 135.451,156.413" fill="#2F9C83"/>
    <path d="M86.924,188.489 L78.796,188.489 L78.796,200.356 L79.177,200.356 C79.086,202.544 78.791,209.565 78.796,209.932 L86.236,210.683 C86.236,210.683 86.163,206.192 86.924,203.84 C87.682,201.489 106.161,201.094 106.161,201.094 L86.924,200.093 L86.924,188.489" fill="#51382C"/>
    <path d="M91.556,188.489 L100.494,188.489 L100.494,199.691 L91.556,199.691 z" fill="#51382C"/>
    <path d="M113.883,188.158 L122.718,188.158 L122.718,199.691 L113.883,199.691 z" fill="#51382C"/>
    <path d="M127.439,188.699 L134.801,188.699 L134.801,199.691 L127.439,199.691 z" fill="#51382C"/>
    <path d="M107.029,200.356 L107.029,209.874 L114.36,210.253 C114.36,210.253 114.274,202.981 115.985,202.699 L135.451,200.356 L107.029,200.356" fill="#51382C"/>
    <path d="M11.581,166.231 C11.581,166.23 12.109,170.171 15.067,172.567 C15.779,173.143 16.626,172.357 17.486,172.703 C18.394,173.07 18.972,174.137 20.026,174.306 C21.332,174.515 21.797,173.796 23.034,173.812 C23.853,173.824 24.686,174.623 25.669,174.738 C27.878,174.992 30.192,174.676 30.192,174.676 L23.063,178.905 L15.495,178.157 L12.267,172.807" fill="#54211C"/>
    <path d="M183.97,172.016 C183.97,172.016 189.161,175.352 193.275,175.29 C198.106,175.218 201.886,172.583 201.886,172.583 L199.656,176.973 L192.928,179.67 L185.658,176.479 L183.97,172.016" fill="#A5875D"/>
    <path d="M132.165,142.6 C132.165,142.6 122.715,163.329 107,163.34 C94.27,163.349 89.651,151.993 84.025,147.751 C83.334,147.228 80.586,146.749 81.734,150.353 C82.882,153.954 78.304,143.772 78.304,143.772 L78.871,138.081 L91.247,150.924 L99.017,156.413 L104.667,161.471 L107.3,162.884 L112.933,156.413 C112.933,156.413 118.747,155.023 120.435,154.011 C123.946,151.904 132.165,142.6 132.165,142.6" fill="#2F9C83"/>
    <path d="M77.548,217.549 L79.649,217.549 L79.649,240.29 L77.548,240.29 z" fill="#6B2A21"/>
    <path d="M105.976,217.549 L108.079,217.549 L108.079,253.082 L105.976,253.082 z" fill="#6B2A21"/>
    <path d="M154.65,235.425 C149.175,234.193 142.38,232.649 136.502,224.355 L136.502,217.549 L134.398,217.549 L134.398,240.127 L136.502,240.127 L136.502,227.769 C142.453,234.801 149.155,236.329 154.183,237.463 C159.672,238.697 162.09,239.451 161.894,244.356 C161.764,247.53 155.03,249.426 143.862,249.426 L143.874,251.514 L143.877,251.514 C156.85,251.514 163.809,249.067 163.994,244.439 C164.268,237.591 159.811,236.588 154.65,235.425" fill="#6B2A21"/>
    <path d="M140.953,251.909 C139.781,251.984 138.175,252.089 136.905,253.463 C135.741,254.718 135.448,256.192 135.192,257.491 C134.858,259.194 134.614,260.425 132.656,261.127 C130.896,261.76 129.725,261.12 128.129,260.127 C126.742,259.263 125.014,258.189 122.455,258.001 C122.183,257.98 121.928,257.972 121.69,257.972 C119.064,257.972 117.961,259.075 117.157,259.881 C116.622,260.415 116.417,260.598 115.979,260.598 C115.784,260.598 115.548,260.56 115.277,260.483 C113.543,259.996 108.079,256.384 108.079,251.559 C108.079,240.119 123.757,239.539 126.899,239.539 C131.417,239.539 134.185,240.332 134.567,240.693 C135.225,241.712 136.502,242.835 137.974,244.134 C140.021,245.938 142.825,248.41 142.825,250.051 C142.825,251.786 142.503,251.807 140.953,251.909 z M98.779,260.483 C98.508,260.56 98.272,260.598 98.077,260.598 C97.639,260.598 97.432,260.415 96.899,259.881 C96.02,259.001 94.814,257.758 91.602,258.001 C89.041,258.189 87.314,259.263 85.928,260.127 C84.332,261.12 83.16,261.759 81.4,261.127 C79.443,260.425 79.2,259.194 78.863,257.491 C78.607,256.192 78.319,254.718 77.151,253.463 C75.882,252.089 74.276,251.984 73.101,251.909 C71.553,251.807 71.231,251.786 71.231,250.051 C71.231,248.41 74.035,245.938 76.084,244.134 C77.555,242.835 78.829,241.712 79.455,240.738 C79.871,240.332 82.637,239.539 87.155,239.539 C90.297,239.539 105.976,240.119 105.976,251.559 C105.976,256.384 100.514,259.996 98.779,260.483 z M139.368,242.57 C138.067,241.422 136.837,240.339 136.333,239.561 C135.002,237.508 127.725,237.449 126.899,237.449 C118.669,237.449 109.979,239.905 107.028,246.425 C104.075,239.905 95.388,237.449 87.155,237.449 C86.329,237.449 79.052,237.508 77.722,239.561 C77.218,240.339 75.987,241.422 74.687,242.57 C72.081,244.868 69.129,247.471 69.129,250.051 C69.129,253.744 71.436,253.893 72.966,253.994 C74.005,254.062 74.904,254.12 75.607,254.877 C76.367,255.699 76.578,256.766 76.8,257.894 C77.159,259.718 77.608,261.99 80.688,263.093 C81.423,263.356 82.113,263.485 82.798,263.485 C84.491,263.485 85.788,262.678 87.042,261.898 C88.356,261.08 89.714,260.233 91.756,260.085 C93.94,259.922 94.64,260.584 95.409,261.353 C96.002,261.948 96.742,262.688 98.077,262.688 C98.471,262.688 98.887,262.625 99.352,262.494 C101.203,261.974 105.141,259.461 107.028,255.749 C108.914,259.461 112.853,261.974 114.705,262.494 C115.168,262.625 115.585,262.688 115.978,262.688 L115.979,262.688 C117.315,262.688 118.053,261.948 118.649,261.353 C119.416,260.584 120.109,259.923 122.3,260.085 C124.34,260.233 125.699,261.08 127.011,261.898 C128.267,262.678 129.564,263.485 131.258,263.485 C131.942,263.485 132.631,263.356 133.368,263.093 C136.448,261.99 136.896,259.718 137.255,257.894 C137.479,256.766 137.689,255.699 138.45,254.877 C139.153,254.12 140.051,254.062 141.093,253.994 C142.62,253.893 144.926,253.744 144.926,250.051 C144.926,247.471 141.974,244.868 139.368,242.57" fill="#451D18"/>
    <path d="M108.079,211.728 L136.427,211.728 L136.427,217.191 L108.079,217.191 z M77.599,211.728 L105.977,211.728 L105.977,217.191 L77.599,217.191 z M79.627,201.4 L105.977,201.4 L105.977,209.64 L79.648,209.64 L79.627,201.4 z M108.079,201.4 L134.398,201.4 L134.398,209.64 L108.079,209.64 z M136.502,209.64 L136.502,188.699 L134.398,188.699 L134.398,199.31 L128.49,199.31 L128.49,188.699 L126.388,188.699 L126.388,199.31 L124.393,199.31 L124.393,188.699 L122.291,188.699 L122.291,199.31 L115.412,199.31 L115.412,188.699 L113.308,188.699 L113.308,199.31 L101.289,199.31 L101.289,188.699 L99.183,188.699 L99.183,199.31 L92.299,199.31 L92.299,188.699 L90.197,188.699 L90.197,199.31 L87.972,199.31 L87.972,188.699 L85.872,188.699 L85.872,199.31 L79.624,199.31 L79.598,188.697 L77.496,188.702 L77.547,209.64 L75.496,209.64 L75.496,219.278 L138.53,219.278 L138.53,209.64 L136.502,209.64" fill="#3A271C"/>
    <path d="M26.398,165.125 L26.35,163.036 L51.212,162.444 C56.617,154.68 66.471,140.517 66.971,139.739 C70.247,134.646 74.363,133.759 74.537,133.723 L74.956,135.77 C74.826,135.799 71.511,136.559 68.741,140.865 C68.084,141.887 53.266,163.166 52.636,164.072 L52.331,164.508 L26.398,165.125" fill="#6B2A21"/>
    <path d="M26.433,178.959 L26.312,176.874 L58.879,175.003 L78.002,153 L79.592,154.367 L59.889,177.039 L26.433,178.959" fill="#6B2A21"/>
    <path d="M27.725,175.692 C25.221,177.864 22.583,178.32 20.812,178.32 C18.109,178.32 16.025,177.28 15.235,176.313 C13.266,173.907 12.216,169.488 12.503,167.028 C12.593,166.268 12.789,165.963 12.848,165.918 C13.432,165.544 13.752,165.488 13.89,165.488 C13.967,165.488 14.084,165.488 14.335,165.752 C14.479,165.904 14.606,166.075 14.737,166.246 C15.245,166.908 15.938,167.817 17.23,167.817 C17.477,167.817 17.735,167.782 17.995,167.709 C19.039,167.427 19.508,166.633 19.849,166.053 C20.22,165.42 20.289,165.385 20.554,165.399 C21.313,165.43 21.488,165.687 21.907,166.31 C22.397,167.034 23.066,168.024 24.79,168.372 C27.318,168.88 29.228,170.925 29.138,173.03 C29.097,174.005 28.609,174.925 27.725,175.692 z M24.942,164.311 C26.307,165.257 27.382,166.41 28.144,167.536 C27.287,166.966 26.294,166.543 25.206,166.324 C24.33,166.147 24.062,165.749 23.653,165.147 C23.153,164.405 22.466,163.386 20.64,163.311 L20.508,163.307 C19.027,163.307 18.405,164.366 18.033,164.999 C17.772,165.441 17.638,165.642 17.441,165.695 C17.062,165.797 16.903,165.624 16.41,164.982 C16.238,164.754 16.06,164.526 15.867,164.323 C15.795,164.248 15.72,164.187 15.646,164.123 C19.269,161.043 23.283,163.16 24.942,164.311 z M26.144,162.596 C22.556,160.107 17.346,159.082 13.315,163.464 C12.817,163.568 12.285,163.793 11.709,164.161 C11.061,164.578 10.639,165.359 10.458,166.482 C9.994,169.369 11.173,174.657 13.604,177.631 C14.985,179.319 17.816,180.41 20.812,180.41 C22.941,180.41 26.112,179.865 29.106,177.266 C30.437,176.113 31.173,174.678 31.239,173.117 C31.251,172.795 31.229,172.476 31.188,172.161 C32.364,169.328 29.634,165.016 26.144,162.596" fill="#451D18"/>
    <path d="M159.945,161.929 C155.731,155.872 145.866,141.693 145.332,140.865 C142.562,136.559 139.25,135.799 139.109,135.768 L139.538,133.723 C139.711,133.759 143.828,134.646 147.104,139.739 C147.459,140.294 152.907,148.146 161.676,160.741 L159.945,161.929" fill="#6B2A21"/>
    <path d="M151.677,173.68 L134.893,154.367 L136.484,153 L153.27,172.314 L151.677,173.68" fill="#6B2A21"/>
    <path d="M198.84,176.313 C198.051,177.28 195.967,178.32 193.263,178.32 C191.49,178.32 188.853,177.864 186.35,175.692 C185.465,174.926 184.977,174.005 184.937,173.027 C184.846,170.925 186.756,168.88 189.283,168.372 C191.01,168.024 191.68,167.035 192.168,166.31 C192.584,165.687 192.76,165.43 193.564,165.398 C193.788,165.398 193.854,165.422 194.227,166.053 C194.565,166.633 195.034,167.428 196.079,167.709 C196.341,167.782 196.598,167.817 196.845,167.817 C198.134,167.817 198.83,166.908 199.338,166.246 C199.466,166.075 199.598,165.904 199.738,165.753 C199.988,165.488 200.107,165.488 200.187,165.488 C200.323,165.488 200.642,165.544 201.223,165.917 C201.286,165.963 201.482,166.268 201.57,167.028 C201.86,169.488 200.809,173.907 198.84,176.313 z M159.231,174.823 L160.638,172.812 C164.048,172.418 166.862,171.066 169.826,169.626 C173.752,167.72 178.147,165.595 184.916,165.393 C184.481,165.925 184.096,166.478 183.769,167.038 C179.218,167.219 175.228,168.996 171.023,170.894 C167.328,172.561 163.519,174.27 159.231,174.823 z M153.902,175.754 C153.115,175.209 152.968,174.054 153.579,173.18 L160.901,162.705 C161.286,162.155 161.891,161.827 162.519,161.827 C162.854,161.827 163.172,161.923 163.439,162.108 C163.811,162.364 164.052,162.763 164.121,163.234 C164.193,163.732 164.066,164.246 163.762,164.68 L156.44,175.153 C155.85,175.997 154.669,176.281 153.902,175.754 z M168.905,167.749 C168.732,167.833 168.561,167.914 168.389,167.997 C167.274,167.341 166.186,166.832 165.071,166.47 L165.487,165.873 C165.644,165.648 165.776,165.411 165.885,165.166 C167.693,165.664 169.064,166.361 170.209,167.121 C169.766,167.331 169.332,167.541 168.905,167.749 z M163.804,168.282 C164.55,168.484 165.282,168.756 166.016,169.102 C164.797,169.637 163.589,170.093 162.323,170.402 L163.804,168.282 z M175.459,171.238 C177.151,172.456 179.406,173.706 183.038,174.351 C183.24,175.053 183.583,175.718 184.066,176.328 C179.408,175.556 176.412,173.751 173.885,171.909 C174.41,171.676 174.934,171.454 175.459,171.238 z M182.885,172.16 C182.883,172.173 182.881,172.187 182.88,172.203 C180.704,171.758 179.124,171.066 177.873,170.322 C179.5,169.767 181.141,169.351 182.83,169.179 C182.531,170.25 182.517,171.276 182.885,172.16 z M198.429,164.123 C198.355,164.188 198.278,164.248 198.206,164.324 C198.015,164.526 197.838,164.754 197.664,164.982 C197.17,165.624 197.016,165.797 196.631,165.695 C196.437,165.642 196.301,165.441 196.043,164.999 C195.669,164.366 195.046,163.307 193.564,163.307 L193.436,163.311 C191.608,163.386 190.922,164.405 190.422,165.147 C190.014,165.749 189.744,166.147 188.869,166.324 C187.781,166.543 186.788,166.967 185.932,167.536 C186.691,166.41 187.766,165.257 189.132,164.311 C190.79,163.161 194.803,161.042 198.429,164.123 z M203.615,166.482 C203.436,165.359 203.017,164.578 202.363,164.161 C201.791,163.793 201.258,163.568 200.759,163.464 C196.726,159.084 191.52,160.109 187.93,162.597 C187.614,162.817 187.309,163.054 187.007,163.302 C180.651,163.129 176.164,164.49 172.409,166.114 C170.909,164.985 168.989,163.825 166.206,163.093 C166.202,163.04 166.206,162.988 166.2,162.935 C166.047,161.885 165.494,160.982 164.638,160.393 C164.019,159.964 163.285,159.737 162.519,159.737 C161.202,159.737 159.953,160.4 159.176,161.514 L151.853,171.988 C150.583,173.808 150.964,176.266 152.703,177.469 C153.324,177.897 154.055,178.124 154.82,178.124 C155.823,178.124 156.784,177.737 157.532,177.064 C162.884,176.813 167.366,174.839 171.69,172.886 C175.025,175.406 179.259,178.32 187.066,178.753 C189.377,180.079 191.627,180.41 193.263,180.41 C196.259,180.41 199.088,179.319 200.471,177.631 C202.9,174.657 204.079,169.369 203.615,166.482" fill="#84694D"/>
    <path d="M136.502,189.743 L77.496,189.743 L77.548,136.234 C77.548,135.658 78.018,135.191 78.6,135.191 C79.182,135.191 79.651,135.661 79.651,136.237 L79.598,187.654 L134.398,187.654 L134.398,136.235 C134.398,135.66 134.869,135.191 135.451,135.191 C136.032,135.191 136.502,135.66 136.502,136.235 L136.502,189.743" fill="#227763"/>
    <path d="M106.934,164.809 C106.183,164.809 105.748,164.232 105.091,163.358 C104.2,162.173 102.706,160.188 99.752,158.152 C99.066,157.679 98.192,157.125 97.191,156.491 C90.997,152.566 80.629,145.998 78.712,136.679 C78.595,136.113 78.964,135.562 79.531,135.446 C80.098,135.33 80.655,135.695 80.771,136.26 C82.511,144.712 92.408,150.983 98.323,154.729 C99.35,155.38 100.247,155.95 100.95,156.434 C104.183,158.666 105.87,160.905 106.775,162.107 C106.854,162.212 106.934,162.321 107.015,162.425 C107.362,162.045 107.839,161.453 108.251,160.947 C110.178,158.563 113.091,154.96 116.46,154.172 C124.32,152.334 131.58,143.161 132.576,136.495 C132.664,135.925 133.199,135.535 133.772,135.616 C134.346,135.702 134.743,136.232 134.656,136.803 C133.54,144.267 125.723,154.153 116.942,156.206 C114.278,156.829 111.636,160.095 109.889,162.255 C108.471,164.008 107.824,164.807 106.936,164.809 L106.934,164.809" fill="#264367"/>
    <path d="M106.925,154.359 C106.619,154.359 106.304,154.353 105.977,154.338 C100.536,154.104 87.381,145.763 84.32,140.61 C83.543,139.303 83.385,138.171 83.846,137.246 C84.105,136.729 84.735,136.517 85.255,136.774 C85.774,137.031 85.989,137.657 85.73,138.174 C85.637,138.357 85.696,138.813 86.129,139.548 C88.83,144.092 101.313,152.046 106.069,152.251 C111.582,152.501 113.575,150.396 115.127,148.228 C115.464,147.759 116.12,147.647 116.593,147.984 C117.068,148.318 117.178,148.97 116.84,149.441 C115.122,151.834 112.801,154.359 106.925,154.359" fill="#264367"/>
    <path d="M108.022,147.141 C103.48,147.141 101.589,146.001 101.368,145.854 C100.883,145.538 100.75,144.89 101.07,144.406 C101.388,143.926 102.043,143.793 102.523,144.109 C102.531,144.113 104.581,145.329 109.813,144.992 C115.022,144.659 119.538,138.553 119.581,138.491 C119.925,138.025 120.582,137.919 121.051,138.259 C121.52,138.599 121.626,139.252 121.284,139.719 C121.076,140.003 116.133,146.682 109.946,147.078 C109.259,147.122 108.618,147.141 108.022,147.141" fill="#264367"/>
    <path d="M148.007,130.242 L147.436,128.231 C169.955,121.913 180.084,108.003 178.399,85.706 C174.521,46.389 148.177,4.579 107,4.558 C65.822,4.579 39.478,46.389 35.598,85.731 C33.915,108.003 44.043,121.913 66.564,128.231 L65.992,130.242 C42.687,123.704 31.756,108.667 33.505,85.55 C35.534,64.965 43.474,44.508 55.292,29.406 C69.066,11.801 86.937,2.489 106.971,2.469 C106.99,2.469 107.009,2.469 107.029,2.469 C127.062,2.489 144.933,11.801 158.707,29.406 C170.524,44.508 178.466,64.965 180.494,85.526 C182.242,108.667 171.311,123.704 148.007,130.242" fill="#6B2A21"/>
    <path d="M51.693,75.765 C48.856,75.765 46.546,78.06 46.546,80.88 C46.546,83.229 48.152,85.268 50.447,85.837 L51.391,86.069 L51.228,87.025 C51.084,87.871 51.013,88.64 51.013,89.374 C51.013,97.007 57.262,103.216 64.941,103.216 C72.621,103.216 78.868,97.007 78.868,89.374 C78.868,81.741 72.621,75.532 64.941,75.532 C62.141,75.532 59.44,76.355 57.132,77.914 L56.325,78.458 L55.72,77.699 C54.735,76.469 53.266,75.765 51.693,75.765 z M64.941,105.306 C56.103,105.306 48.912,98.159 48.912,89.374 C48.912,88.793 48.949,88.199 49.025,87.573 C46.288,86.502 44.445,83.869 44.445,80.88 C44.445,76.908 47.697,73.675 51.693,73.675 C53.592,73.675 55.376,74.402 56.722,75.695 C59.203,74.22 62.025,73.443 64.941,73.443 C73.78,73.443 80.97,80.59 80.97,89.374 C80.97,98.159 73.78,105.306 64.941,105.306" fill="#0B0B0A"/>
    <path d="M149.059,75.532 C141.378,75.532 135.129,81.741 135.129,89.374 C135.129,97.007 141.378,103.216 149.059,103.216 C156.736,103.216 162.984,97.007 162.984,89.374 C162.984,88.64 162.915,87.871 162.769,87.025 L162.606,86.069 L163.551,85.837 C165.847,85.268 167.454,83.229 167.454,80.88 C167.454,78.06 165.144,75.765 162.307,75.765 C160.731,75.765 159.264,76.469 158.28,77.699 L157.673,78.458 L156.869,77.914 C154.557,76.355 151.858,75.532 149.059,75.532 z M149.059,105.306 C140.219,105.306 133.027,98.159 133.027,89.374 C133.027,80.59 140.219,73.443 149.059,73.443 C151.972,73.443 154.797,74.22 157.278,75.695 C158.623,74.402 160.408,73.675 162.307,73.675 C166.302,73.675 169.555,76.908 169.555,80.88 C169.555,83.869 167.712,86.502 164.973,87.573 C165.05,88.199 165.088,88.793 165.088,89.374 C165.088,98.159 157.896,105.306 149.059,105.306" fill="#0B0B0A"/>
    <path d="M107,138.8 C82.47,138.794 65.992,132.025 65.992,125.705 C65.992,124.246 66.644,122.973 68.036,121.693 C68.142,121.597 68.261,121.482 68.397,121.352 C68.776,120.986 69.294,120.487 69.995,119.933 C70.807,119.296 71.69,118.558 72.627,117.775 C73.004,117.463 73.409,117.133 73.802,116.808 C74.637,117.724 76.282,118.196 78.754,118.196 C82.692,118.196 88.329,117.124 93.833,115.965 C95.772,115.557 97.299,115.078 98.647,114.655 C101.067,113.896 103.156,113.24 106.909,113.24 C110.574,113.24 112.664,113.896 115.085,114.655 C116.432,115.078 117.961,115.557 119.899,115.965 C125.402,117.124 131.038,118.196 134.977,118.196 C137.561,118.196 139.242,117.682 140.038,116.673 C140.49,117.044 140.933,117.412 141.362,117.772 C142.305,118.555 143.192,119.293 144.001,119.932 C144.704,120.487 145.224,120.986 145.603,121.352 C145.737,121.482 145.856,121.597 145.962,121.694 C147.356,122.973 148.006,124.246 148.006,125.705 C148.006,132.025 131.53,138.794 107,138.8 z M83.287,109.667 C85.96,108.379 88.992,106.922 91.792,105.166 C93.862,103.867 95.54,102.211 97.161,100.609 C100.094,97.715 102.624,95.215 106.909,95.215 C111.107,95.215 113.639,97.715 116.57,100.608 C118.191,102.211 119.868,103.867 121.94,105.166 C124.741,106.922 127.771,108.38 130.445,109.667 C134.395,111.566 138.479,113.533 138.479,115.131 C138.463,115.734 137.12,116.107 134.977,116.107 C131.231,116.107 125.726,115.057 120.335,113.921 C118.497,113.534 117.082,113.092 115.716,112.661 C113.132,111.851 110.897,111.15 106.821,111.15 C102.834,111.15 100.601,111.851 98.014,112.661 C96.649,113.092 95.235,113.534 93.399,113.921 C88.006,115.057 82.499,116.107 78.754,116.107 C76.614,116.107 75.27,115.733 75.252,115.162 C75.252,113.533 79.338,111.566 83.287,109.667 z M159.767,113.111 L157.676,112.891 C157.321,116.202 152.892,118.204 147.462,120.231 C147.438,120.208 147.415,120.183 147.391,120.159 C147.295,120.072 147.187,119.968 147.068,119.852 C146.656,119.456 146.093,118.915 145.308,118.297 C144.512,117.667 143.638,116.94 142.712,116.17 C141.99,115.568 141.231,114.94 140.456,114.309 C139.78,111.843 136.176,110.103 131.36,107.786 C128.739,106.524 125.763,105.093 123.062,103.399 C121.187,102.223 119.591,100.649 118.051,99.126 C115.064,96.177 111.974,93.126 106.821,93.126 C101.757,93.126 98.668,96.177 95.682,99.126 C94.138,100.649 92.546,102.223 90.669,103.399 C87.967,105.093 84.995,106.524 82.371,107.786 C77.397,110.179 73.714,111.955 73.213,114.577 C72.55,115.117 71.9,115.658 71.278,116.175 C70.355,116.944 69.485,117.669 68.688,118.297 C67.905,118.915 67.342,119.456 66.932,119.852 C66.812,119.968 66.703,120.072 66.61,120.158 C66.584,120.182 66.562,120.206 66.535,120.231 C61.104,118.204 56.676,116.202 56.323,112.891 L54.232,113.111 C54.721,117.691 60.174,120.078 65.079,121.921 C64.287,123.098 63.891,124.348 63.891,125.705 C63.891,134.211 82.808,140.877 106.969,140.889 C106.987,140.889 107.011,140.889 107.03,140.889 C131.191,140.877 150.108,134.211 150.108,125.705 C150.108,124.348 149.71,123.098 148.92,121.921 C153.824,120.078 159.279,117.691 159.767,113.111" fill="#451D18"/>
    <path d="M114.078,127.173 C113.127,127.173 112.14,128.189 111.784,129.536 C111.577,130.328 111.606,131.152 111.873,131.799 C112.002,132.118 112.312,132.676 112.908,132.832 C113.927,133.096 115.115,132.003 115.514,130.506 C115.912,128.985 115.397,127.476 114.387,127.212 C114.287,127.186 114.185,127.173 114.078,127.173 z M113.216,134.96 C112.933,134.96 112.648,134.924 112.373,134.853 C111.292,134.571 110.4,133.745 109.925,132.586 C109.487,131.516 109.422,130.244 109.75,129.007 C110.361,126.696 112.14,125.083 114.078,125.083 C114.363,125.083 114.646,125.12 114.921,125.192 C117.071,125.752 118.246,128.374 117.546,131.036 C116.933,133.348 115.153,134.96 113.216,134.96" fill="#451D18"/>
    <path d="M99.921,127.173 C99.815,127.173 99.711,127.186 99.609,127.212 C98.601,127.476 98.084,128.985 98.487,130.506 C98.884,132.003 100.085,133.096 101.09,132.832 C101.688,132.676 101.996,132.118 102.127,131.799 C102.39,131.152 102.423,130.328 102.216,129.536 C101.858,128.189 100.873,127.173 99.921,127.173 z M100.781,134.96 L100.781,134.96 C98.844,134.96 97.064,133.347 96.454,131.037 C95.751,128.374 96.926,125.752 99.076,125.192 C99.352,125.12 99.635,125.083 99.921,125.083 C101.858,125.083 103.638,126.696 104.247,129.007 C104.574,130.244 104.513,131.516 104.074,132.586 C103.6,133.745 102.707,134.571 101.624,134.853 C101.352,134.924 101.067,134.96 100.781,134.96" fill="#451D18"/>
    <path d="M22.505,137.936 L31.276,134.635 L19.791,150.355 L22.505,137.936 z M14.436,136.531 L16.178,151.098 L3.803,134.005 L14.436,136.531 z M13.538,127.12 L4.087,130.296 L15.927,114.089 L13.538,127.12 z M21.445,128.437 L19.408,113.791 L31.71,130.782 L21.445,128.437 z M20.351,137.937 L18.006,148.682 L16.614,137.049 L20.351,137.937 z M15.674,127.118 L17.645,116.366 L19.255,127.937 L15.674,127.118 z M15.682,129.264 L19.564,130.151 L20.347,135.788 L16.348,134.839 L15.682,129.264 z M13.57,129.315 L14.17,134.32 L5.092,132.163 L13.57,129.315 z M22.46,135.72 L21.754,130.651 L30.572,132.665 L22.46,135.72 z M17.793,107.98 L0,132.333 L17.7,156.777 L35.49,132.423 L17.793,107.98" fill="#D13A3C"/>
    <path d="M195.427,154.993 L211.834,132.335 L195.34,109.763 L178.937,132.42 L195.427,154.993" fill="#A5875D"/>
    <path d="M195.34,109.763 L191.531,137.16 L211.834,132.335 L195.34,109.763" fill="#C1A889"/>
    <path d="M190.626,137.936 L193.339,150.356 L181.856,134.635 L190.626,137.936 z M190.671,135.72 L180.59,131.926 L193.72,113.791 L190.671,135.72 z M196.025,112.476 L210.058,131.684 L192.785,135.788 L196.025,112.476 z M195.952,152.477 L192.778,137.937 L209.327,134.005 L195.952,152.477 z M195.339,107.98 L177.64,132.423 L195.432,156.777 L213.131,132.333 L195.339,107.98" fill="#84694D"/>
    <path d="M162.748,145.063 C161.603,142.935 161.413,140.057 161.742,136.235 C162.509,127.338 181.096,116.201 181.934,92.65 C182.594,74.084 167.787,-0.347 106.253,1.046 C58.034,2.136 37.474,46.513 31.881,80.717 C28.256,102.899 38.292,116.636 47.833,127.364 C60.991,142.161 46.825,150.353 46.825,150.353 C46.825,150.353 58.026,157.558 58.826,142.6 C59.957,121.445 41.263,108.499 40.534,97.066 C39.7,83.957 44.745,57.351 52.453,49.514 C60.161,41.676 148.669,36.991 161.605,49.682 C170.332,58.24 172.824,82.097 173.121,94.17 C173.422,106.245 159.213,116.968 156.11,130.167 C154.108,138.687 153.995,144.702 155.884,148.231" fill="#634332"/>
    <path d="M100.351,1.025 C100.351,1.025 96.918,2.314 97.226,9.693 C97.252,10.305 95.635,9.894 94.627,11.976 C92.742,15.862 90.786,23.323 90.146,26.336 C89.734,28.283 93.363,25.45 93.729,26.658 C93.915,27.266 99.498,20.661 99.724,21.237 C106.634,38.833 132.165,41.974 132.165,41.974 C132.165,41.974 66.881,38.353 50.559,50.714 C46.222,54 42.118,81.051 40.397,91.387 C38.255,104.224 51.095,116.349 55.104,124.464 C56.989,128.275 59.468,136.831 58.867,141.034 C58.482,143.748 56.816,149.897 54.296,151.014 C52.551,151.789 45.917,151.091 46.819,149.414 C47.117,148.856 51.442,146.219 52.453,142.866 C53.182,140.442 52.495,136.072 51.228,133.879 C49.093,130.182 43.571,122.147 41.349,118.5 C38.274,113.454 33.465,103.804 32.351,98.023 C31.408,93.145 32.762,78.433 32.762,78.433 L40.615,50.208 L48.287,36.648 L75.471,31.086 L90.371,17.876 L92.276,13.534 L88.967,7.886 L83.737,4.968 L100.351,1.025" fill="#51382C"/>
    <path d="M175.276,107.382 C177.999,109.753 178.693,107.364 178.693,107.364 L173.057,117.512 L163.738,132.094 L160.811,139.105 L162.143,145.382 L156.34,147.79 L154.623,143.468 L154.623,136.235 L156.679,128.143 L160.811,120.863 L166.096,113.001 L170.065,105.241 L173.057,98.365 L173.103,87.799 L171.821,78.285 C171.821,78.285 171.174,74.542 171.375,75.276 C178.41,101.259 171.915,104.456 175.276,107.382" fill="#51382C"/>
    <path d="M51.629,152.837 C50.094,152.837 48.461,152.289 46.861,151.219 C46.182,150.764 46.037,150.239 46.034,149.878 C46.027,148.992 46.754,148.485 47.677,147.845 C49.087,146.866 51.219,145.388 51.692,142.215 C52.455,137.078 48.786,129.354 40.777,119.257 C31.442,107.486 28.624,91.911 32.627,74.221 C37.679,51.905 54.967,0 106.253,0 C158.723,0 176.137,51.905 181.185,74.221 C185.193,91.911 182.375,107.486 173.038,119.257 C163.468,131.325 160.107,139.936 163.045,144.848 L161.238,145.916 C157.762,140.104 161.081,130.961 171.388,117.964 C180.447,106.544 183.052,91.98 179.136,74.68 C174.196,52.854 157.202,2.09 106.253,2.09 C56.484,2.09 39.621,52.854 34.68,74.68 C30.764,91.98 33.37,106.544 42.427,117.964 C50.926,128.679 54.638,136.711 53.771,142.52 C53.165,146.586 50.379,148.52 48.882,149.559 C48.772,149.635 48.652,149.716 48.542,149.797 C49.691,150.464 51.416,151.131 53.052,150.484 C55.139,149.661 56.779,146.855 57.801,142.37 C59.74,133.844 54.792,125.136 49.694,117.742 C48.175,115.541 46.977,114.003 45.915,112.647 C43.014,108.927 41.556,107.06 39.773,98.926 C37.337,87.811 43.785,59.974 49.678,50.888 C55.216,42.346 84.677,41.094 106.353,40.895 L106.685,40.892 C125.616,40.718 158.237,41.783 164.14,50.888 C170.004,59.932 176.975,88.333 173.254,99.284 L172.815,100.584 C169.806,109.46 169.727,109.614 164.557,117.112 L164.123,117.742 C159.025,125.136 154.076,133.844 156.015,142.37 C156.437,144.227 156.967,145.805 157.59,147.062 L155.704,147.984 C155.007,146.58 154.424,144.846 153.964,142.831 C151.848,133.521 157.034,124.327 162.387,116.56 L162.823,115.93 C167.879,108.602 167.879,108.602 170.822,99.917 L171.262,98.617 C174.712,88.469 168.012,60.716 162.371,52.019 C158.516,46.074 137.707,42.702 106.706,42.981 L106.374,42.983 C73.616,43.284 55.136,46.324 51.443,52.019 C45.82,60.692 39.539,88.049 41.827,98.481 C43.509,106.153 44.702,107.68 47.578,111.366 C48.601,112.677 49.874,114.309 51.428,116.56 C56.782,124.327 61.968,133.521 59.85,142.831 C58.654,148.094 56.627,151.322 53.83,152.426 C53.132,152.7 52.391,152.837 51.629,152.837" fill="#3A271C"/>
    <path d="M47.29,24.957 L46.182,33 C46.182,33 48.611,45.574 74.871,35.456 C101.132,25.338 94.768,14.34 96.102,13.593 C97.436,12.847 89.708,8.371 89.708,8.371 L87.248,17.008 C87.248,17.008 80.612,24.715 73.766,27.084 C66.922,29.453 60.079,32.068 50.701,28.678 C49.512,28.247 47.29,24.957 47.29,24.957" fill="#634332"/>
    <path d="M47.774,24.271 C47.774,24.271 52.477,34.866 63.979,34.365 C83.493,33.515 97.721,17.687 93.57,22.286 C85.629,31.086 54.296,47.67 46.182,33 C45.106,31.056 47.774,24.271 47.774,24.271" fill="#51382C"/>
    <path d="M88.988,9.018 C91.31,14.593 84.053,22.873 72.783,27.51 C61.511,32.15 50.491,31.391 48.167,25.816 C45.845,20.24 53.101,11.961 64.372,7.324 C75.644,2.684 86.664,3.443 88.988,9.018" fill="#227763"/>
    <path d="M78.388,5.33 C74.245,5.33 69.41,6.381 64.773,8.288 C54.237,12.623 47.077,20.467 49.139,25.417 C50.221,28.015 53.729,29.504 58.765,29.504 C62.908,29.504 67.745,28.453 72.38,26.546 C77.685,24.363 82.233,21.304 85.189,17.93 C87.975,14.751 88.979,11.728 88.016,9.419 C86.932,6.819 83.423,5.33 78.388,5.33 z M58.765,31.592 C52.836,31.592 48.621,29.634 47.195,26.216 C44.613,20.014 51.982,11.291 63.97,6.357 C68.855,4.347 73.975,3.24 78.388,3.24 C84.315,3.24 88.532,5.201 89.957,8.619 C91.241,11.701 90.111,15.494 86.775,19.302 C83.61,22.914 78.784,26.173 73.187,28.476 C68.3,30.486 63.179,31.592 58.765,31.592" fill="#3A271C"/>
    <path d="M46.886,31.322 L44.838,30.851 L46.75,22.632 L48.8,23.103 L46.886,31.322" fill="#3A271C"/>
    <path d="M57.987,39.958 C57.564,39.958 57.15,39.949 56.739,39.935 C50.636,39.705 46.528,37.792 45.177,34.55 C44.709,33.426 44.595,32.179 44.838,30.845 L46.907,31.217 C46.735,32.15 46.809,33.003 47.12,33.75 C48.122,36.16 51.658,37.652 56.821,37.847 C62.448,38.062 69.1,36.715 75.545,34.063 C89.009,28.521 96.519,19.147 95.087,13.865 C94.857,13.019 93.483,12.02 92.85,11.67 L84.98,6.532 L86.134,4.787 L93.941,9.884 C94.155,10.001 96.597,11.405 97.117,13.323 C99.049,20.447 89.928,30.406 76.349,35.993 C70.094,38.568 63.628,39.958 57.987,39.958" fill="#3A271C"/>
    <path d="M60.215,18.099 C59.719,16.897 59.858,15.515 60.496,14.061 C55.138,17.234 52.053,21.551 53.338,24.638 C54.901,28.39 62.318,28.901 69.903,25.78 C73.755,24.195 76.905,21.976 78.871,19.686 C69.989,22.741 61.887,22.149 60.215,18.099" fill="#2E9A81"/>
    <path d="M167.129,24.646 L168.344,32.671 C168.344,32.671 166.081,45.276 139.689,35.508 C113.297,25.737 119.511,14.656 118.166,13.927 C116.825,13.199 124.49,8.62 124.49,8.62 L127.064,17.223 C127.064,17.223 133.805,24.843 140.681,27.122 C147.558,29.4 154.434,31.925 163.764,28.41 C164.949,27.963 167.129,24.646 167.129,24.646" fill="#634332"/>
    <path d="M124.65,8.698 C124.65,8.698 118.436,10.664 118.389,15.382 C118.328,21.516 125.557,31.123 138.239,34.955 C151.511,38.967 162.804,39.188 166.614,36.108 C170.963,32.594 166.824,25.396 166.824,25.396 C166.824,25.396 159.248,35.64 140.843,27.199 C124.349,19.637 124.65,8.698 124.65,8.698" fill="#51382C"/>
    <path d="M125.22,9.259 C122.973,14.864 130.339,23.048 141.671,27.534 C153.005,32.024 164.014,31.12 166.261,25.514 C168.508,19.909 161.143,11.726 149.812,7.237 C138.478,2.749 127.469,3.653 125.22,9.259" fill="#227763"/>
    <path d="M136.101,5.428 C130.958,5.428 127.254,7.004 126.197,9.646 C125.264,11.968 126.309,14.978 129.137,18.119 C132.137,21.453 136.727,24.452 142.059,26.564 C146.586,28.357 151.317,29.344 155.38,29.344 C160.526,29.344 164.227,27.769 165.285,25.128 C166.215,22.804 165.172,19.795 162.344,16.653 C159.345,13.319 154.752,10.32 149.422,8.207 C144.897,6.415 140.165,5.428 136.101,5.428 z M155.38,31.434 L155.38,31.434 C150.995,31.434 146.119,30.421 141.28,28.505 C135.651,26.276 130.783,23.082 127.57,19.512 C124.181,15.749 123,11.969 124.245,8.872 C125.656,5.355 129.976,3.338 136.101,3.338 C140.488,3.338 145.364,4.352 150.2,6.267 C155.831,8.497 160.698,11.691 163.912,15.261 C167.298,19.024 168.479,22.803 167.237,25.901 C165.828,29.417 161.507,31.434 155.38,31.434" fill="#3A271C"/>
    <path d="M167.614,31.002 L165.593,22.81 L167.636,22.314 L169.658,30.504 L167.614,31.002" fill="#3A271C"/>
    <path d="M156.171,39.789 C150.64,39.789 144.336,38.487 138.218,36.064 C124.565,30.657 115.313,20.821 117.147,13.669 C117.643,11.746 120.069,10.308 120.345,10.15 L128.016,4.988 L129.195,6.718 L121.457,11.921 C120.765,12.323 119.402,13.342 119.186,14.185 C117.824,19.485 125.459,28.761 138.996,34.122 C145.476,36.689 152.135,37.944 157.77,37.659 C162.93,37.396 166.444,35.856 167.415,33.435 C167.717,32.684 167.777,31.83 167.594,30.899 L169.658,30.498 C169.919,31.83 169.821,33.078 169.367,34.21 C168.061,37.468 163.98,39.434 157.878,39.745 C157.319,39.774 156.751,39.789 156.171,39.789" fill="#3A271C"/>
    <path d="M145.965,18.559 C140.189,17.331 135.373,14.719 132.524,11.639 C132.385,11.845 132.266,12.063 132.172,12.292 C130.609,16.043 135.49,21.614 143.075,24.735 C150.659,27.858 158.074,27.346 159.638,23.595 C160.259,22.104 159.848,20.324 158.667,18.526 C155.082,19.461 150.628,19.551 145.965,18.559" fill="#2E9A81"/>
    <path d="M119.846,12.196 C119.802,12.166 114.9,9.235 106.537,9.235 C98.323,9.235 94.926,12.065 94.892,12.093 L93.502,10.525 C93.658,10.388 97.437,7.147 106.537,7.147 C115.541,7.147 120.738,10.285 120.956,10.42 L119.846,12.196" fill="#3A271C"/>
    <path d="M125.647,28.641 C119.472,28.641 115.91,23.938 113.046,20.157 C111.006,17.467 109.246,15.142 107.203,15.142 C107.203,15.142 107.195,15.142 107.19,15.142 C105.141,15.149 103.422,17.402 101.433,20.011 C98.637,23.68 95.157,28.247 88.987,28.247 L88.987,26.158 C94.112,26.158 96.982,22.391 99.758,18.751 C101.987,15.827 104.093,13.064 107.184,13.052 C110.309,12.998 112.443,15.887 114.727,18.903 C117.442,22.487 120.52,26.551 125.647,26.551 L125.649,26.551 L125.649,28.641 L125.647,28.641" fill="#3A271C"/>
    <path d="M55.104,147.536 C55.104,148.265 54.511,148.856 53.777,148.856 C53.046,148.856 52.453,148.265 52.453,147.536 C52.453,146.808 53.046,146.219 53.777,146.219 C54.511,146.219 55.104,146.808 55.104,147.536" fill="#3A271C"/>
    <path d="M56.951,142.353 C56.951,143.082 56.356,143.672 55.624,143.672 C54.894,143.672 54.296,143.082 54.296,142.353 C54.296,141.625 54.894,141.034 55.624,141.034 C56.356,141.034 56.951,141.625 56.951,142.353" fill="#3A271C"/>
    <path d="M56.951,136.236 C56.951,136.965 56.356,137.555 55.624,137.555 C54.894,137.555 54.296,136.965 54.296,136.236 C54.296,135.508 54.894,134.918 55.624,134.918 C56.356,134.918 56.951,135.508 56.951,136.236" fill="#3A271C"/>
    <path d="M157.53,148.16 C158.064,149.032 159.641,150.737 160.333,151.29 C161.237,151.098 163.707,150.049 164.554,149.454 C164.219,148.589 162.871,146.798 162.235,146.313 C161.327,146.464 158.579,147.554 157.53,148.16 z M160.154,153.409 L160.154,153.409 C159.968,153.409 159.801,153.378 159.646,153.316 C158.769,152.97 156.023,150.044 155.443,148.676 C155.234,148.188 155.211,147.766 155.369,147.389 C155.93,146.046 161.42,144.207 162.38,144.207 C162.535,144.207 162.672,144.225 162.8,144.264 C164.019,144.622 166.731,148.174 166.731,149.737 C166.731,150.466 166.237,151.113 163.709,152.256 C163.285,152.449 161.115,153.409 160.154,153.409" fill="#84694D"/>
  </g>
</svg>
