<svg version="1.1" xmlns="http://www.w3.org/2000/svg" xmlns:xlink="http://www.w3.org/1999/xlink" x="0" y="0" width="175.239" height="133.254" viewBox="0, 0, 175.239, 133.254">
  <g id="Layer_1">
    <path d="M138.829,31.412 L175.239,21.163 L94.383,0 L13.127,21.562 L33.692,26.547 C22.419,35.827 12.685,47.416 6.738,64.685 L0,73.22 L10.751,73.869 L10.132,65.085 C16.586,49.003 26.258,36.332 37.503,27.471 L50.017,30.504 C45.985,34.771 42.566,39.623 39.903,44.92 L50.903,44.92 C59.924,30.628 75.857,21.133 94.003,21.133 C112.149,21.133 128.081,30.628 137.102,44.92 L148.103,44.92 C145.626,39.995 142.497,35.455 138.829,31.412 z" fill="#00779C" id="path17"/>
    <path d="M69.96,77.98 C68.125,79.383 65.833,80.217 63.346,80.217 C60.859,80.217 58.566,79.383 56.732,77.98 L55.292,77.98 C52.93,77.98 50.997,79.913 50.997,82.275 L50.997,94.851 C56.118,104.493 64.387,112.209 74.433,116.628 C75.211,115.85 75.694,114.776 75.694,113.595 L75.694,82.275 C75.694,79.913 73.762,77.98 71.399,77.98 L69.96,77.98 z M72.533,69.32 C72.533,64.246 68.419,60.132 63.346,60.132 C58.273,60.132 54.158,64.246 54.158,69.32 C54.158,73.315 56.71,76.715 60.271,77.98 C61.233,78.322 62.267,78.507 63.346,78.507 C64.424,78.507 65.459,78.322 66.42,77.98 C69.982,76.715 72.533,73.315 72.533,69.32 z M113.408,82.275 L113.408,113.595 C113.408,114.607 113.762,115.54 114.353,116.276 C124.791,111.462 133.237,103.06 138.106,92.653 L138.106,82.275 C138.106,79.913 136.173,77.98 133.811,77.98 L132.37,77.98 C130.536,79.383 128.243,80.217 125.757,80.217 C123.269,80.217 120.976,79.383 119.143,77.98 L117.702,77.98 C115.341,77.98 113.407,79.913 113.407,82.275 z M134.945,69.32 C134.945,64.246 130.83,60.132 125.757,60.132 C120.683,60.132 116.569,64.246 116.569,69.32 C116.569,73.315 119.12,76.715 122.682,77.98 C123.643,78.322 124.679,78.507 125.757,78.507 C126.835,78.507 127.869,78.322 128.831,77.98 C132.393,76.715 134.945,73.315 134.945,69.32 z" fill="#FF6700" id="path21"/>
    <path d="M106.79,63.188 C106.79,56.463 101.336,51.01 94.611,51.01 C87.886,51.01 82.433,56.463 82.433,63.188 C82.433,68.483 85.815,72.991 90.536,74.668 C91.81,75.12 93.182,75.367 94.611,75.367 C96.041,75.367 97.412,75.12 98.686,74.668 C103.408,72.991 106.79,68.483 106.79,63.188 z M78.243,80.361 L78.243,118.115 C83.185,119.806 88.487,120.725 94.002,120.725 C99.973,120.725 105.694,119.649 110.98,117.68 L110.98,80.361 C110.98,77.23 108.418,74.668 105.287,74.668 L103.378,74.668 C100.947,76.527 97.908,77.633 94.611,77.633 C91.315,77.633 88.276,76.527 85.844,74.668 L83.936,74.668 C80.805,74.668 78.243,77.23 78.243,80.361 z" fill="#00779C" id="path31"/>
    <path d="M35.67,56.577 C34.247,61.722 33.487,67.141 33.487,72.739 C33.487,106.155 60.586,133.254 94.003,133.254 C127.419,133.254 154.518,106.155 154.518,72.739 C154.518,67.141 153.758,61.722 152.335,56.577 L142.313,56.577 C144.011,61.655 144.931,67.089 144.931,72.739 C144.931,100.861 122.125,123.667 94.003,123.667 C65.88,123.667 43.074,100.861 43.074,72.739 C43.074,67.089 43.994,61.655 45.692,56.577 L35.67,56.577 z" fill="#00779C" id="path3848"/>
  </g>
</svg>
